<?xml version="1.0" encoding="utf-8"?>
<!-- Generator: Adobe Illustrator 16.0.0, SVG Export Plug-In . SVG Version: 6.00 Build 0)  -->
<!DOCTYPE svg PUBLIC "-//W3C//DTD SVG 1.1//EN" "http://www.w3.org/Graphics/SVG/1.1/DTD/svg11.dtd">
<svg version="1.1" id="Layer_1" xmlns="http://www.w3.org/2000/svg" xmlns:xlink="http://www.w3.org/1999/xlink" x="0px" y="0px"
	 width="64px" height="64px" viewBox="909.168 248.147 64 64" enable-background="new 909.168 248.147 64 64" xml:space="preserve">
<rect fill="#FFFFFF" width="512" height="512"/>
<path d="M365.448,63.923H139.955c-11.177,0-20.238-9.061-20.238-20.238l0,0c0-11.177,9.061-20.238,20.238-20.238h225.493
	c11.178,0,20.238,9.061,20.238,20.238l0,0C385.687,54.862,376.626,63.923,365.448,63.923z"/>
<g>
	<path fill="#FFFFFF" d="M151.562,34h2.578v17.802h8.53v2.163h-11.108V34z"/>
	<path fill="#FFFFFF" d="M168.356,35.599c0.03,0.889-0.622,1.6-1.658,1.6c-0.919,0-1.57-0.711-1.57-1.6
		c0-0.918,0.681-1.629,1.629-1.629C167.734,33.97,168.356,34.681,168.356,35.599z M165.454,53.964V39.627h2.607v14.336H165.454z"/>
	<path fill="#FFFFFF" d="M172.385,43.507c0-1.481-0.03-2.695-0.119-3.88h2.311l0.148,2.37h0.059
		c0.711-1.363,2.369-2.696,4.739-2.696c1.985,0,5.065,1.185,5.065,6.102v8.56h-2.606v-8.264c0-2.311-0.859-4.236-3.317-4.236
		c-1.718,0-3.051,1.215-3.496,2.666c-0.119,0.326-0.178,0.77-0.178,1.214v8.62h-2.606V43.507L172.385,43.507z"/>
	<path fill="#FFFFFF" d="M191.401,46.203h0.059c0.355-0.503,0.859-1.125,1.274-1.629l4.206-4.947h3.14l-5.539,5.894l6.309,8.442
		h-3.169l-4.947-6.872l-1.333,1.481v5.391h-2.577V32.933h2.577L191.401,46.203L191.401,46.203z"/>
	<path fill="#FFFFFF" d="M210.032,39.627l1.896,7.287c0.415,1.6,0.8,3.081,1.066,4.562h0.089c0.326-1.451,0.8-2.991,1.273-4.532
		l2.34-7.316h2.191l2.222,7.168c0.533,1.718,0.948,3.229,1.274,4.68h0.089c0.237-1.451,0.622-2.962,1.096-4.65l2.043-7.198h2.577
		l-4.621,14.336h-2.37l-2.192-6.842c-0.503-1.6-0.918-3.021-1.273-4.71h-0.06c-0.355,1.718-0.8,3.199-1.303,4.74l-2.311,6.813
		h-2.369l-4.325-14.336H210.032L210.032,39.627z"/>
	<path fill="#FFFFFF" d="M231.95,47.27c0.06,3.525,2.311,4.976,4.917,4.976c1.866,0,2.992-0.326,3.969-0.741l0.444,1.866
		c-0.918,0.415-2.488,0.889-4.769,0.889c-4.414,0-7.05-2.903-7.05-7.228s2.547-7.731,6.724-7.731c4.68,0,5.924,4.117,5.924,6.753
		c0,0.533-0.06,0.948-0.089,1.215H231.95z M239.593,45.403c0.03-1.659-0.681-4.236-3.614-4.236c-2.636,0-3.791,2.429-3.999,4.236
		H239.593z"/>
	<path fill="#FFFFFF" d="M245.22,53.964c0.059-0.978,0.119-2.429,0.119-3.703V32.933h2.577v9.004h0.059
		c0.918-1.599,2.577-2.636,4.888-2.636c3.555,0,6.072,2.962,6.042,7.316c0,5.125-3.228,7.672-6.427,7.672
		c-2.074,0-3.732-0.8-4.799-2.696h-0.089l-0.119,2.37L245.22,53.964L245.22,53.964z M247.916,48.217
		c0,0.326,0.059,0.652,0.119,0.948c0.503,1.807,2.014,3.051,3.91,3.051c2.725,0,4.354-2.221,4.354-5.509
		c0-2.873-1.481-5.332-4.266-5.332c-1.777,0-3.436,1.215-3.969,3.199c-0.06,0.296-0.148,0.652-0.148,1.066V48.217z"/>
	<path fill="#FFFFFF" d="M271.374,35.599c0.03,0.889-0.622,1.6-1.659,1.6c-0.918,0-1.569-0.711-1.569-1.6
		c0-0.918,0.681-1.629,1.629-1.629C270.752,33.97,271.374,34.681,271.374,35.599z M268.471,53.964V39.627h2.607v14.336H268.471z"/>
	<path fill="#FFFFFF" d="M285.621,53.431c-0.682,0.355-2.191,0.829-4.117,0.829c-4.324,0-7.139-2.932-7.139-7.316
		c0-4.414,3.021-7.613,7.701-7.613c1.541,0,2.903,0.385,3.614,0.741l-0.593,2.014c-0.621-0.355-1.6-0.681-3.021-0.681
		c-3.287,0-5.064,2.429-5.064,5.42c0,3.317,2.133,5.361,4.977,5.361c1.48,0,2.458-0.385,3.199-0.711L285.621,53.431z"/>
	<path fill="#FFFFFF" d="M301.468,46.677c0,5.302-3.673,7.613-7.138,7.613c-3.881,0-6.872-2.844-6.872-7.375
		c0-4.798,3.14-7.612,7.108-7.612C298.684,39.302,301.468,42.293,301.468,46.677z M290.094,46.825c0,3.14,1.807,5.509,4.354,5.509
		c2.488,0,4.354-2.34,4.354-5.569c0-2.429-1.214-5.509-4.295-5.509C291.427,41.256,290.094,44.1,290.094,46.825z"/>
	<path fill="#FFFFFF" d="M304.756,43.507c0-1.481-0.029-2.695-0.118-3.88h2.311l0.147,2.37h0.06
		c0.711-1.363,2.369-2.696,4.739-2.696c1.984,0,5.065,1.185,5.065,6.102v8.56h-2.606v-8.264c0-2.311-0.859-4.236-3.318-4.236
		c-1.718,0-3.051,1.215-3.495,2.666c-0.118,0.326-0.178,0.77-0.178,1.214v8.62h-2.606V43.507L304.756,43.507z"/>
	<path fill="#FFFFFF" d="M327.118,51.298c0.771,0.503,2.133,1.037,3.437,1.037c1.896,0,2.784-0.948,2.784-2.133
		c0-1.244-0.74-1.925-2.666-2.636c-2.576-0.918-3.791-2.34-3.791-4.058c0-2.31,1.866-4.206,4.946-4.206
		c1.452,0,2.726,0.415,3.525,0.889l-0.651,1.896c-0.563-0.355-1.6-0.829-2.933-0.829c-1.54,0-2.399,0.889-2.399,1.955
		c0,1.185,0.859,1.718,2.726,2.429c2.487,0.948,3.762,2.192,3.762,4.324c0,2.518-1.955,4.295-5.362,4.295
		c-1.569,0-3.021-0.385-4.028-0.977L327.118,51.298z"/>
	<path fill="#FFFFFF" d="M340.655,47.27c0.059,3.525,2.31,4.976,4.917,4.976c1.866,0,2.992-0.326,3.969-0.741l0.444,1.866
		c-0.918,0.415-2.488,0.889-4.769,0.889c-4.414,0-7.05-2.903-7.05-7.228s2.547-7.731,6.724-7.731c4.68,0,5.924,4.117,5.924,6.753
		c0,0.533-0.06,0.948-0.089,1.215H340.655z M348.297,45.403c0.03-1.659-0.681-4.236-3.613-4.236c-2.636,0-3.791,2.429-3.999,4.236
		H348.297z"/>
	<path fill="#FFFFFF" d="M357.183,35.51v4.118h3.732v1.984h-3.732v7.731c0,1.777,0.504,2.784,1.955,2.784
		c0.682,0,1.186-0.089,1.511-0.178l0.119,1.955c-0.504,0.208-1.304,0.355-2.311,0.355c-1.215,0-2.192-0.385-2.814-1.096
		c-0.74-0.771-1.007-2.044-1.007-3.732v-7.819h-2.222v-1.985h2.222v-3.436L357.183,35.51z"/>
</g>
<g>
	<path d="M137.638,171.027c-0.391,1.642-0.558,3.33-1.073,4.948c-1.21,3.797-3.171,7.143-5.987,9.965
		c-7.564,7.579-15.087,15.2-22.728,22.701c-9.349,9.179-23.626,9.491-33.418,0.855c-0.992-0.875-0.992-0.875-0.033-1.834
		c1.813-1.814,3.639-3.614,5.428-5.451c0.431-0.443,0.669-0.461,1.162-0.038c6.112,5.235,14.412,5,20.099-0.634
		c7.484-7.413,14.938-14.858,22.345-22.35c4.096-4.143,5.425-9.153,3.702-14.721c-1.684-5.44-5.5-8.826-11.092-9.947
		c-4.958-0.993-9.364,0.364-12.98,3.903c-4.829,4.726-9.584,9.528-14.33,14.338c-0.659,0.668-0.984,0.634-1.604-0.018
		c-1.815-1.907-3.693-3.755-5.581-5.591c-0.457-0.444-0.461-0.681-0.002-1.136c4.919-4.882,9.787-9.816,14.724-14.68
		c3.931-3.872,8.685-6.096,14.169-6.748c0.199-0.023,0.39-0.116,0.584-0.176c1.525,0,3.049,0,4.574,0
		c0.191,0.063,0.378,0.155,0.575,0.185c10.196,1.542,16.949,7.228,20.363,16.925c0.586,1.663,0.737,3.425,1.102,5.138
		C137.638,168.116,137.638,169.571,137.638,171.027z"/>
	<path d="M56.491,250.871c-15.518-0.042-26.746-12.627-25.143-27.054c0.606-5.452,2.739-10.228,6.59-14.126
		c7.816-7.911,15.628-15.829,23.603-23.579c9.004-8.751,23.932-8.694,33.132-0.098c0.568,0.531,0.6,0.813,0.026,1.363
		c-1.923,1.848-3.8,3.745-5.664,5.654c-0.452,0.463-0.71,0.507-1.24,0.047c-5.985-5.186-14.415-4.942-20.023,0.623
		c-7.526,7.466-15.037,14.948-22.481,22.496c-4.035,4.09-5.305,9.064-3.631,14.547c1.661,5.44,5.452,8.85,11.044,9.994
		c5.083,1.04,9.541-0.404,13.227-4.04c4.76-4.695,9.48-9.432,14.173-14.195c0.67-0.68,0.993-0.609,1.603,0.031
		c1.793,1.879,3.649,3.699,5.503,5.52c0.432,0.423,0.608,0.68,0.067,1.215c-5,4.946-9.914,9.979-14.958,14.88
		C67.659,248.68,61.953,250.771,56.491,250.871z"/>
</g>
<g>
	<path d="M186.045,226.809c0.474-2.168,0.71-4.384,1.413-6.508c1.409-4.261,3.549-8.1,6.711-11.287
		c8.048-8.114,16.138-16.188,24.25-24.238c2.453-2.434,5.348-4.258,8.555-5.558c0.747-0.302,1.23-0.741,1.537-1.51
		c1.375-3.445,3.411-6.479,6.023-9.096c8.072-8.09,16.001-16.335,24.314-24.171c11.776-11.101,30.896-10.059,41.727,1.953
		c10.477,11.62,10.545,28.823-0.215,40.218c-7.871,8.335-16.154,16.281-24.289,24.367c-2.48,2.466-5.411,4.304-8.652,5.625
		c-0.707,0.289-1.158,0.707-1.451,1.432c-1.391,3.435-3.404,6.484-6.015,9.104c-7.926,7.956-15.834,15.929-23.851,23.793
		c-4.729,4.64-10.534,7.17-17.112,7.929c-0.313,0.035-0.617,0.137-0.926,0.207c-1.593,0-3.186,0-4.779,0
		c-0.35-0.236-0.761-0.188-1.15-0.248c-11.798-1.83-19.91-8.28-24.313-19.387c-0.971-2.449-1.286-5.047-1.778-7.606
		C186.045,230.154,186.045,228.482,186.045,226.809z M261.439,218.479c-4.745,0.796-9.205,0.655-13.602-0.567
		c-0.618-0.172-0.875,0.189-1.204,0.517c-2.958,2.954-5.912,5.911-8.87,8.865c-4.114,4.107-8.171,8.273-12.365,12.298
		c-3.484,3.344-7.749,4.515-12.459,3.533c-5.349-1.114-8.999-4.393-10.597-9.595c-1.641-5.341-0.415-10.197,3.531-14.19
		c7.528-7.619,15.123-15.172,22.71-22.733c2.744-2.734,6.08-4.173,9.965-4.196c3.883-0.023,7.148,1.463,10.034,4.049
		c4.628,4.146,10.338,4.082,14.653-0.183c7.533-7.445,15.018-14.941,22.469-22.468c3.283-3.317,4.059-7.992,2.141-11.76
		c-3.295-6.473-11.26-7.784-16.551-2.6c-6.542,6.408-12.963,12.941-19.455,19.4c-0.563,0.56-0.557,0.789,0.177,1.142
		c2.71,1.306,5.113,3.063,7.274,5.152c1.234,1.192,2.391,2.458,3.356,3.874c0.641,0.937,0.428,2.037-0.398,2.663
		c-0.804,0.608-1.799,0.523-2.584-0.265c-0.363-0.365-0.666-0.79-0.994-1.189c-2.384-2.901-5.225-5.252-8.619-6.86
		c-10.408-4.929-21.72-2.993-29.918,5.139c-7.463,7.403-14.88,14.852-22.303,22.295c-5.623,5.639-8.335,12.424-7.755,20.4
		c0.626,8.603,4.653,15.343,11.897,19.911c10.232,6.452,22.724,5.287,31.476-3.075c8.346-7.974,16.375-16.282,24.505-24.48
		C259.348,222.151,260.461,220.497,261.439,218.479z M232.995,177.329c4.745-0.811,9.204-0.634,13.603,0.558
		c0.612,0.166,0.877-0.182,1.208-0.514c1.944-1.942,3.887-3.884,5.83-5.827c4.929-4.926,9.849-9.86,14.786-14.777
		c3.971-3.954,8.71-5.341,14.119-3.859c10.268,2.813,13.644,15.54,6.211,23.359c-2.963,3.116-6.065,6.098-9.105,9.139
		c-4.533,4.534-9.071,9.062-13.598,13.602c-2.963,2.972-6.52,4.497-10.728,4.365c-3.566-0.111-6.612-1.486-9.255-3.879
		c-4.718-4.273-10.452-4.317-14.836,0.007c-7.541,7.438-15.019,14.94-22.471,22.466c-3.294,3.327-4.083,8.005-2.168,11.756
		c3.311,6.483,11.264,7.809,16.55,2.633c6.542-6.408,12.959-12.945,19.458-19.397c0.684-0.679,0.413-0.872-0.258-1.199
		c-1.829-0.892-3.523-2.006-5.109-3.285c-1.962-1.582-3.71-3.373-5.218-5.392c-0.835-1.118-0.753-2.243,0.17-2.96
		c0.892-0.693,1.941-0.517,2.834,0.491c0.29,0.328,0.543,0.688,0.822,1.024c2.37,2.858,5.182,5.181,8.536,6.777
		c10.409,4.955,21.774,2.987,30.011-5.199c7.399-7.354,14.761-14.747,22.135-22.126c5.693-5.697,8.456-12.549,7.828-20.61
		c-0.668-8.584-4.684-15.338-11.978-19.858c-10.404-6.449-22.787-5.163-31.645,3.36c-8.176,7.867-16.079,16.018-24.073,24.072
		C235.202,173.521,234.038,175.23,232.995,177.329z"/>
</g>
<g>
	<path d="M484.703,187.674c-0.424,2.092-0.628,4.22-1.214,6.288c-1.491,5.263-4.084,9.898-7.898,13.801
		c-4.522,4.627-9.125,9.175-13.711,13.738c-1.645,1.637-3.948,1.673-5.456,0.15c-1.523-1.539-1.469-3.792,0.182-5.451
		c4.312-4.333,8.643-8.647,12.962-12.972c5.28-5.285,7.787-11.666,7.633-19.133c-0.237-11.543-9.299-22.143-20.699-24.084
		c-8.904-1.517-16.61,0.875-23.032,7.264c-4.282,4.261-8.542,8.545-12.819,12.811c-1.455,1.452-3.22,1.75-4.768,0.84
		c-2.196-1.291-2.506-4.142-0.615-6.042c4.462-4.485,8.936-8.96,13.424-13.419c2.894-2.876,6.226-5.122,9.978-6.731
		c3.04-1.304,6.203-2.14,9.496-2.474c0.314-0.032,0.65,0.017,0.927-0.198c1.717,0,3.433,0,5.149,0
		c0.274,0.062,0.547,0.155,0.825,0.182c13.261,1.28,24.714,10.856,28.354,23.677c0.616,2.17,0.888,4.396,1.283,6.604
		C484.703,184.241,484.703,185.958,484.703,187.674z"/>
	<path d="M374.843,228.9c0.171-8.839,3.104-16.47,9.206-22.764c4.478-4.62,9.073-9.125,13.631-13.667
		c1.639-1.634,3.946-1.684,5.458-0.17c1.527,1.529,1.49,3.792-0.16,5.454c-4.281,4.313-8.577,8.611-12.888,12.894
		c-5.331,5.298-7.875,11.693-7.722,19.202c0.237,11.547,9.301,22.159,20.686,24.1c8.903,1.518,16.614-0.869,23.041-7.249
		c4.262-4.231,8.5-8.485,12.736-12.741c1.078-1.084,2.292-1.703,3.85-1.312c2.775,0.697,3.803,3.924,1.927,6.107
		c-0.628,0.73-1.34,1.388-2.028,2.064c-4.436,4.36-8.613,8.992-13.283,13.099c-12.936,11.378-32.979,10.481-44.968-1.916
		C378.073,245.533,374.973,237.772,374.843,228.9z"/>
	<path d="M409.202,230.668c-0.922-0.035-2.088-0.719-2.742-2.094c-0.67-1.41-0.491-2.781,0.488-4.018
		c0.177-0.223,0.391-0.417,0.593-0.62c13.063-13.065,26.131-26.126,39.185-39.201c0.992-0.994,2.078-1.62,3.519-1.42
		c1.433,0.198,2.442,0.98,2.971,2.315c0.529,1.333,0.321,2.596-0.557,3.731c-0.218,0.281-0.484,0.525-0.736,0.777
		c-13.014,13.014-26.031,26.024-39.036,39.046C412.018,230.053,411.082,230.697,409.202,230.668z"/>
</g>
<g>
	<path d="M59.496,444.392c-17.214-0.014-30.792-14.456-29.732-31.625c0.447-7.229,3.119-13.507,8.158-18.712
		c3.604-3.723,7.296-7.359,10.982-11c2.027-2.002,4.95-2.13,7.045-0.398c1.994,1.648,2.454,4.633,1.011,6.801
		c-0.333,0.5-0.769,0.938-1.196,1.366c-3.285,3.298-6.602,6.564-9.866,9.884c-5.481,5.573-7.216,12.219-4.92,19.64
		c2.268,7.333,7.421,11.866,14.966,13.314c6.497,1.246,12.285-0.504,17.07-5.141c3.604-3.492,7.093-7.103,10.666-10.628
		c2.29-2.259,5.784-2.128,7.731,0.226c1.648,1.991,1.687,4.897-0.147,6.771c-4.075,4.166-8.114,8.384-12.422,12.301
		C73.41,442.129,66.806,444.304,59.496,444.392z"/>
	<path d="M102.139,343.09c16.632-0.063,30.28,14.389,29.252,31.563c-0.44,7.363-3.199,13.725-8.362,19
		c-3.51,3.587-7.076,7.119-10.642,10.652c-2.274,2.254-5.493,2.295-7.581,0.152c-2.038-2.094-1.928-5.264,0.285-7.488
		c3.396-3.416,6.834-6.791,10.205-10.231c5.434-5.548,7.161-12.166,4.9-19.542c-2.264-7.385-7.442-11.955-15.043-13.386
		c-6.595-1.241-12.419,0.61-17.231,5.361c-3.457,3.413-6.882,6.856-10.303,10.306c-1.461,1.475-3.193,2.069-5.198,1.571
		c-3.636-0.903-5.273-5.479-2.707-8.196c4.415-4.675,8.774-9.445,13.76-13.522C88.701,345.056,94.868,343.178,102.139,343.09z"/>
	<path d="M94.458,374.573c1.981,0.136,3.61,1.062,4.516,2.993c0.928,1.979,0.669,3.9-0.752,5.549
		c-1.16,1.344-2.46,2.568-3.707,3.838c-7.85,7.994-15.707,15.979-23.548,23.98c-1.419,1.447-3.038,2.275-5.106,1.841
		c-3.988-0.839-5.553-5.452-2.85-8.503c1.285-1.452,2.701-2.788,4.061-4.174c7.708-7.848,15.424-15.689,23.118-23.551
		C91.346,375.363,92.655,374.607,94.458,374.573z"/>
</g>
<g opacity="0.7">
	<path d="M962.57,269.651c-0.18,0.77-0.248,1.558-0.466,2.322c-0.562,1.974-1.503,3.742-2.926,5.22
		c-1.716,1.784-3.472,3.531-5.241,5.264c-1.382,1.351-3.605,0.732-4.076-1.115c-0.234-0.92,0.025-1.724,0.698-2.394
		c1.618-1.616,3.248-3.219,4.846-4.853c3.521-3.604,2.881-9.454-1.318-12.199c-3.045-1.99-7.144-1.644-9.749,0.898
		c-2.58,2.515-5.134,5.059-7.645,7.646c-2.88,2.968-2.874,7.775-0.047,10.797c0.385,0.41,0.732,0.835,0.856,1.4
		c0.23,1.082-0.246,2.147-1.194,2.675c-0.951,0.528-2.111,0.386-2.898-0.401c-1.855-1.86-3.073-4.078-3.516-6.671
		c-0.767-4.475,0.454-8.352,3.662-11.577c2.45-2.467,4.897-4.938,7.385-7.366c2.08-2.031,4.605-3.163,7.496-3.477
		c0.109-0.012,0.212-0.052,0.316-0.081c0.667,0,1.333,0,2.001,0c0.122,0.029,0.244,0.066,0.367,0.083
		c5.333,0.734,8.919,3.641,10.794,8.677c0.357,0.956,0.463,1.969,0.654,2.961C962.57,268.19,962.57,268.92,962.57,269.651z"/>
	<path d="M946.688,284.403c-0.039,3.49-1.245,6.513-3.698,9.004c-2.451,2.487-4.895,4.987-7.417,7.402
		c-3.598,3.443-7.885,4.57-12.649,3.142c-4.82-1.447-7.836-4.776-8.865-9.711c-0.877-4.22,0.23-7.998,3.143-11.188
		c1.271-1.394,2.646-2.699,3.993-4.021c1-0.981,2.508-0.963,3.46,0.004c0.949,0.961,0.938,2.461-0.046,3.463
		c-1.203,1.223-2.443,2.408-3.629,3.646c-2.114,2.207-2.828,4.834-1.987,7.768c0.837,2.917,2.816,4.79,5.769,5.501
		c2.722,0.656,5.203,0.014,7.223-1.922c2.615-2.504,5.168-5.073,7.684-7.676c2.884-2.983,2.87-7.751,0.031-10.793
		c-0.555-0.595-0.956-1.232-0.897-2.07c0.074-1.03,0.601-1.772,1.561-2.14c0.981-0.375,1.887-0.163,2.627,0.581
		c1.703,1.722,2.831,3.768,3.38,6.128C946.587,282.468,946.698,283.429,946.688,284.403z"/>
</g>
<g>
	<path d="M367.737,420.5c0.465-2.369,0.828-4.758,1.727-7.029c1.266-3.199,3.013-6.087,5.435-8.526
		c6.39-6.438,12.81-12.845,19.229-19.253c1.478-1.475,3.539-1.529,4.899-0.18c1.388,1.377,1.317,3.44-0.215,4.977
		c-6.116,6.131-12.251,12.242-18.365,18.374c-6.964,6.983-7.966,17.186-2.464,24.904c6.795,9.534,20.371,10.794,28.825,2.562
		c6.337-6.171,12.531-12.488,18.78-18.75c0.678-0.678,1.398-1.246,2.385-1.328c1.434-0.117,2.575,0.417,3.279,1.684
		c0.699,1.259,0.582,2.518-0.257,3.683c-0.259,0.36-0.603,0.661-0.919,0.978c-5.911,5.913-11.855,11.793-17.726,17.746
		c-4.462,4.525-9.747,7.296-16.091,7.986c-0.178,0.02-0.347,0.116-0.52,0.177c-1.494,0-2.987,0-4.48,0
		c-0.247-0.068-0.49-0.163-0.741-0.2c-10.655-1.59-17.814-7.45-21.495-17.573c-0.678-1.864-0.864-3.831-1.286-5.749
		C367.737,423.487,367.737,421.993,367.737,420.5z"/>
	<path d="M367.737,367.631c0.775-1.848,2.153-2.538,4.152-2.492c4.143,0.094,8.288,0.025,12.433,0.029
		c2.156,0.002,3.597,1.383,3.577,3.413c-0.02,1.958-1.468,3.303-3.576,3.305c-4.145,0.005-8.29-0.065-12.433,0.03
		c-2.002,0.047-3.374-0.651-4.153-2.493C367.737,368.825,367.737,368.229,367.737,367.631z"/>
	<path d="M446.817,448.503c-1.892-0.797-2.543-2.227-2.494-4.252c0.101-4.132,0.026-8.269,0.032-12.403
		c0.003-2.075,1.382-3.507,3.356-3.507c1.974,0,3.357,1.434,3.36,3.506c0.006,4.135-0.069,8.271,0.032,12.403
		c0.05,2.028-0.605,3.454-2.495,4.253C448.013,448.503,447.415,448.503,446.817,448.503z"/>
	<path d="M455.644,333.811c11.438,0.01,20.74,6.203,24.785,15.797c3.977,9.434,1.956,20.496-5.226,27.822
		c-6.323,6.45-12.752,12.797-19.147,19.178c-1.483,1.479-3.545,1.535-4.9,0.192c-1.395-1.382-1.325-3.441,0.203-4.973
		c6.223-6.235,12.484-12.433,18.674-18.7c6.611-6.695,7.551-16.742,2.355-24.311c-6.783-9.879-20.63-11.143-29.265-2.617
		c-6.216,6.137-12.364,12.341-18.534,18.523c-0.648,0.65-1.342,1.188-2.272,1.323c-1.342,0.197-2.653-0.425-3.346-1.57
		c-0.706-1.169-0.632-2.698,0.2-3.788c0.18-0.235,0.399-0.443,0.61-0.654c6.202-6.203,12.395-12.416,18.61-18.605
		C443.449,336.393,449.593,333.93,455.644,333.811z"/>
	<path d="M376.913,346.286c0.06-1.382,0.681-2.427,1.95-3.001c1.305-0.59,2.626-0.464,3.644,0.527
		c3.312,3.225,6.588,6.489,9.808,9.807c1.271,1.31,1.119,3.404-0.14,4.65c-1.251,1.239-3.346,1.359-4.652,0.088
		c-3.286-3.199-6.509-6.463-9.734-9.723C377.167,348.007,376.862,347.202,376.913,346.286z"/>
	<path d="M473.261,435.956c-0.037,1.383-0.637,2.44-1.897,3.038c-1.295,0.614-2.634,0.521-3.649-0.464
		c-3.345-3.245-6.643-6.541-9.887-9.887c-1.227-1.266-1.075-3.332,0.127-4.564c1.236-1.268,3.339-1.436,4.647-0.168
		c3.32,3.217,6.566,6.51,9.817,9.797C473.009,434.305,473.298,435.084,473.261,435.956z"/>
	<path d="M399.101,343.823c0-2.199-0.008-4.399,0.003-6.598c0.009-1.987,1.409-3.415,3.332-3.422
		c1.934-0.008,3.376,1.411,3.382,3.374c0.012,4.473,0.013,8.946-0.001,13.419c-0.005,1.96-1.455,3.379-3.389,3.368
		c-1.919-0.01-3.315-1.441-3.324-3.432C399.093,348.297,399.101,346.06,399.101,343.823z"/>
	<path d="M472.339,417.14c-2.199,0-4.398,0.007-6.598-0.002c-2.047-0.009-3.479-1.425-3.466-3.404
		c0.014-1.911,1.452-3.308,3.443-3.312c4.436-0.009,8.871-0.01,13.307,0c1.984,0.004,3.408,1.418,3.411,3.346
		c0.003,1.932-1.417,3.357-3.389,3.369C476.812,417.15,474.575,417.14,472.339,417.14z"/>
</g>
<image overflow="visible" width="269" height="67" xlink:href="25A1A31A.jpg"  transform="matrix(1 0 0 1 601.418 241.3013)">
</image>
</svg>
