<?xml version="1.0" encoding="utf-8"?>
<!-- Generator: Adobe Illustrator 27.5.0, SVG Export Plug-In . SVG Version: 6.00 Build 0)  -->
<svg version="1.1" id="Layer_1" xmlns="http://www.w3.org/2000/svg" xmlns:xlink="http://www.w3.org/1999/xlink" x="0px" y="0px"
	 viewBox="0 0 2000 2000" style="enable-background:new 0 0 2000 2000;" xml:space="preserve">
<rect style="fill:#FFFFFF;" width="2000" height="2000"/>
<path d="M1427.533,249.698H546.7c-43.661,0-79.055-35.394-79.055-79.055v0c0-43.661,35.394-79.054,79.055-79.054h880.833
	c43.661,0,79.055,35.394,79.055,79.054v0C1506.588,214.304,1471.194,249.698,1427.533,249.698z"/>
<g>
	<path style="fill:#FFFFFF;" d="M592.04,132.81h10.067v69.539h33.323v8.447h-43.39V132.81z"/>
	<path style="fill:#FFFFFF;" d="M657.643,139.058c0.115,3.471-2.43,6.248-6.479,6.248c-3.588,0-6.133-2.777-6.133-6.248
		c0-3.587,2.661-6.364,6.364-6.364C655.213,132.695,657.643,135.472,657.643,139.058z M646.304,210.796v-56.001h10.182v56.001
		H646.304z"/>
	<path style="fill:#FFFFFF;" d="M673.378,169.951c0-5.785-0.116-10.529-0.463-15.157h9.025l0.579,9.256h0.231
		c2.777-5.322,9.256-10.529,18.513-10.529c7.753,0,19.786,4.628,19.786,23.835v33.439h-10.182v-32.282
		c0-9.025-3.356-16.546-12.959-16.546c-6.711,0-11.918,4.744-13.654,10.414c-0.463,1.273-0.694,3.008-0.694,4.744v33.67h-10.182
		V169.951z"/>
	<path style="fill:#FFFFFF;" d="M747.659,180.481h0.232c1.388-1.967,3.356-4.397,4.975-6.364l16.43-19.323h12.265l-21.637,23.025
		l24.645,32.976h-12.381l-19.323-26.844l-5.207,5.785v21.058h-10.066v-82.151h10.066V180.481z"/>
	<path style="fill:#FFFFFF;" d="M820.436,154.794l7.405,28.464c1.619,6.248,3.124,12.033,4.165,17.819h0.347
		c1.272-5.67,3.124-11.686,4.975-17.703l9.141-28.579h8.562l8.678,28.001c2.083,6.711,3.703,12.612,4.976,18.281h0.347
		c0.926-5.67,2.43-11.57,4.281-18.166l7.983-28.116h10.067l-18.05,56.001h-9.256l-8.563-26.728
		c-1.967-6.249-3.587-11.802-4.975-18.397h-0.232c-1.388,6.711-3.124,12.496-5.091,18.513l-9.025,26.612h-9.256l-16.893-56.001
		H820.436z"/>
	<path style="fill:#FFFFFF;" d="M906.056,184.646c0.232,13.769,9.025,19.438,19.207,19.438c7.289,0,11.687-1.273,15.504-2.892
		l1.736,7.289c-3.588,1.62-9.719,3.471-18.629,3.471c-17.24,0-27.538-11.339-27.538-28.232s9.951-30.199,26.266-30.199
		c18.281,0,23.141,16.083,23.141,26.381c0,2.082-0.232,3.702-0.348,4.744H906.056z M935.909,177.357
		c0.116-6.48-2.661-16.546-14.117-16.546c-10.297,0-14.81,9.488-15.62,16.546H935.909z"/>
	<path style="fill:#FFFFFF;" d="M957.891,210.796c0.231-3.818,0.463-9.488,0.463-14.463v-67.688h10.066v35.174h0.231
		c3.587-6.248,10.067-10.298,19.092-10.298c13.885,0,23.72,11.571,23.604,28.579c0,20.017-12.612,29.968-25.107,29.968
		c-8.1,0-14.579-3.124-18.745-10.529h-0.347l-0.463,9.256H957.891z M968.42,188.349c0,1.273,0.231,2.546,0.463,3.702
		c1.967,7.058,7.868,11.918,15.273,11.918c10.645,0,17.009-8.678,17.009-21.522c0-11.223-5.785-20.827-16.662-20.827
		c-6.942,0-13.422,4.744-15.504,12.496c-0.232,1.158-0.579,2.546-0.579,4.165V188.349z"/>
	<path style="fill:#FFFFFF;" d="M1060.055,139.058c0.116,3.471-2.43,6.248-6.479,6.248c-3.587,0-6.133-2.777-6.133-6.248
		c0-3.587,2.662-6.364,6.364-6.364C1057.625,132.695,1060.055,135.472,1060.055,139.058z M1048.716,210.796v-56.001h10.182v56.001
		H1048.716z"/>
	<path style="fill:#FFFFFF;" d="M1115.709,208.713c-2.662,1.389-8.563,3.24-16.084,3.24c-16.893,0-27.885-11.455-27.885-28.579
		c0-17.24,11.802-29.736,30.084-29.736c6.016,0,11.339,1.504,14.116,2.892l-2.314,7.868c-2.43-1.389-6.248-2.661-11.802-2.661
		c-12.844,0-19.786,9.488-19.786,21.174c0,12.959,8.331,20.943,19.439,20.943c5.786,0,9.604-1.504,12.496-2.777L1115.709,208.713z"
		/>
	<path style="fill:#FFFFFF;" d="M1177.61,182.332c0,20.711-14.347,29.736-27.884,29.736c-15.158,0-26.844-11.108-26.844-28.81
		c0-18.744,12.264-29.736,27.769-29.736C1166.734,153.522,1177.61,165.208,1177.61,182.332z M1133.179,182.91
		c0,12.265,7.058,21.522,17.008,21.522c9.72,0,17.009-9.141,17.009-21.753c0-9.488-4.744-21.522-16.778-21.522
		C1138.386,161.158,1133.179,172.266,1133.179,182.91z"/>
	<path style="fill:#FFFFFF;" d="M1190.453,169.951c0-5.785-0.116-10.529-0.463-15.157h9.025l0.579,9.256h0.231
		c2.777-5.322,9.256-10.529,18.513-10.529c7.753,0,19.786,4.628,19.786,23.835v33.439h-10.182v-32.282
		c0-9.025-3.356-16.546-12.959-16.546c-6.711,0-11.918,4.744-13.654,10.414c-0.463,1.273-0.694,3.008-0.694,4.744v33.67h-10.182
		V169.951z"/>
	<path style="fill:#FFFFFF;" d="M1277.807,200.382c3.008,1.967,8.331,4.05,13.422,4.05c7.405,0,10.876-3.703,10.876-8.331
		c0-4.86-2.892-7.521-10.413-10.298c-10.066-3.587-14.81-9.141-14.81-15.852c0-9.025,7.289-16.43,19.323-16.43
		c5.67,0,10.645,1.619,13.769,3.471l-2.545,7.405c-2.199-1.389-6.249-3.24-11.455-3.24c-6.016,0-9.372,3.472-9.372,7.637
		c0,4.628,3.356,6.71,10.645,9.487c9.719,3.703,14.694,8.563,14.694,16.893c0,9.835-7.637,16.777-20.943,16.777
		c-6.133,0-11.802-1.504-15.736-3.818L1277.807,200.382z"/>
	<path style="fill:#FFFFFF;" d="M1330.683,184.646c0.232,13.769,9.025,19.438,19.208,19.438c7.289,0,11.687-1.273,15.505-2.892
		l1.735,7.289c-3.587,1.62-9.719,3.471-18.629,3.471c-17.24,0-27.538-11.339-27.538-28.232s9.95-30.199,26.265-30.199
		c18.281,0,23.141,16.083,23.141,26.381c0,2.082-0.232,3.702-0.347,4.744H1330.683z M1360.536,177.357
		c0.116-6.48-2.661-16.546-14.116-16.546c-10.297,0-14.81,9.488-15.62,16.546H1360.536z"/>
	<path style="fill:#FFFFFF;" d="M1395.246,138.711v16.083h14.579v7.752h-14.579v30.199c0,6.942,1.967,10.876,7.637,10.876
		c2.661,0,4.628-0.347,5.901-0.694l0.463,7.637c-1.967,0.81-5.091,1.389-9.026,1.389c-4.743,0-8.562-1.504-10.992-4.281
		c-2.893-3.009-3.934-7.984-3.934-14.579v-30.546h-8.678v-7.752h8.678v-13.422L1395.246,138.711z"/>
</g>
<g>
	<path d="M537.65,668.073c-1.528,6.414-2.181,13.009-4.194,19.328c-4.725,14.832-12.385,27.9-23.386,38.924
		c-29.546,29.607-58.935,59.374-88.781,88.676c-36.52,35.854-92.291,37.075-130.538,3.34c-3.875-3.418-3.874-3.418-0.129-7.165
		c7.081-7.085,14.214-14.119,21.204-21.292c1.685-1.729,2.614-1.8,4.541-0.149c23.876,20.451,56.295,19.531,78.512-2.475
		c29.236-28.958,58.353-58.04,87.284-87.303c16.001-16.185,21.19-35.754,14.46-57.503c-6.576-21.251-21.481-34.476-43.327-38.854
		c-19.364-3.88-36.578,1.421-50.702,15.244c-18.863,18.462-37.438,37.221-55.975,56.011c-2.573,2.608-3.843,2.475-6.267-0.071
		c-7.091-7.449-14.426-14.67-21.801-21.842c-1.785-1.736-1.801-2.658-0.009-4.436c19.215-19.071,38.229-38.345,57.515-57.344
		c15.355-15.126,33.924-23.814,55.349-26.36c0.777-0.092,1.523-0.454,2.283-0.689c5.956,0,11.912,0,17.868,0
		c0.748,0.246,1.478,0.606,2.246,0.722c39.829,6.024,66.206,28.234,79.544,66.111c2.288,6.497,2.877,13.379,4.303,20.072
		C537.65,656.703,537.65,662.388,537.65,668.073z"/>
	<path d="M220.668,979.963c-60.615-0.164-104.476-49.323-98.212-105.679c2.367-21.294,10.699-39.953,25.742-55.179
		c30.53-30.903,61.048-61.831,92.198-92.104c35.174-34.184,93.484-33.962,129.423-0.382c2.221,2.075,2.342,3.174,0.102,5.326
		c-7.511,7.22-14.843,14.63-22.123,22.085c-1.766,1.808-2.773,1.981-4.845,0.186c-23.38-20.257-56.308-19.305-78.215,2.432
		c-29.397,29.167-58.739,58.393-87.819,87.876c-15.759,15.978-20.721,35.408-14.184,56.825c6.486,21.25,21.298,34.57,43.143,39.039
		c19.854,4.061,37.267-1.579,51.665-15.779c18.596-18.34,37.032-36.845,55.364-55.449c2.618-2.657,3.878-2.381,6.262,0.119
		c7.003,7.343,14.255,14.45,21.497,21.561c1.685,1.655,2.375,2.656,0.263,4.746c-19.529,19.321-38.727,38.981-58.427,58.125
		C264.293,971.404,242.002,979.576,220.668,979.963z"/>
</g>
<g>
	<path d="M726.739,885.973c1.852-8.471,2.777-17.126,5.52-25.424c5.503-16.645,13.866-31.639,26.215-44.089
		c31.439-31.696,63.04-63.232,94.726-94.681c9.581-9.509,20.892-16.635,33.42-21.71c2.916-1.181,4.806-2.896,6.004-5.897
		c5.37-13.457,13.325-25.308,23.528-35.533c31.533-31.603,62.506-63.809,94.98-94.419c46.001-43.361,120.688-39.293,162.992,7.628
		c40.924,45.391,41.192,112.591-0.839,157.103c-30.744,32.559-63.102,63.599-94.875,95.181c-9.691,9.633-21.141,16.815-33.8,21.974
		c-2.763,1.126-4.525,2.762-5.671,5.594c-5.432,13.416-13.295,25.327-23.493,35.563c-30.961,31.075-61.854,62.223-93.168,92.942
		c-18.476,18.125-41.147,28.008-66.844,30.97c-1.22,0.141-2.411,0.536-3.615,0.812c-6.223,0-12.446,0-18.669,0
		c-1.367-0.923-2.973-0.737-4.49-0.972c-46.086-7.147-77.774-32.342-94.973-75.728c-3.792-9.566-5.023-19.716-6.948-29.71
		C726.739,899.041,726.739,892.507,726.739,885.973z M1021.248,853.431c-18.535,3.11-35.957,2.56-53.134-2.214
		c-2.412-0.671-3.419,0.738-4.701,2.018c-11.555,11.537-23.092,23.091-34.647,34.628c-16.07,16.044-31.92,32.318-48.299,48.04
		c-13.609,13.064-30.271,17.635-48.668,13.801c-20.895-4.354-35.151-17.159-41.394-37.481c-6.409-20.864-1.619-39.83,13.793-55.429
		c29.406-29.762,59.074-59.266,88.71-88.801c10.717-10.68,23.751-16.3,38.925-16.391c15.168-0.092,27.921,5.716,39.196,15.817
		c18.08,16.197,40.383,15.946,57.239-0.713c29.426-29.083,58.659-58.362,87.766-87.765c12.827-12.957,15.857-31.216,8.363-45.936
		c-12.871-25.285-43.983-30.405-64.653-10.155c-25.553,25.033-50.632,50.55-75.992,75.781c-2.198,2.187-2.176,3.08,0.691,4.462
		c10.586,5.102,19.972,11.964,28.417,20.123c4.82,4.657,9.337,9.6,13.113,15.134c2.498,3.661,1.669,7.957-1.56,10.403
		c-3.138,2.377-7.023,2.043-10.091-1.036c-1.419-1.425-2.601-3.087-3.884-4.647c-9.313-11.332-20.41-20.517-33.667-26.795
		c-40.658-19.253-84.845-11.692-116.868,20.072c-29.152,28.917-58.127,58.014-87.121,87.09
		c-21.964,22.025-32.56,48.532-30.293,79.688c2.445,33.606,18.177,59.935,46.472,77.778c39.969,25.205,88.764,20.651,122.951-12.01
		c32.604-31.149,63.966-63.601,95.726-95.627C1013.079,867.778,1017.423,861.314,1021.248,853.431z M910.137,692.69
		c18.536-3.168,35.951-2.478,53.136,2.178c2.39,0.648,3.425-0.712,4.72-2.006c7.593-7.585,15.182-15.174,22.772-22.762
		c19.25-19.245,38.472-38.518,57.76-57.725c15.508-15.444,34.022-20.863,55.15-15.074c40.107,10.988,53.295,60.701,24.261,91.246
		c-11.57,12.172-23.691,23.821-35.567,35.701c-17.705,17.711-35.435,35.396-53.117,53.13c-11.575,11.61-25.466,17.567-41.903,17.052
		c-13.931-0.436-25.83-5.805-36.152-15.153c-18.43-16.69-40.828-16.864-57.953,0.027c-29.456,29.054-58.666,58.359-87.777,87.759
		c-12.867,12.995-15.95,31.269-8.467,45.922c12.933,25.325,44,30.504,64.646,10.284c25.558-25.03,50.621-50.565,76.009-75.77
		c2.67-2.651,1.614-3.403-1.007-4.681c-7.146-3.486-13.764-7.836-19.958-12.831c-7.665-6.181-14.494-13.175-20.385-21.061
		c-3.262-4.367-2.943-8.762,0.666-11.565c3.484-2.706,7.583-2.018,11.07,1.92c1.132,1.279,2.121,2.684,3.212,4.001
		c9.256,11.165,20.243,20.238,33.344,26.474c40.662,19.353,85.057,11.669,117.229-20.309c28.903-28.729,57.66-57.605,86.465-86.432
		c22.238-22.255,33.032-49.018,30.58-80.51c-2.611-33.53-18.298-59.914-46.787-77.572c-40.642-25.192-89.014-20.167-123.614,13.128
		c-31.935,30.731-62.809,62.567-94.033,94.032C918.756,677.817,914.21,684.493,910.137,692.69z"/>
</g>
<g>
	<path d="M1893.372,733.102c-1.656,8.172-2.455,16.487-4.743,24.563c-5.824,20.559-15.951,38.664-30.854,53.912
		c-17.664,18.073-35.644,35.839-53.558,53.666c-6.424,6.393-15.421,6.535-21.313,0.586c-5.951-6.009-5.737-14.813,0.712-21.294
		c16.841-16.926,33.758-33.777,50.632-50.67c20.625-20.646,30.417-45.571,29.817-74.738c-0.929-45.089-36.325-86.493-80.859-94.078
		c-34.78-5.924-64.885,3.418-89.969,28.375c-16.728,16.644-33.367,33.377-50.074,50.043c-5.684,5.67-12.579,6.836-18.626,3.281
		c-8.576-5.042-9.786-16.18-2.402-23.602c17.43-17.522,34.904-35,52.435-52.421c11.306-11.235,24.32-20.006,38.978-26.295
		c11.872-5.094,24.228-8.357,37.093-9.662c1.229-0.125,2.539,0.065,3.621-0.774c6.704,0,13.408,0,20.112,0
		c1.075,0.243,2.137,0.606,3.225,0.711c51.8,5.002,96.539,42.408,110.759,92.487c2.407,8.477,3.469,17.175,5.012,25.798
		C1893.372,719.693,1893.372,726.397,1893.372,733.102z"/>
	<path d="M1464.228,894.141c0.671-34.529,12.128-64.335,35.963-88.924c17.491-18.045,35.443-35.644,53.245-53.385
		c6.403-6.382,15.416-6.58,21.32-0.667c5.965,5.974,5.821,14.81-0.625,21.304c-16.723,16.846-33.504,33.636-50.342,50.367
		c-20.826,20.694-30.764,45.677-30.162,75.008c0.925,45.108,36.33,86.557,80.802,94.141c34.78,5.931,64.898-3.395,90.002-28.316
		c16.648-16.527,33.205-33.145,49.753-49.771c4.213-4.233,8.951-6.651,15.038-5.123c10.841,2.722,14.853,15.327,7.525,23.855
		c-2.451,2.852-5.235,5.422-7.923,8.065c-17.324,17.03-33.644,35.123-51.886,51.167c-50.532,44.444-128.823,40.94-175.655-7.483
		C1476.849,959.115,1464.738,928.798,1464.228,894.141z"/>
	<path d="M1598.444,901.047c-3.599-0.135-8.155-2.807-10.709-8.181c-2.618-5.506-1.919-10.862,1.908-15.695
		c0.69-0.871,1.523-1.631,2.313-2.421c51.029-51.035,102.074-102.054,153.064-153.128c3.876-3.883,8.121-6.326,13.748-5.548
		c5.593,0.773,9.537,3.827,11.604,9.042c2.065,5.208,1.255,10.14-2.176,14.577c-0.849,1.098-1.892,2.05-2.878,3.036
		c-50.833,50.836-101.681,101.658-152.484,152.523C1609.443,898.645,1605.788,901.162,1598.444,901.047z"/>
</g>
<g>
	<path d="M232.405,1735.906c-67.244-0.053-120.282-56.471-116.14-123.536c1.744-28.237,12.181-52.76,31.868-73.094
		c14.076-14.539,28.498-28.746,42.899-42.967c7.919-7.82,19.336-8.322,27.52-1.557c7.79,6.44,9.584,18.096,3.948,26.563
		c-1.3,1.952-3.003,3.664-4.671,5.338c-12.832,12.883-25.79,25.642-38.539,38.607c-21.41,21.773-28.186,47.73-19.219,76.719
		c8.86,28.644,28.99,46.352,58.462,52.009c25.376,4.87,47.987-1.967,66.678-20.078c14.079-13.643,27.709-27.747,41.665-41.517
		c8.944-8.824,22.592-8.313,30.2,0.881c6.437,7.778,6.588,19.129-0.575,26.451c-15.919,16.272-31.697,32.748-48.525,48.048
		C286.759,1727.066,260.961,1735.56,232.405,1735.906z"/>
	<path d="M398.981,1340.193c64.968-0.247,118.281,56.209,114.266,123.292c-1.721,28.765-12.496,53.611-32.663,74.218
		c-13.713,14.012-27.643,27.813-41.571,41.612c-8.884,8.802-21.459,8.967-29.612,0.593c-7.961-8.176-7.53-20.558,1.112-29.249
		c13.267-13.343,26.696-26.526,39.862-39.967c21.225-21.669,27.972-47.523,19.142-76.333c-8.842-28.849-29.07-46.702-58.761-52.291
		c-25.764-4.85-48.513,2.383-67.31,20.944c-13.501,13.331-26.883,26.784-40.244,40.256c-5.71,5.758-12.473,8.084-20.304,6.138
		c-14.202-3.529-20.599-21.403-10.573-32.019c17.244-18.258,34.273-36.891,53.751-52.82
		C346.488,1347.874,370.577,1340.538,398.981,1340.193z"/>
	<path d="M368.974,1463.176c7.74,0.529,14.101,4.146,17.642,11.693c3.625,7.726,2.613,15.234-2.94,21.672
		c-4.531,5.254-9.61,10.038-14.48,14.997c-30.663,31.222-61.354,62.417-91.986,93.669c-5.545,5.657-11.866,8.892-19.944,7.193
		c-15.581-3.277-21.691-21.296-11.134-33.217c5.021-5.67,10.551-10.889,15.864-16.299c30.109-30.659,60.249-61.287,90.305-91.998
		C356.821,1466.264,361.932,1463.312,368.974,1463.176z"/>
</g>
<g>
	<path d="M1185.119,1430.57c-1.643,7.063-2.282,14.312-4.277,21.326c-5.159,18.134-13.806,34.374-26.864,47.939
		c-15.772,16.384-31.895,32.439-48.153,48.344c-12.677,12.402-33.101,6.72-37.426-10.246c-2.152-8.442,0.233-15.811,6.412-21.978
		c14.86-14.833,29.832-29.557,44.508-44.571c32.336-33.08,26.457-86.818-12.113-112.027c-27.968-18.28-65.6-15.093-89.533,8.247
		c-23.694,23.106-47.152,46.469-70.202,70.216c-26.455,27.254-26.397,71.416-0.429,99.155c3.537,3.778,6.736,7.673,7.851,12.871
		c2.13,9.936-2.248,19.707-10.97,24.558c-8.724,4.852-19.37,3.546-26.601-3.696c-17.047-17.074-28.233-37.453-32.306-61.253
		c-7.031-41.09,4.186-76.694,33.639-106.327c22.509-22.647,44.979-45.34,67.825-67.645c19.103-18.651,42.293-29.047,68.846-31.929
		c0.984-0.107,1.938-0.491,2.906-0.746c6.126,0,12.251,0,18.377,0c1.123,0.259,2.233,0.609,3.37,0.765
		c48.978,6.742,81.908,33.441,99.137,79.681c3.273,8.784,4.24,18.075,6.005,27.191
		C1185.119,1417.152,1185.119,1423.861,1185.119,1430.57z"/>
	<path d="M1039.255,1566.051c-0.367,32.053-11.436,59.809-33.973,82.687c-22.511,22.852-44.942,45.806-68.109,67.983
		c-33.035,31.623-72.414,41.973-116.167,28.85c-44.269-13.278-71.972-43.86-81.406-89.174
		c-8.069-38.758,2.106-73.458,28.846-102.756c11.686-12.803,24.291-24.778,36.672-36.931c9.18-9.011,23.04-8.84,31.781,0.032
		c8.703,8.833,8.618,22.627-0.419,31.819c-11.04,11.229-22.442,22.107-33.331,33.478c-19.423,20.281-25.976,44.396-18.251,71.343
		c7.679,26.787,25.865,43.994,52.972,50.524c24.989,6.019,47.778,0.117,66.343-17.66c24.006-22.987,47.451-46.584,70.553-70.483
		c26.486-27.399,26.372-71.195,0.291-99.132c-5.097-5.459-8.789-11.315-8.24-19.005c0.675-9.462,5.505-16.285,14.332-19.655
		c9.01-3.44,17.325-1.496,24.115,5.352c15.659,15.793,25.997,34.598,31.039,56.271
		C1038.322,1548.28,1039.353,1557.096,1039.255,1566.051z"/>
</g>
<g>
	<path d="M1436.474,1642.578c1.815-9.257,3.233-18.586,6.743-27.458c4.945-12.497,11.771-23.777,21.23-33.307
		c24.96-25.145,50.039-50.172,75.112-75.205c5.772-5.763,13.825-5.974,19.137-0.703c5.42,5.378,5.147,13.44-0.838,19.439
		c-23.891,23.947-47.854,47.822-71.74,71.774c-27.203,27.279-31.118,67.13-9.626,97.283c26.546,37.243,79.578,42.162,112.6,10.007
		c24.755-24.105,48.952-48.783,73.362-73.241c2.644-2.649,5.46-4.87,9.315-5.188c5.599-0.461,10.057,1.627,12.807,6.575
		c2.732,4.916,2.275,9.833-1,14.385c-1.012,1.406-2.354,2.581-3.59,3.818c-23.09,23.098-46.312,46.067-69.243,69.322
		c-17.429,17.675-38.074,28.498-62.852,31.196c-0.694,0.076-1.356,0.453-2.032,0.689c-5.834,0-11.668,0-17.502,0
		c-0.964-0.265-1.912-0.635-2.894-0.781c-41.624-6.21-69.587-29.101-83.964-68.647c-2.647-7.28-3.378-14.965-5.027-22.456
		C1436.474,1654.246,1436.474,1648.412,1436.474,1642.578z"/>
	<path d="M1436.474,1436.057c3.028-7.214,8.41-9.913,16.22-9.736c16.18,0.366,32.375,0.099,48.563,0.115
		c8.424,0.009,14.052,5.402,13.974,13.334c-0.075,7.648-5.731,12.9-13.969,12.909c-16.189,0.017-32.383-0.256-48.563,0.118
		c-7.821,0.181-13.182-2.545-16.224-9.739C1436.474,1440.724,1436.474,1438.391,1436.474,1436.057z"/>
	<path d="M1745.381,1751.965c-7.391-3.112-9.934-8.696-9.743-16.61c0.391-16.141,0.101-32.299,0.124-48.45
		c0.012-8.107,5.399-13.697,13.114-13.697c7.709,0,13.112,5.598,13.124,13.694c0.025,16.151-0.27,32.309,0.126,48.45
		c0.194,7.921-2.364,13.494-9.744,16.613C1750.048,1751.965,1747.714,1751.965,1745.381,1751.965z"/>
	<path d="M1779.859,1303.947c44.682,0.039,81.016,24.229,96.815,61.706c15.535,36.852,7.643,80.066-20.411,108.682
		c-24.701,25.196-49.815,49.987-74.794,74.91c-5.796,5.782-13.848,6-19.144,0.753c-5.449-5.399-5.176-13.442,0.794-19.424
		c24.307-24.357,48.766-48.565,72.945-73.048c25.826-26.151,29.494-65.398,9.2-94.96c-26.495-38.594-80.584-43.526-114.314-10.225
		c-24.28,23.971-48.298,48.206-72.398,72.358c-2.533,2.538-5.242,4.635-8.88,5.168c-5.242,0.769-10.364-1.659-13.067-6.135
		c-2.759-4.568-2.468-10.538,0.782-14.795c0.703-0.922,1.561-1.731,2.385-2.555c24.225-24.233,48.414-48.503,72.696-72.679
		C1732.222,1314.034,1756.22,1304.415,1779.859,1303.947z"/>
	<path d="M1472.318,1352.68c0.232-5.396,2.656-9.482,7.618-11.723c5.094-2.301,10.257-1.812,14.231,2.059
		c12.937,12.6,25.733,25.351,38.31,38.31c4.964,5.115,4.373,13.295-0.543,18.165c-4.886,4.84-13.071,5.307-18.175,0.34
		c-12.837-12.494-25.425-25.245-38.026-37.979C1473.31,1359.402,1472.119,1356.258,1472.318,1352.68z"/>
	<path d="M1848.675,1702.954c-0.145,5.401-2.487,9.532-7.411,11.868c-5.058,2.4-10.289,2.037-14.257-1.814
		c-13.065-12.676-25.948-25.549-38.619-38.619c-4.794-4.946-4.202-13.014,0.494-17.83c4.829-4.953,13.045-5.609,18.155-0.658
		c12.969,12.566,25.651,25.431,38.351,38.272C1847.691,1696.502,1848.818,1699.545,1848.675,1702.954z"/>
	<path d="M1558.987,1343.059c0-8.591-0.032-17.182,0.009-25.772c0.037-7.763,5.506-13.338,13.019-13.367
		c7.551-0.029,13.187,5.514,13.208,13.18c0.048,17.473,0.05,34.946-0.001,52.418c-0.022,7.654-5.687,13.198-13.237,13.158
		c-7.496-0.04-12.954-5.633-12.989-13.407C1558.956,1360.532,1558.987,1351.795,1558.987,1343.059z"/>
	<path d="M1845.073,1629.452c-8.591,0-17.182,0.027-25.772-0.008c-7.995-0.032-13.592-5.563-13.537-13.298
		c0.053-7.464,5.672-12.922,13.449-12.937c17.327-0.032,34.654-0.037,51.981,0.002c7.751,0.017,13.313,5.536,13.325,13.066
		c0.012,7.546-5.538,13.115-13.238,13.162C1862.545,1629.492,1853.809,1629.451,1845.073,1629.452z"/>
</g>
</svg>
