<svg width="80" height="80" viewBox="0 0 80 80" fill="none" xmlns="http://www.w3.org/2000/svg">
<g opacity="0.1">
<path d="M69.0897 31.4911L68.3455 30.5721C67.2465 29.2148 66.5608 27.5701 66.37 25.8341L66.2409 24.6588C65.8513 21.1134 63.4286 18.1215 60.0417 17.0031L58.9189 16.6323C57.2605 16.0846 55.7945 15.0719 54.6954 13.7145L53.9513 12.7955C51.7068 10.0236 48.0511 8.81647 44.5973 9.70661L43.4522 10.0018C41.7611 10.4376 39.9802 10.3782 38.3218 9.83055L37.199 9.45981C33.8122 8.34136 30.0841 9.30225 27.6598 11.9184L26.8562 12.7857C25.6691 14.0667 24.1388 14.9796 22.4475 15.4155L21.3025 15.7106C17.8487 16.6008 15.2319 19.4246 14.6069 22.9361L14.3997 24.1002C14.0936 25.8197 13.2998 27.4149 12.1128 28.696L11.309 29.5633C8.88472 32.1795 8.21007 35.9697 9.5828 39.2617L10.0378 40.3531C10.7099 41.9651 10.9046 43.7363 10.5985 45.4558L10.3913 46.6199C9.76619 50.1315 11.2479 53.6848 14.1824 55.712L15.1553 56.3841C16.5922 57.3768 17.7135 58.7616 18.3857 60.3736L18.8407 61.465C20.2134 64.757 23.3809 66.9452 26.9456 67.0641L28.1274 67.1036C29.8729 67.1618 31.5649 67.7205 33.0018 68.7132L33.9747 69.3853C36.9092 71.4126 40.757 71.541 43.8201 69.7138L44.8356 69.108C46.3355 68.2133 48.0609 67.7686 49.8064 67.8268L50.9882 67.8662C54.553 67.9852 57.8593 66.013 59.4483 62.8198L59.9751 61.7612C60.7532 60.1976 61.9643 58.8906 63.4642 57.9958L64.4797 57.3902C67.5429 55.563 69.258 52.1163 68.8684 48.571L68.7393 47.3955C68.5485 45.6595 68.8608 43.9052 69.6389 42.3417L70.1656 41.2831C71.7547 38.0898 71.3342 34.263 69.0897 31.4911Z" fill="black"/>
<path d="M39.7825 65.2942C54.1838 65.2942 65.8584 53.6196 65.8584 39.2183C65.8584 24.8169 54.1838 13.1423 39.7825 13.1423C25.3811 13.1423 13.7065 24.8169 13.7065 39.2183C13.7065 53.6196 25.3811 65.2942 39.7825 65.2942Z" fill="white"/>
<path d="M33.7344 15.7518C20.7743 19.0921 12.9759 32.3062 16.3162 45.2663C19.6565 58.2264 32.8707 66.0249 45.8308 62.6846C58.7909 59.3442 66.5894 46.1301 63.249 33.17C59.9086 20.2098 46.6946 12.4114 33.7344 15.7518ZM44.13 56.0858C34.8143 58.4868 25.316 52.8813 22.915 43.5655C20.514 34.2499 26.1195 24.7516 35.4352 22.3506C44.7509 19.9496 54.2491 25.5551 56.6501 34.8708C59.0511 44.1865 53.4457 53.6847 44.13 56.0858Z" fill="black"/>
<path d="M45.7922 63.7457C45.7917 63.7458 45.7913 63.7459 45.7908 63.746C45.5896 63.7953 45.385 63.843 45.1825 63.8874C45.1126 63.9027 45.0434 63.8585 45.028 63.7886C45.013 63.7202 45.0549 63.6526 45.1222 63.6353C45.1237 63.6349 45.1252 63.6345 45.1268 63.6342C45.3273 63.5902 45.5299 63.5431 45.729 63.4943C45.7985 63.4772 45.8687 63.5197 45.8857 63.5893C45.9027 63.6582 45.8609 63.7279 45.7922 63.7457ZM46.3939 63.5903C46.3253 63.608 46.255 63.5671 46.2364 63.4986C46.2178 63.4294 46.2586 63.3583 46.3277 63.3396C46.5247 63.2863 46.7245 63.2294 46.9216 63.1708C46.991 63.1515 47.0624 63.1895 47.0828 63.2582C47.1032 63.3268 47.0641 63.399 46.9955 63.4193C46.7963 63.4785 46.5945 63.536 46.3955 63.5899C46.395 63.59 46.3944 63.5902 46.3939 63.5903ZM44.5787 64.012C44.5761 64.0128 44.5735 64.0133 44.5709 64.0139C44.3683 64.0532 44.1615 64.0907 43.9564 64.1253C43.8858 64.1373 43.8189 64.0897 43.807 64.0191C43.7951 63.9485 43.8426 63.8814 43.9133 63.8697C44.1163 63.8354 44.321 63.7982 44.5216 63.7593C44.5918 63.7457 44.6599 63.7917 44.6735 63.8619C44.6866 63.9295 44.6446 63.9951 44.5787 64.012ZM47.5842 63.2363C47.5184 63.2533 47.4499 63.2163 47.4287 63.1508C47.4066 63.0826 47.4439 63.0094 47.512 62.9874C47.7076 62.924 47.9047 62.8574 48.0977 62.7896C48.1656 62.766 48.2393 62.8015 48.263 62.8689C48.2867 62.9365 48.2512 63.0105 48.1837 63.0343C47.9887 63.1027 47.7896 63.17 47.5919 63.2341C47.5894 63.2349 47.5868 63.2357 47.5842 63.2363ZM43.3534 64.2187C43.3488 64.2199 43.3441 64.2209 43.3393 64.2216C43.1337 64.251 42.9253 64.2784 42.72 64.3026C42.6489 64.311 42.5844 64.2602 42.576 64.1892C42.5677 64.118 42.6181 64.0533 42.6896 64.0452C42.8928 64.0211 43.099 63.9941 43.3025 63.9649C43.3734 63.9547 43.439 64.0039 43.4492 64.0748C43.4587 64.1409 43.4166 64.2025 43.3534 64.2187ZM48.7565 62.8243C48.6933 62.8406 48.6267 62.8071 48.603 62.7448C48.5777 62.6778 48.6114 62.6029 48.6783 62.5776C48.8699 62.5048 49.0634 62.4287 49.2535 62.3511C49.3202 62.3239 49.3954 62.356 49.4225 62.4222C49.4495 62.4885 49.4177 62.5642 49.3514 62.5912C49.1594 62.6696 48.9639 62.7466 48.7703 62.82C48.7657 62.8217 48.7611 62.8232 48.7565 62.8243ZM42.1194 64.3648C42.1127 64.3666 42.1059 64.3678 42.0989 64.3684C41.8935 64.3876 41.6841 64.4045 41.4764 64.4188C41.405 64.4236 41.3431 64.3697 41.3382 64.2983C41.3333 64.2268 41.3872 64.1652 41.4586 64.16C41.6642 64.146 41.8715 64.1292 42.0748 64.1103C42.1461 64.1036 42.2093 64.156 42.216 64.2273C42.222 64.2915 42.18 64.3492 42.1194 64.3648ZM49.907 62.3549C49.8465 62.3706 49.7819 62.3403 49.756 62.2813C49.7273 62.2156 49.7573 62.1393 49.8229 62.1106C50.0112 62.0283 50.2007 61.9427 50.3862 61.856C50.4511 61.8256 50.5282 61.8537 50.5585 61.9186C50.5888 61.9834 50.5608 62.0605 50.4959 62.0909C50.3085 62.1784 50.1171 62.2649 49.9267 62.3481C49.9203 62.351 49.9136 62.3532 49.907 62.3549ZM40.8796 64.4497C40.871 64.4519 40.862 64.4532 40.8527 64.4536C40.646 64.4627 40.436 64.4691 40.2285 64.473C40.1569 64.4743 40.0978 64.4174 40.0964 64.3459C40.0951 64.2742 40.1518 64.2151 40.2236 64.2138C40.4289 64.2099 40.6369 64.2035 40.8415 64.1946C40.913 64.1915 40.9736 64.247 40.9767 64.3185C40.9793 64.3807 40.9377 64.4347 40.8796 64.4497ZM51.0329 61.8291C50.9749 61.8442 50.9124 61.8171 50.8846 61.7613C50.8527 61.6972 50.8789 61.6194 50.943 61.5875C51.1258 61.4965 51.3109 61.4015 51.4929 61.3052C51.5563 61.2717 51.6347 61.2959 51.6681 61.3593C51.7016 61.4225 51.6774 61.5009 51.6141 61.5344C51.4302 61.6317 51.2432 61.7276 51.0585 61.8196C51.0501 61.8237 51.0416 61.827 51.0329 61.8291ZM39.6371 64.4726C39.6265 64.4753 39.6154 64.4767 39.6038 64.4767C39.3975 64.4753 39.1874 64.4713 38.9793 64.4649C38.9078 64.4626 38.8516 64.4028 38.8538 64.3312C38.8561 64.2597 38.9159 64.2033 38.9874 64.2057C39.1934 64.2122 39.4013 64.216 39.6055 64.2174C39.6771 64.2179 39.7348 64.2762 39.7343 64.3479C39.7339 64.4079 39.6927 64.4583 39.6371 64.4726ZM52.1313 61.248C52.0758 61.2623 52.0154 61.2382 51.986 61.1859C51.951 61.1235 51.9731 61.0444 52.0355 61.0093C52.2147 60.9087 52.3948 60.8046 52.5707 60.7001C52.6325 60.6634 52.7119 60.6837 52.7484 60.7452C52.785 60.8067 52.7648 60.8863 52.7033 60.9229C52.5254 61.0286 52.3435 61.1338 52.1625 61.2354C52.1525 61.241 52.142 61.2452 52.1313 61.248ZM38.395 64.4337C38.3824 64.4369 38.3691 64.4383 38.3553 64.4375C38.1468 64.4258 37.9363 64.4112 37.7299 64.3944C37.6586 64.3886 37.6055 64.326 37.6113 64.2546C37.6171 64.1832 37.6796 64.1302 37.751 64.1359C37.9553 64.1526 38.1635 64.1669 38.3699 64.1786C38.4414 64.1827 38.4961 64.2438 38.4921 64.3153C38.4888 64.3732 38.4482 64.42 38.395 64.4337ZM53.1994 60.6128C53.1463 60.6265 53.0881 60.6052 53.0574 60.5562C53.0193 60.4956 53.0375 60.4156 53.0981 60.3774C53.272 60.2681 53.4467 60.1552 53.6172 60.0418C53.6769 60.002 53.7573 60.0185 53.797 60.078C53.8366 60.1377 53.8204 60.2182 53.7607 60.2577C53.5884 60.3723 53.4119 60.4864 53.2362 60.5969C53.2244 60.6042 53.2121 60.6095 53.1994 60.6128ZM37.1521 64.3324C37.1375 64.3363 37.1219 64.3375 37.1061 64.3357C36.9003 64.3139 36.6911 64.2888 36.4839 64.2616C36.413 64.2522 36.363 64.187 36.3724 64.1161C36.3817 64.045 36.4468 63.995 36.5179 64.0045C36.7228 64.0315 36.93 64.0562 37.1335 64.0779C37.2048 64.0855 37.2564 64.1493 37.2488 64.2206C37.2428 64.2759 37.203 64.3193 37.1521 64.3324ZM54.2346 59.9251C54.1838 59.9382 54.128 59.9194 54.0961 59.874C54.055 59.8153 54.0692 59.7344 54.1278 59.6934C54.2957 59.5757 54.4645 59.4542 54.6296 59.3323C54.6873 59.2898 54.7684 59.302 54.8109 59.3596C54.8534 59.4172 54.8413 59.4984 54.7837 59.5409C54.6168 59.6641 54.4462 59.7869 54.2767 59.9057C54.2635 59.9149 54.2493 59.9213 54.2346 59.9251ZM35.9165 64.1693C35.8999 64.1736 35.8821 64.1746 35.864 64.1718C35.6589 64.1394 35.4512 64.1041 35.2468 64.0666C35.1763 64.0538 35.1297 63.9862 35.1425 63.9157C35.1555 63.8454 35.2231 63.7986 35.2934 63.8116C35.4959 63.8487 35.7014 63.8837 35.9044 63.9156C35.9751 63.9268 36.0235 63.9932 36.0123 64.0639C36.004 64.1165 35.9651 64.1568 35.9165 64.1693ZM55.2325 59.188C55.1839 59.2006 55.1304 59.1841 55.0977 59.1421C55.0537 59.0856 55.0639 59.0042 55.1204 58.9602C55.2816 58.8348 55.4437 58.7056 55.6021 58.5759C55.6574 58.5305 55.7392 58.5387 55.7846 58.5941C55.8299 58.6495 55.8218 58.7312 55.7664 58.7765C55.6062 58.9076 55.4425 59.0382 55.2796 59.1648C55.2652 59.1761 55.2491 59.1838 55.2325 59.188ZM56.1913 58.4036C56.145 58.4156 56.0939 58.4013 56.0606 58.3627C56.0139 58.3084 56.02 58.2265 56.0743 58.1798C56.2298 58.0459 56.3854 57.9087 56.5366 57.7719C56.5897 57.7239 56.6717 57.728 56.7197 57.7811C56.7678 57.8342 56.7636 57.9162 56.7105 57.9642C56.5577 58.1024 56.4006 58.2411 56.2435 58.3763C56.2278 58.3897 56.21 58.3988 56.1913 58.4036ZM34.6912 63.9449C34.6725 63.9497 34.6525 63.9504 34.6325 63.9461C34.429 63.9036 34.2234 63.858 34.0214 63.8104C33.9517 63.794 33.9084 63.7242 33.9249 63.6546C33.9413 63.5849 34.0111 63.5417 34.0807 63.558C34.2806 63.605 34.4841 63.6502 34.6855 63.6923C34.7555 63.707 34.8005 63.7757 34.7859 63.8458C34.7754 63.8958 34.7375 63.9329 34.6912 63.9449ZM57.1105 57.572C57.0664 57.5834 57.0176 57.5711 56.984 57.5358C56.9347 57.484 56.9368 57.4019 56.9887 57.3526C57.1363 57.2123 57.2849 57.0675 57.4305 56.9221C57.4813 56.8715 57.5632 56.8715 57.6138 56.9223C57.6644 56.9729 57.6644 57.055 57.6137 57.1055C57.4666 57.2524 57.3164 57.3988 57.1673 57.5405C57.1508 57.5562 57.1312 57.5667 57.1105 57.572ZM33.479 63.6598C33.4584 63.665 33.4361 63.6654 33.414 63.6596C33.2139 63.6072 33.0109 63.5514 32.8108 63.4938C32.742 63.474 32.7023 63.4021 32.7221 63.3334C32.7419 63.2645 32.8137 63.2248 32.8825 63.2447C33.0806 63.3017 33.2816 63.3569 33.4797 63.4087C33.549 63.4268 33.5904 63.4977 33.5723 63.567C33.5599 63.6141 33.5232 63.6484 33.479 63.6598ZM57.988 56.6957C57.946 56.7065 57.8997 56.6961 57.866 56.6641C57.8142 56.6146 57.8123 56.5326 57.8616 56.4807C58.0026 56.3329 58.144 56.1809 58.2818 56.0288C58.33 55.9758 58.4119 55.9718 58.4649 56.0199C58.5179 56.068 58.5219 56.15 58.4738 56.203C58.3345 56.3566 58.1917 56.5102 58.0493 56.6597C58.032 56.6778 58.0106 56.6899 57.988 56.6957ZM32.283 63.315C32.2604 63.3209 32.2359 63.3207 32.2119 63.3131C32.0133 63.2506 31.8134 63.1848 31.6177 63.1178C31.55 63.0945 31.5139 63.0207 31.5371 62.9531C31.5603 62.8853 31.6341 62.8492 31.7018 62.8725C31.8954 62.9388 32.0933 63.0039 32.2898 63.0658C32.3581 63.0873 32.396 63.1601 32.3745 63.2285C32.3605 63.2728 32.3249 63.3043 32.283 63.315ZM58.8214 55.7768C58.7816 55.787 58.7377 55.7782 58.7042 55.7494C58.65 55.7026 58.644 55.6208 58.6908 55.5666C58.8242 55.412 58.958 55.2531 59.0884 55.0943C59.1338 55.039 59.2154 55.031 59.2709 55.0764C59.3261 55.1218 59.3342 55.2035 59.2887 55.2589C59.157 55.4192 59.0218 55.5798 58.887 55.736C58.8692 55.7567 58.8461 55.7704 58.8214 55.7768ZM31.106 62.9118C31.0813 62.9181 31.0545 62.9173 31.0287 62.9078C30.8341 62.8356 30.6379 62.7601 30.4452 62.6833C30.3788 62.6567 30.3463 62.5814 30.3729 62.5148C30.3994 62.4484 30.4748 62.4161 30.5413 62.4425C30.7319 62.5185 30.9262 62.5933 31.1188 62.6647C31.186 62.6895 31.2202 62.7641 31.1954 62.8312C31.18 62.8726 31.1458 62.9015 31.106 62.9118ZM59.6089 54.8175C59.5713 54.8273 59.5297 54.82 59.4967 54.7943C59.4403 54.7503 59.4302 54.6687 59.4743 54.6123C59.6009 54.4501 59.7267 54.2847 59.8483 54.1208C59.8909 54.0632 59.9721 54.0512 60.0296 54.0939C60.0871 54.1365 60.0991 54.2177 60.0565 54.2752C59.9336 54.4409 59.8066 54.608 59.6786 54.7718C59.6604 54.7952 59.6357 54.8107 59.6089 54.8175ZM29.9508 62.451C29.9241 62.4578 29.8949 62.4564 29.8676 62.4446C29.6774 62.3633 29.4852 62.2782 29.296 62.1918C29.2309 62.162 29.2023 62.0851 29.232 62.02C29.2618 61.9549 29.3388 61.9263 29.4038 61.956C29.591 62.0416 29.7813 62.1258 29.9695 62.2062C30.0353 62.2344 30.0659 62.3106 30.0377 62.3764C30.0213 62.4149 29.9884 62.4413 29.9508 62.451ZM60.3486 53.8203C60.313 53.8295 60.2739 53.8236 60.2415 53.8008C60.183 53.7595 60.169 53.6786 60.2102 53.6201C60.3282 53.4525 60.4458 53.2812 60.5597 53.1107C60.5995 53.0511 60.68 53.0351 60.7395 53.0749C60.799 53.1147 60.815 53.1952 60.7753 53.2547C60.6602 53.427 60.5414 53.6001 60.4222 53.7695C60.4037 53.7956 60.3773 53.8129 60.3486 53.8203ZM28.8201 61.934C28.7913 61.9414 28.7598 61.9391 28.731 61.925C28.545 61.8344 28.3572 61.74 28.1727 61.6444C28.1091 61.6115 28.0843 61.5333 28.1172 61.4697C28.1502 61.4061 28.2284 61.3813 28.292 61.4142C28.4746 61.5089 28.6605 61.6022 28.8446 61.6919C28.9089 61.7233 28.9357 61.8008 28.9044 61.8652C28.8871 61.9009 28.8556 61.9249 28.8201 61.934ZM61.0386 52.7876C61.0051 52.7962 60.9683 52.7915 60.9369 52.7716C60.8763 52.7334 60.8583 52.6533 60.8967 52.5927C61.0065 52.4193 61.1156 52.2422 61.2208 52.0666C61.2576 52.0052 61.3373 51.9852 61.3987 52.022C61.4601 52.0588 61.48 52.1384 61.4432 52.1998C61.3369 52.3773 61.2267 52.5563 61.1157 52.7314C61.0973 52.7604 61.0694 52.7797 61.0386 52.7876ZM27.7164 61.3622C27.6856 61.3702 27.6518 61.3668 27.6217 61.3503C27.4405 61.2507 27.2576 61.1471 27.0781 61.0427C27.0162 61.0068 26.9952 60.9274 27.0312 60.8655C27.0673 60.8036 27.1466 60.7826 27.2085 60.8187C27.3862 60.922 27.5672 61.0244 27.7465 61.123C27.8093 61.1576 27.8322 61.2364 27.7977 61.2991C27.7798 61.3317 27.7499 61.3536 27.7164 61.3622ZM61.6771 51.7218C61.6457 51.73 61.6113 51.7263 61.5809 51.7091C61.5186 51.6738 61.4966 51.5947 61.5319 51.5324C61.633 51.354 61.7333 51.1718 61.83 50.9907C61.8638 50.9277 61.9423 50.9038 62.0054 50.9376C62.0686 50.9713 62.0924 51.0498 62.0587 51.1129C61.961 51.2958 61.8596 51.4799 61.7575 51.6602C61.7395 51.6921 61.71 51.7134 61.6771 51.7218ZM26.6426 60.737C26.6097 60.7455 26.5736 60.7411 26.5423 60.7218C26.3659 60.6133 26.1884 60.501 26.0147 60.388C25.9547 60.3491 25.9376 60.2687 25.9767 60.2088C26.0157 60.1488 26.0959 60.1316 26.156 60.1707C26.3279 60.2824 26.5036 60.3936 26.6783 60.5011C26.7392 60.5386 26.7583 60.6185 26.7207 60.6795C26.7024 60.7091 26.674 60.729 26.6426 60.737ZM62.2628 50.6256C62.2335 50.6332 62.2013 50.6305 62.1722 50.6159C62.1082 50.5836 62.0825 50.5057 62.1147 50.4418C62.2065 50.2593 62.2978 50.0723 62.3858 49.886C62.4164 49.8212 62.4937 49.7936 62.5584 49.8242C62.6232 49.8548 62.6508 49.9321 62.6203 49.9968C62.5313 50.185 62.4391 50.374 62.3463 50.5584C62.3287 50.5931 62.2978 50.6167 62.2628 50.6256ZM25.6012 60.0602C25.5663 60.0691 25.5277 60.0636 25.4955 60.0415C25.3249 59.9246 25.1532 59.8037 24.9851 59.6825C24.927 59.6405 24.9139 59.5595 24.9559 59.5015C24.9977 59.4433 25.0788 59.4303 25.1368 59.4722C25.3032 59.5923 25.4732 59.7119 25.642 59.8277C25.7011 59.8682 25.7162 59.9489 25.6757 60.0079C25.6573 60.0348 25.6305 60.0526 25.6012 60.0602ZM62.794 49.5016C62.7667 49.5087 62.737 49.5069 62.7093 49.4946C62.6438 49.4656 62.6142 49.3891 62.6432 49.3236C62.7262 49.1362 62.8081 48.9449 62.8867 48.7549C62.9141 48.6888 62.9899 48.6572 63.0561 48.6847C63.1223 48.712 63.1537 48.7879 63.1263 48.8541C63.0469 49.046 62.9642 49.2394 62.8803 49.4286C62.8636 49.4663 62.8311 49.4921 62.794 49.5016ZM24.5946 59.3331C24.5575 59.3427 24.5166 59.3357 24.4837 59.3107C24.3195 59.1858 24.1539 59.0567 23.9918 58.9271C23.9358 58.8824 23.9268 58.8008 23.9715 58.7448C24.0162 58.689 24.0978 58.6798 24.1537 58.7246C24.3142 58.8529 24.4781 58.9807 24.6407 59.1044C24.6977 59.1477 24.7088 59.229 24.6654 59.286C24.647 59.3102 24.6219 59.3261 24.5946 59.3331ZM63.2694 48.3525C63.2442 48.359 63.2168 48.3579 63.1906 48.3478C63.1238 48.3221 63.0905 48.2471 63.1162 48.1803C63.1901 47.9883 63.2625 47.7931 63.3314 47.6001C63.3555 47.5327 63.4296 47.4974 63.4971 47.5215C63.5646 47.5456 63.5997 47.6198 63.5757 47.6872C63.506 47.8823 63.4329 48.0795 63.3582 48.2734C63.3425 48.3141 63.3086 48.3423 63.2694 48.3525ZM23.6254 58.5576C23.5862 58.5678 23.5429 58.5595 23.5095 58.5314C23.3513 58.3983 23.1924 58.2613 23.0372 58.1241C22.9836 58.0767 22.9786 57.9948 23.026 57.9412C23.0733 57.8874 23.1553 57.8825 23.209 57.9299C23.3625 58.0656 23.5198 58.2012 23.6764 58.3329C23.7312 58.3791 23.7383 58.4608 23.6922 58.5156C23.6741 58.5371 23.6506 58.5512 23.6254 58.5576ZM63.6876 47.1808C63.6645 47.1868 63.6393 47.1865 63.6148 47.1785C63.5468 47.156 63.5099 47.0828 63.5323 47.0147C63.5965 46.8198 63.6592 46.6211 63.7186 46.4243C63.7393 46.3559 63.8117 46.317 63.8802 46.3378C63.9488 46.3585 63.9875 46.4308 63.9668 46.4994C63.9067 46.6983 63.8434 46.8989 63.7785 47.0958C63.7642 47.1394 63.729 47.1702 63.6876 47.1808ZM22.6958 57.7359C22.6544 57.7465 22.6087 57.7366 22.5751 57.7053C22.4234 57.5645 22.2716 57.4199 22.1237 57.2754C22.0724 57.2254 22.0714 57.1433 22.1214 57.0921C22.1715 57.0408 22.2535 57.0399 22.3047 57.0899C22.4511 57.2328 22.6015 57.3759 22.7516 57.5154C22.8041 57.5641 22.8071 57.6461 22.7583 57.6985C22.7408 57.7174 22.719 57.7299 22.6958 57.7359ZM64.0475 45.9894C64.0263 45.9948 64.0035 45.995 63.9809 45.9888C63.9119 45.9698 63.8713 45.8984 63.8903 45.8294C63.9449 45.6308 63.9977 45.4293 64.0472 45.2303C64.0645 45.1608 64.1348 45.1184 64.2043 45.1358C64.2738 45.1531 64.3161 45.2235 64.2988 45.2929C64.2488 45.4939 64.1955 45.6976 64.1403 45.8982C64.1275 45.9446 64.091 45.9781 64.0475 45.9894ZM21.8083 56.8696C21.7648 56.8808 21.7166 56.8691 21.683 56.8346C21.5386 56.6864 21.3941 56.5345 21.2535 56.3831C21.2048 56.3307 21.2079 56.2486 21.2604 56.2C21.3128 56.1512 21.3948 56.1542 21.4435 56.2067C21.5827 56.3566 21.7257 56.507 21.8687 56.6536C21.9187 56.7048 21.9176 56.7869 21.8664 56.8369C21.8496 56.8532 21.8295 56.8641 21.8083 56.8696ZM64.3481 44.7812C64.3288 44.7861 64.3083 44.7868 64.2877 44.7821C64.2178 44.7666 64.1737 44.6974 64.1893 44.6274C64.2339 44.4269 64.2766 44.2229 64.3163 44.021C64.3301 43.9507 64.3983 43.905 64.4685 43.9189C64.5387 43.9326 64.5845 44.0008 64.5707 44.071C64.5306 44.2751 64.4874 44.4812 64.4423 44.6837C64.4314 44.733 64.3937 44.7695 64.3481 44.7812ZM20.9651 55.961C20.9193 55.9727 20.8688 55.9591 20.8354 55.9212C20.6992 55.7668 20.5624 55.6081 20.4289 55.4493C20.3829 55.3945 20.39 55.3128 20.4448 55.2667C20.4995 55.2206 20.5814 55.2278 20.6274 55.2825C20.7595 55.4397 20.8948 55.5969 21.0297 55.7496C21.0771 55.8033 21.072 55.8852 21.0183 55.9326C21.0025 55.9466 20.9842 55.9561 20.9651 55.961ZM20.1682 55.0122C20.1202 55.0245 20.0673 55.0087 20.0344 54.9675C19.9055 54.806 19.7768 54.6407 19.652 54.4762C19.6087 54.4191 19.6199 54.3379 19.677 54.2946C19.734 54.2511 19.8153 54.2624 19.8586 54.3195C19.9821 54.4823 20.1094 54.6459 20.237 54.8057C20.2817 54.8616 20.2726 54.9433 20.2166 54.9879C20.2019 54.9997 20.1854 55.0077 20.1682 55.0122ZM64.5882 43.559C64.571 43.5634 64.5527 43.5643 64.534 43.5611C64.4635 43.5491 64.416 43.4821 64.4281 43.4116C64.4627 43.2087 64.4952 43.0028 64.5248 42.7993C64.535 42.7285 64.6009 42.6794 64.6717 42.6896C64.7426 42.7 64.7917 42.7657 64.7814 42.8366C64.7516 43.0421 64.7187 43.2502 64.6837 43.4552C64.6748 43.5071 64.6361 43.5466 64.5882 43.559ZM19.4197 54.0256C19.3695 54.0385 19.3143 54.0205 19.2821 53.9758C19.1612 53.8081 19.0406 53.636 18.9234 53.4645C18.883 53.4054 18.8982 53.3247 18.9573 53.2843C19.0164 53.2439 19.0971 53.259 19.1375 53.3182C19.2535 53.488 19.3729 53.6582 19.4925 53.8243C19.5344 53.8824 19.5212 53.9634 19.4631 54.0053C19.4496 54.0149 19.4349 54.0217 19.4197 54.0256ZM64.7673 42.3257C64.7521 42.3297 64.736 42.3309 64.7195 42.3289C64.6484 42.3204 64.5977 42.2558 64.6062 42.1847C64.6306 41.9811 64.6529 41.7738 64.6722 41.5682C64.679 41.4969 64.7422 41.4446 64.8135 41.4513C64.8848 41.4581 64.9371 41.5213 64.9304 41.5925C64.9108 41.8003 64.8883 42.01 64.8636 42.2156C64.8571 42.2702 64.8175 42.3128 64.7673 42.3257ZM18.7188 52.9995C18.6662 53.0131 18.6087 52.9924 18.5775 52.9444C18.4651 52.7705 18.3531 52.5927 18.2448 52.4158C18.2074 52.3547 18.2266 52.2749 18.2876 52.2375C18.3486 52.2003 18.4285 52.2193 18.4659 52.2804C18.5731 52.4555 18.684 52.6314 18.7953 52.8035C18.8342 52.8636 18.817 52.9438 18.7568 52.9827C18.7448 52.9906 18.7319 52.9961 18.7188 52.9995ZM64.8846 41.0845C64.8715 41.0879 64.8575 41.0893 64.8433 41.0883C64.7718 41.0833 64.718 41.0215 64.7229 40.95C64.7371 40.7443 64.7489 40.5359 64.758 40.3305C64.7611 40.259 64.8218 40.2037 64.8933 40.2068C64.9648 40.21 65.0202 40.2705 65.0171 40.342C65.0078 40.5495 64.9959 40.76 64.9815 40.968C64.9776 41.0251 64.9372 41.071 64.8846 41.0845ZM18.0698 51.9397C18.0149 51.9539 17.9551 51.9305 17.9253 51.879C17.8213 51.6992 17.7183 51.5161 17.6193 51.3345C17.585 51.2717 17.6081 51.1929 17.671 51.1587C17.7337 51.1245 17.8126 51.1475 17.8469 51.2104C17.9449 51.3899 18.0467 51.5713 18.1497 51.7492C18.1856 51.8111 18.1644 51.8905 18.1025 51.9263C18.0919 51.9324 18.081 51.9369 18.0698 51.9397ZM64.9396 39.8407C64.9285 39.8436 64.9167 39.845 64.9047 39.8448C64.8331 39.8434 64.7762 39.7843 64.7776 39.7127C64.7815 39.5075 64.783 39.2995 64.7818 39.0945C64.7814 39.0229 64.8392 38.9648 64.9107 38.9641C64.9823 38.9638 65.0407 39.0215 65.0411 39.093C65.0423 39.3001 65.0408 39.5103 65.0368 39.7176C65.0357 39.7772 64.9946 39.8266 64.9396 39.8407ZM17.4744 50.849C17.4171 50.8638 17.3551 50.8375 17.3269 50.7827C17.2326 50.599 17.1389 50.411 17.0484 50.2237C17.0172 50.1592 17.0442 50.0818 17.1087 50.0506C17.1731 50.0192 17.2506 50.0464 17.2818 50.1109C17.3714 50.2963 17.4642 50.4824 17.5575 50.6641C17.5902 50.7277 17.5651 50.8059 17.5014 50.8387C17.4926 50.8432 17.4836 50.8466 17.4744 50.849ZM64.9327 38.5981C64.9235 38.6005 64.9139 38.6018 64.9041 38.6021C64.8325 38.6043 64.7727 38.548 64.7706 38.4765C64.7643 38.272 64.7553 38.0642 64.744 37.8589C64.74 37.7875 64.7947 37.7265 64.8662 37.7223C64.9377 37.7184 64.9989 37.7731 65.0028 37.8445C65.0143 38.052 65.0234 38.2619 65.0297 38.4686C65.0316 38.5303 64.99 38.5833 64.9327 38.5981ZM16.9342 49.7299C16.8743 49.7454 16.8102 49.716 16.7838 49.6578C16.6985 49.4693 16.6143 49.2767 16.5334 49.0856C16.5055 49.0197 16.5363 48.9436 16.6023 48.9158C16.6686 48.888 16.7443 48.9187 16.7722 48.9846C16.8523 49.1738 16.9356 49.3643 17.02 49.5509C17.0496 49.6161 17.0207 49.6929 16.9554 49.7224C16.9484 49.7255 16.9413 49.7281 16.9342 49.7299ZM64.8638 37.3573C64.8567 37.3592 64.8493 37.3604 64.8417 37.361C64.7703 37.3668 64.7078 37.3136 64.702 37.2422C64.6855 37.0375 64.6663 36.8304 64.6448 36.6267C64.6372 36.5555 64.6886 36.4918 64.7602 36.4842C64.8313 36.4767 64.8951 36.5283 64.9027 36.5995C64.9243 36.8053 64.9439 37.0145 64.9605 37.2214C64.9656 37.2852 64.9237 37.3419 64.8638 37.3573ZM16.4501 48.5855C16.3876 48.6015 16.3215 48.569 16.2972 48.5075C16.2213 48.3147 16.1467 48.1184 16.0755 47.9236C16.0508 47.8563 16.0854 47.7819 16.1527 47.7573C16.2202 47.7332 16.2944 47.7673 16.3189 47.8345C16.3895 48.0272 16.4633 48.2217 16.5385 48.4123C16.5648 48.479 16.532 48.5542 16.4654 48.5805C16.4603 48.5825 16.4552 48.5842 16.4501 48.5855ZM64.7335 36.1216C64.7284 36.1229 64.7231 36.124 64.7177 36.1247C64.6467 36.1339 64.5817 36.0839 64.5724 36.0129C64.5459 35.8095 64.5164 35.6036 64.4848 35.4009C64.4737 35.3302 64.5225 35.2643 64.5929 35.2529C64.6637 35.2419 64.73 35.2903 64.741 35.3611C64.7729 35.5659 64.8027 35.7739 64.8295 35.9793C64.838 36.045 64.7959 36.1055 64.7335 36.1216ZM16.0231 47.4185C15.958 47.4354 15.89 47.3992 15.8681 47.3345C15.802 47.1388 15.7371 46.9389 15.6753 46.7405C15.654 46.6721 15.6922 46.5994 15.7605 46.5782C15.8301 46.5569 15.9016 46.5951 15.9229 46.6634C15.984 46.8598 16.0482 47.0576 16.1137 47.2514C16.1367 47.3193 16.1003 47.3928 16.0325 47.4158C16.0294 47.4169 16.0263 47.4178 16.0231 47.4185ZM64.5422 34.8937C64.5391 34.8945 64.536 34.8952 64.5328 34.8958C64.4623 34.9085 64.3949 34.8617 64.3821 34.7913C64.3456 34.5896 64.3061 34.3855 64.2645 34.1844C64.2501 34.1144 64.2948 34.0452 64.3653 34.0313C64.4354 34.0168 64.504 34.0619 64.5185 34.132C64.5604 34.3351 64.6003 34.5414 64.6372 34.7451C64.6494 34.8124 64.6074 34.8769 64.5422 34.8937ZM15.654 46.2319C15.5862 46.2494 15.5164 46.2097 15.4971 46.1419C15.4403 45.9425 15.3852 45.7397 15.3334 45.5391C15.3155 45.4698 15.3572 45.3991 15.4265 45.3812L15.4266 45.3811C15.4959 45.3633 15.5665 45.4049 15.5844 45.4742C15.6358 45.6728 15.6903 45.8735 15.7465 46.0709C15.766 46.1397 15.7262 46.2114 15.6573 46.2311C15.6562 46.2314 15.6551 46.2317 15.654 46.2319ZM64.2909 33.6768C64.2898 33.6771 64.2888 33.6773 64.2878 33.6776C64.218 33.6938 64.1483 33.6503 64.1322 33.5806C64.0858 33.3807 64.0363 33.1787 63.9851 32.9802L63.9759 32.9443C63.9579 32.875 63.9995 32.8042 64.0687 32.7862C64.0688 32.7862 64.0689 32.7862 64.069 32.7861C64.1382 32.7683 64.2089 32.8099 64.2268 32.8791L64.2363 32.9154C64.2879 33.116 64.3379 33.3201 64.3847 33.522C64.4007 33.5907 64.3588 33.6593 64.2909 33.6768ZM15.3431 45.0287C15.3421 45.029 15.3411 45.0293 15.3401 45.0295C15.2704 45.0458 15.2006 45.0024 15.1844 44.9327C15.1373 44.7303 15.0922 44.5251 15.0502 44.3227C15.0357 44.2526 15.0813 44.1843 15.1509 44.1695C15.221 44.155 15.2896 44.2 15.3041 44.2702C15.3456 44.4705 15.3903 44.6735 15.4369 44.8739C15.4529 44.9425 15.4111 45.0112 15.3431 45.0287ZM63.9704 32.4377C63.9026 32.4551 63.8327 32.4154 63.8134 32.3477C63.7573 32.1508 63.6978 31.9515 63.6365 31.7553C63.6152 31.6869 63.6534 31.6143 63.7217 31.5929C63.7905 31.5708 63.8627 31.6097 63.8841 31.6781C63.9459 31.8763 64.006 32.0777 64.0627 32.2765C64.0824 32.3454 64.0425 32.4172 63.9736 32.4368C63.9726 32.4371 63.9715 32.4374 63.9704 32.4377ZM15.091 43.812C15.088 43.8128 15.0849 43.8135 15.0818 43.814C15.0113 43.8268 14.9438 43.7801 14.931 43.7097C14.8939 43.5053 14.8588 43.2982 14.8269 43.0939C14.8158 43.0232 14.8644 42.9572 14.9349 42.9458C15.0057 42.9347 15.072 42.983 15.083 43.0538C15.1147 43.256 15.1493 43.461 15.1861 43.6632C15.1984 43.7305 15.1562 43.7951 15.091 43.812ZM63.6003 31.2514C63.5352 31.2681 63.4672 31.2321 63.4453 31.1674C63.3792 30.9726 63.3101 30.7765 63.2396 30.5844C63.215 30.5173 63.2495 30.4428 63.3167 30.4181C63.384 30.3934 63.4584 30.428 63.483 30.4952C63.5542 30.6891 63.6241 30.8873 63.6908 31.0841C63.7138 31.1519 63.6775 31.2255 63.6097 31.2485C63.6066 31.2496 63.6035 31.2506 63.6003 31.2514ZM14.8989 42.5843C14.8939 42.5856 14.8887 42.5866 14.8833 42.5873C14.8123 42.5966 14.7472 42.5467 14.7378 42.4756C14.7107 42.269 14.6859 42.0604 14.6642 41.8555C14.6566 41.7842 14.7084 41.7202 14.7794 41.7129C14.8507 41.7053 14.9145 41.7569 14.9221 41.8281C14.9435 42.031 14.9681 42.2375 14.9949 42.4419C15.0036 42.5076 14.9615 42.5681 14.8989 42.5843ZM63.1725 30.0847C63.11 30.1008 63.0439 30.0683 63.0196 30.0068C62.9446 29.8165 62.8658 29.6241 62.7854 29.4347C62.7576 29.3688 62.7883 29.2927 62.8543 29.2648C62.9202 29.2368 62.9963 29.2676 63.0242 29.3336C63.1053 29.5248 63.1849 29.7193 63.2608 29.9116C63.2871 29.9782 63.2544 30.0535 63.1878 30.0798C63.1828 30.0818 63.1776 30.0834 63.1725 30.0847ZM14.7677 41.3486C14.7605 41.3504 14.7533 41.3517 14.7457 41.3524C14.6743 41.3582 14.6118 41.305 14.6059 41.2336C14.5892 41.0271 14.5748 40.8175 14.5631 40.6104C14.5591 40.5391 14.6138 40.4779 14.6853 40.4737C14.7567 40.4697 14.8179 40.5245 14.822 40.5959C14.8335 40.8008 14.8477 41.0083 14.8643 41.2126C14.8696 41.2764 14.8276 41.3331 14.7677 41.3486ZM62.6876 28.9407C62.6277 28.9561 62.5637 28.9268 62.5373 28.8686C62.4525 28.6816 62.3642 28.4933 62.2751 28.3089C62.2439 28.2444 62.2708 28.167 62.3353 28.1357C62.3997 28.1048 62.4773 28.1316 62.5085 28.196C62.5986 28.3823 62.6877 28.5725 62.7734 28.7616C62.803 28.8268 62.7742 28.9035 62.709 28.9332C62.7019 28.9363 62.6948 28.9388 62.6876 28.9407ZM14.6978 40.108C14.6887 40.1104 14.6792 40.1117 14.6694 40.1121C14.5978 40.1144 14.538 40.0582 14.5357 39.9866C14.5292 39.7794 14.5253 39.5693 14.5239 39.3621C14.5235 39.2905 14.5813 39.2323 14.6527 39.2316C14.7243 39.2312 14.7827 39.2888 14.7832 39.3604C14.7845 39.5654 14.7884 39.7734 14.7949 39.9784C14.7968 40.0401 14.7553 40.0932 14.6978 40.108ZM62.1466 27.8221C62.0892 27.8369 62.0272 27.8107 61.999 27.7558C61.9052 27.5734 61.8077 27.3897 61.7093 27.2098C61.675 27.1469 61.698 27.0682 61.7608 27.0338C61.8237 26.9995 61.9024 27.0226 61.9367 27.0854C62.0361 27.2672 62.1346 27.4528 62.2295 27.6371C62.2623 27.7007 62.2373 27.7789 62.1736 27.8117C62.1648 27.8163 62.1558 27.8197 62.1466 27.8221ZM14.6898 38.8654C14.6786 38.8682 14.6669 38.8697 14.6549 38.8694C14.5834 38.8681 14.5264 38.809 14.5277 38.7374C14.5315 38.5304 14.538 38.3204 14.547 38.1131C14.5501 38.0416 14.6106 37.986 14.6821 37.9892C14.7537 37.9923 14.8092 38.0528 14.8061 38.1244C14.7971 38.3295 14.7907 38.5374 14.787 38.7423C14.7858 38.8018 14.7447 38.8512 14.6898 38.8654ZM61.5504 26.7317C61.4956 26.7459 61.4358 26.7226 61.406 26.6711C61.3031 26.4935 61.1965 26.3149 61.0894 26.1403C61.0519 26.0792 61.0711 25.9994 61.1321 25.9619C61.193 25.9245 61.273 25.9436 61.3104 26.0046C61.4187 26.1812 61.5263 26.3616 61.6304 26.5412C61.6662 26.6031 61.6451 26.6824 61.5831 26.7183C61.5727 26.7244 61.5616 26.7289 61.5504 26.7317ZM14.7438 37.6216C14.7307 37.625 14.7168 37.6263 14.7025 37.6253C14.6311 37.6205 14.5772 37.5586 14.582 37.4872C14.5963 37.2792 14.6134 37.069 14.6328 36.8624C14.6395 36.7911 14.7027 36.7387 14.7739 36.7455C14.8453 36.7522 14.8976 36.8154 14.8909 36.8867C14.8718 37.0911 14.8549 37.2991 14.8408 37.5049C14.8368 37.562 14.7964 37.608 14.7438 37.6216ZM60.9008 25.6724C60.8483 25.686 60.7908 25.6654 60.7597 25.6174C60.6477 25.4447 60.5324 25.2716 60.417 25.1028C60.3766 25.0437 60.3917 24.9631 60.4508 24.9226C60.5099 24.8823 60.5906 24.8973 60.631 24.9565C60.7476 25.1269 60.8641 25.3019 60.9772 25.4763C61.0162 25.5364 60.9991 25.6166 60.939 25.6556C60.9269 25.6634 60.914 25.669 60.9008 25.6724ZM14.86 36.3802C14.8449 36.3841 14.8288 36.3853 14.8124 36.3834C14.7413 36.3749 14.6906 36.3105 14.699 36.2394C14.7235 36.0331 14.751 35.8241 14.7808 35.6182C14.791 35.5474 14.8568 35.4982 14.9276 35.5085C14.9985 35.5187 15.0476 35.5845 15.0374 35.6553C15.008 35.859 14.9808 36.0659 14.9564 36.2699C14.9499 36.3246 14.9103 36.3673 14.86 36.3802ZM60.1992 24.6468C60.149 24.6597 60.0938 24.6416 60.0617 24.597C59.942 24.4312 59.8187 24.2647 59.6952 24.1021C59.6518 24.0451 59.6629 23.9638 59.72 23.9205C59.7769 23.8771 59.8583 23.8882 59.9016 23.9453C60.0265 24.1096 60.1511 24.2778 60.2719 24.4454C60.3138 24.5034 60.3007 24.5845 60.2427 24.6263C60.2292 24.6361 60.2144 24.6429 60.1992 24.6468ZM15.0381 35.1469C15.021 35.1514 15.0027 35.1523 14.9841 35.1491C14.9135 35.1371 14.866 35.0702 14.878 34.9996C14.9129 34.7944 14.9508 34.5871 14.9906 34.3837C15.0044 34.3134 15.0725 34.2676 15.1428 34.2814C15.213 34.2951 15.2588 34.3633 15.2451 34.4335C15.2056 34.6349 15.1682 34.8399 15.1336 35.0431C15.1248 35.095 15.0861 35.1346 15.0381 35.1469ZM59.4501 23.6607C59.4022 23.6731 59.3493 23.6573 59.3164 23.6162C59.1884 23.4561 59.0569 23.2958 58.9255 23.1397C58.8795 23.0849 58.8865 23.0031 58.9413 22.9571C58.996 22.9108 59.0779 22.918 59.1239 22.9728C59.2566 23.1306 59.3895 23.2926 59.5189 23.4542C59.5635 23.5102 59.5545 23.5917 59.4986 23.6365C59.4839 23.6482 59.4673 23.6563 59.4501 23.6607ZM15.2773 33.9245C15.2582 33.9295 15.2376 33.9301 15.217 33.9255C15.1472 33.91 15.1031 33.8408 15.1185 33.7709C15.1636 33.5677 15.2117 33.3627 15.2616 33.1616C15.2789 33.0921 15.3491 33.0498 15.4187 33.067C15.4882 33.0842 15.5305 33.1545 15.5132 33.224C15.4639 33.423 15.4162 33.6259 15.3716 33.827C15.3607 33.8763 15.3231 33.9128 15.2773 33.9245ZM58.6525 22.7126C58.6069 22.7244 58.5563 22.7107 58.523 22.6729C58.3875 22.5197 58.2481 22.3661 58.1088 22.2161C58.06 22.1636 58.0631 22.0817 58.1155 22.0329C58.1681 21.9842 58.25 21.9872 58.2987 22.0396C58.4395 22.1911 58.5803 22.3464 58.7172 22.5012C58.7646 22.5548 58.7596 22.6367 58.7059 22.6841C58.6901 22.6982 58.6718 22.7076 58.6525 22.7126ZM15.5769 32.716C15.5557 32.7215 15.5329 32.7216 15.5103 32.7155C15.4413 32.6966 15.4007 32.6252 15.4197 32.5562C15.4748 32.3552 15.533 32.1529 15.5927 31.9549C15.6134 31.8864 15.6857 31.8475 15.7543 31.8682C15.8228 31.8889 15.8616 31.9612 15.841 32.0297C15.7819 32.2256 15.7243 32.4258 15.6697 32.6247C15.6569 32.6712 15.6205 32.7048 15.5769 32.716ZM57.8086 21.8045C57.7651 21.8157 57.717 21.804 57.6834 21.7696C57.5409 21.6236 57.3941 21.477 57.247 21.3335C57.1957 21.2835 57.1947 21.2014 57.2446 21.1502C57.2946 21.0989 57.3767 21.0979 57.428 21.1479C57.5767 21.2927 57.725 21.441 57.8689 21.5884C57.9189 21.6397 57.918 21.7217 57.8667 21.7718C57.85 21.7881 57.8298 21.799 57.8086 21.8045ZM15.936 31.5244C15.9128 31.5304 15.8877 31.53 15.8633 31.522C15.7952 31.4996 15.7582 31.4264 15.7805 31.3583C15.8452 31.1617 15.9133 30.9627 15.9831 30.7667C16.007 30.6993 16.0812 30.664 16.1487 30.6881C16.2162 30.712 16.2514 30.7862 16.2273 30.8537C16.1583 31.0476 16.0909 31.2446 16.0269 31.4393C16.0125 31.4829 15.9773 31.5137 15.936 31.5244ZM56.9205 20.9387C56.8792 20.9494 56.8334 20.9395 56.7998 20.9083C56.6497 20.7691 56.4958 20.6298 56.3422 20.4942C56.2885 20.4468 56.2834 20.3648 56.3308 20.3112C56.3781 20.2575 56.4601 20.2524 56.5138 20.2997C56.6689 20.4368 56.8245 20.5775 56.9761 20.7182C57.0286 20.7668 57.0317 20.8489 56.9829 20.9013C56.9655 20.9203 56.9437 20.9328 56.9205 20.9387ZM16.3533 30.3524C16.3281 30.3589 16.3007 30.3579 16.2746 30.3478C16.2077 30.3221 16.1743 30.2471 16.2 30.1803C16.2747 29.9858 16.3526 29.7904 16.4314 29.5995C16.4587 29.5334 16.5345 29.5019 16.6007 29.5292C16.6669 29.5565 16.6984 29.6324 16.671 29.6985C16.593 29.8874 16.516 30.0808 16.4421 30.2733C16.4265 30.314 16.3925 30.3423 16.3533 30.3524ZM55.9903 20.1176C55.9511 20.1277 55.9078 20.1194 55.8745 20.0914C55.7171 19.9592 55.5564 19.8276 55.3968 19.7002C55.3409 19.6555 55.3317 19.5739 55.3764 19.518C55.421 19.462 55.5026 19.4528 55.5586 19.4976C55.7199 19.6264 55.8822 19.7593 56.0413 19.8929C56.0961 19.9389 56.1032 20.0207 56.0572 20.0755C56.0391 20.097 56.0156 20.1111 55.9903 20.1176ZM16.8278 29.2028C16.8006 29.2099 16.7709 29.2081 16.7432 29.1958C16.6777 29.1669 16.6481 29.0904 16.677 29.0249C16.7612 28.8344 16.8485 28.6431 16.9367 28.4564C16.9673 28.3917 17.0444 28.3639 17.1093 28.3945C17.174 28.4251 17.2017 28.5023 17.1711 28.5671C17.084 28.7518 16.9975 28.9412 16.9142 29.1297C16.8975 29.1674 16.8649 29.1932 16.8278 29.2028ZM55.0204 19.3429C54.9833 19.3525 54.9424 19.3457 54.9096 19.3207C54.746 19.1965 54.5789 19.0729 54.4131 18.9533C54.355 18.9115 54.3418 18.8304 54.3838 18.7724C54.4256 18.7142 54.5066 18.7011 54.5647 18.743C54.7323 18.8638 54.901 18.9887 55.0663 19.1142C55.1234 19.1575 55.1345 19.2388 55.0913 19.2958C55.0729 19.32 55.0477 19.3359 55.0204 19.3429ZM17.3584 28.0784C17.3291 28.086 17.297 28.0834 17.2679 28.0687C17.2039 28.0366 17.178 27.9587 17.2102 27.8947C17.3034 27.709 17.4 27.5223 17.4974 27.3399C17.5311 27.2767 17.6096 27.2529 17.6728 27.2866C17.736 27.3203 17.7598 27.3988 17.7261 27.4619C17.6298 27.6425 17.5341 27.8273 17.4419 28.011C17.4244 28.0459 17.3933 28.0694 17.3584 28.0784ZM54.0132 18.6167C53.9782 18.6257 53.9398 18.6202 53.9076 18.5982C53.7382 18.4823 53.5652 18.3669 53.3934 18.2555C53.3333 18.2165 53.3163 18.1362 53.3553 18.0761C53.3942 18.0161 53.4745 17.999 53.5346 18.0379C53.7081 18.1506 53.8829 18.2671 54.0541 18.3842C54.1132 18.4246 54.1283 18.5053 54.0879 18.5644C54.0694 18.5914 54.0425 18.6091 54.0132 18.6167ZM17.9432 26.9817C17.9119 26.9898 17.8775 26.9862 17.8471 26.969C17.7847 26.9338 17.7628 26.8547 17.798 26.7924C17.8996 26.6126 18.0053 26.431 18.112 26.2525C18.1488 26.1911 18.2284 26.1711 18.2898 26.2078C18.3513 26.2446 18.3713 26.3242 18.3346 26.3856C18.2289 26.5623 18.1243 26.7421 18.0238 26.9199C18.0057 26.9519 17.9761 26.9733 17.9432 26.9817ZM52.9712 17.9406C52.9384 17.949 52.9022 17.9446 52.871 17.9255C52.6959 17.8179 52.5173 17.7112 52.3404 17.6084C52.2785 17.5724 52.2575 17.493 52.2935 17.4312C52.3294 17.3692 52.4087 17.3481 52.4707 17.3842C52.6494 17.488 52.8297 17.5958 53.0067 17.7045C53.0677 17.742 53.0868 17.8218 53.0493 17.8828C53.031 17.9127 53.0026 17.9325 52.9712 17.9406ZM18.5811 25.9155C18.5477 25.9241 18.511 25.9195 18.4795 25.8996C18.419 25.8613 18.4009 25.7813 18.4392 25.7207C18.5496 25.5461 18.664 25.3699 18.7792 25.1972C18.819 25.1376 18.8994 25.1216 18.959 25.1613C19.0186 25.201 19.0346 25.2815 18.9949 25.3411C18.8809 25.512 18.7677 25.6864 18.6584 25.8593C18.64 25.8883 18.612 25.9076 18.5811 25.9155ZM51.8968 17.3162C51.866 17.3241 51.8323 17.3208 51.8022 17.3043C51.6221 17.2055 51.4385 17.1076 51.2565 17.0135C51.1929 16.9806 51.168 16.9024 51.2009 16.8388C51.2337 16.7752 51.3119 16.7504 51.3756 16.7832C51.5595 16.8784 51.7449 16.9772 51.9269 17.077C51.9897 17.1114 52.0126 17.1902 51.9782 17.253C51.9602 17.2857 51.9302 17.3076 51.8968 17.3162ZM19.2704 24.8823C19.2349 24.8914 19.1957 24.8856 19.1635 24.8628C19.1049 24.8216 19.0908 24.7407 19.132 24.6822C19.2511 24.5128 19.374 24.3425 19.4973 24.1761C19.5398 24.1186 19.6211 24.1065 19.6785 24.1491C19.7361 24.1917 19.7482 24.2729 19.7056 24.3304C19.5836 24.4952 19.4619 24.6637 19.344 24.8314C19.3256 24.8575 19.2992 24.8748 19.2704 24.8823ZM50.7928 16.7452C50.764 16.7526 50.7325 16.7502 50.7037 16.7363C50.519 16.6464 50.3307 16.5576 50.1443 16.4726C50.0791 16.4429 50.0504 16.366 50.0802 16.3009C50.1098 16.2357 50.1868 16.207 50.2519 16.2368C50.4403 16.3227 50.6304 16.4123 50.8172 16.5031C50.8815 16.5345 50.9084 16.612 50.8771 16.6764C50.8597 16.712 50.8283 16.7361 50.7928 16.7452ZM20.0094 23.8845C19.9718 23.8942 19.9303 23.887 19.8973 23.8613C19.8408 23.8172 19.8307 23.7358 19.8747 23.6793C20.0021 23.5158 20.1332 23.3519 20.2643 23.192C20.3097 23.1365 20.3914 23.1285 20.4468 23.1739C20.5021 23.2193 20.5102 23.301 20.4648 23.3564C20.3351 23.5146 20.2054 23.6769 20.0792 23.8388C20.0609 23.8622 20.0362 23.8776 20.0094 23.8845ZM49.6616 16.2291C49.6349 16.236 49.6057 16.2345 49.5784 16.2228C49.3896 16.1422 49.1972 16.0628 49.0065 15.9869C48.9399 15.9605 48.9074 15.885 48.9339 15.8185C48.9604 15.752 49.0358 15.7195 49.1023 15.746C49.295 15.8227 49.4894 15.9029 49.6802 15.9843C49.746 16.0124 49.7767 16.0886 49.7485 16.1545C49.7321 16.193 49.6992 16.2194 49.6616 16.2291ZM20.7962 22.9246C20.7564 22.9349 20.7126 22.9261 20.6791 22.8974C20.6249 22.8506 20.6188 22.7688 20.6655 22.7145C20.8006 22.5578 20.9395 22.4005 21.0784 22.2471C21.1265 22.194 21.2084 22.19 21.2615 22.2381C21.3146 22.2861 21.3187 22.3681 21.2706 22.4212C21.1331 22.573 20.9956 22.7287 20.8619 22.8838C20.844 22.9045 20.821 22.9182 20.7962 22.9246ZM48.506 15.7692C48.4813 15.7755 48.4545 15.7747 48.4288 15.7652C48.2357 15.6939 48.0395 15.6241 47.8457 15.5578C47.778 15.5346 47.7418 15.4609 47.765 15.3932C47.7881 15.3254 47.8618 15.2893 47.9296 15.3125C48.1254 15.3794 48.3236 15.4499 48.5187 15.522C48.5859 15.5468 48.6202 15.6213 48.5954 15.6885C48.58 15.7299 48.5457 15.7589 48.506 15.7692ZM21.6291 22.0051C21.5872 22.0159 21.5409 22.0055 21.5072 21.9734C21.4554 21.9241 21.4533 21.842 21.5027 21.7901C21.6453 21.6402 21.7918 21.4901 21.938 21.3439C21.9886 21.2932 22.0707 21.2933 22.1213 21.3438C22.172 21.3945 22.172 21.4766 22.1213 21.5272C21.9767 21.6718 21.8317 21.8205 21.6905 21.9689C21.6732 21.9871 21.6517 21.9992 21.6291 22.0051ZM47.3286 15.3668C47.3059 15.3726 47.2814 15.3724 47.2574 15.3648C47.0616 15.3033 46.8621 15.2432 46.6646 15.1864C46.5958 15.1667 46.556 15.0948 46.5758 15.026C46.5956 14.9572 46.6674 14.9175 46.7362 14.9373C46.9358 14.9946 47.1373 15.0553 47.3352 15.1175C47.4035 15.1389 47.4415 15.2118 47.42 15.28C47.4061 15.3244 47.3705 15.356 47.3286 15.3668ZM22.5059 21.1281C22.4618 21.1395 22.4131 21.1273 22.3795 21.092C22.3301 21.0401 22.3321 20.9581 22.384 20.9087C22.5334 20.7664 22.687 20.6238 22.8405 20.4846C22.8936 20.4366 22.9756 20.4406 23.0237 20.4937C23.0717 20.5467 23.0677 20.6287 23.0147 20.6768C22.8627 20.8145 22.7106 20.9557 22.5628 21.0965C22.5462 21.1122 22.5266 21.1228 22.5059 21.1281ZM46.1324 15.023C46.1117 15.0283 46.0895 15.0286 46.0674 15.0228C45.8686 14.971 45.6663 14.9209 45.4662 14.874C45.3964 14.8577 45.3532 14.7879 45.3695 14.7182C45.3859 14.6485 45.4557 14.6053 45.5254 14.6216C45.7275 14.669 45.9319 14.7196 46.1328 14.772C46.2021 14.79 46.2436 14.8609 46.2255 14.9301C46.2133 14.9773 46.1765 15.0116 46.1324 15.023ZM23.4245 20.296C23.3782 20.3079 23.3271 20.2937 23.2938 20.2551C23.2471 20.2008 23.2532 20.119 23.3074 20.0722C23.4644 19.937 23.6248 19.8021 23.7842 19.6715C23.8396 19.6262 23.9213 19.6343 23.9666 19.6896C24.0121 19.745 24.0039 19.8267 23.9486 19.8721C23.7908 20.0013 23.6321 20.1348 23.4767 20.2686C23.461 20.2821 23.4432 20.2912 23.4245 20.296ZM44.92 14.7388C44.9015 14.7436 44.8815 14.7444 44.8614 14.7402C44.6603 14.6983 44.4557 14.6583 44.2533 14.6214C44.1828 14.6085 44.1361 14.541 44.149 14.4706C44.1618 14.4002 44.2293 14.3535 44.2998 14.3663C44.5043 14.4036 44.7111 14.444 44.9142 14.4863C44.9843 14.501 45.0294 14.5696 45.0147 14.6397C45.0043 14.6897 44.9664 14.7269 44.92 14.7388ZM24.3826 19.5107C24.3341 19.5232 24.2806 19.5069 24.2479 19.4648C24.2039 19.4084 24.214 19.3269 24.2705 19.2829C24.4333 19.1561 24.6001 19.0295 24.7663 18.9066C24.8238 18.864 24.905 18.8761 24.9476 18.9336C24.9902 18.9912 24.9781 19.0724 24.9205 19.115C24.7561 19.2367 24.591 19.362 24.4299 19.4875C24.4153 19.4987 24.3993 19.5064 24.3826 19.5107ZM43.6946 14.5153C43.678 14.5196 43.6603 14.5206 43.6422 14.5178C43.4389 14.4859 43.2325 14.4562 43.0286 14.4294C42.9576 14.4201 42.9076 14.355 42.9169 14.2841C42.9263 14.2131 42.9913 14.163 43.0624 14.1724C43.2684 14.1994 43.4769 14.2294 43.6823 14.2616C43.7531 14.2728 43.8014 14.3391 43.7903 14.4098C43.7821 14.4625 43.7432 14.5028 43.6946 14.5153ZM25.3799 18.773C25.3291 18.786 25.2733 18.7674 25.2414 18.7219C25.2002 18.6633 25.2144 18.5825 25.273 18.5413C25.4427 18.4222 25.6162 18.3036 25.7887 18.1888C25.8483 18.1492 25.9288 18.1653 25.9684 18.2249C26.0081 18.2846 25.9919 18.365 25.9323 18.4047C25.7616 18.5183 25.5899 18.6356 25.422 18.7535C25.4088 18.7627 25.3946 18.7692 25.3799 18.773ZM42.4589 14.3531C42.4443 14.3568 42.4288 14.3581 42.4129 14.3565C42.2086 14.3348 42.0008 14.3154 41.7954 14.2988C41.7241 14.293 41.6708 14.2305 41.6766 14.1591C41.6824 14.0878 41.7448 14.0347 41.8163 14.0404C42.0238 14.0571 42.2337 14.0767 42.4403 14.0986C42.5115 14.1061 42.5631 14.17 42.5555 14.2412C42.5496 14.2965 42.5098 14.34 42.4589 14.3531ZM26.4144 18.0846C26.3612 18.0983 26.3031 18.077 26.2724 18.0281C26.2342 17.9675 26.2523 17.8875 26.3129 17.8493C26.4882 17.7389 26.6674 17.6291 26.8456 17.523C26.9071 17.4863 26.9866 17.5065 27.0232 17.568C27.0599 17.6295 27.0397 17.7091 26.9782 17.7457C26.8019 17.8508 26.6246 17.9594 26.4511 18.0687C26.4395 18.0761 26.4271 18.0813 26.4144 18.0846ZM41.2161 14.2527C41.2035 14.256 41.1902 14.2573 41.1764 14.2566C40.9717 14.2452 40.7639 14.2363 40.5589 14.23C40.4873 14.2278 40.4311 14.168 40.4333 14.0964C40.4355 14.0249 40.4953 13.9688 40.5668 13.9708C40.7739 13.9772 40.9839 13.9862 41.1908 13.9977C41.2623 14.0017 41.317 14.0628 41.313 14.1343C41.3099 14.1921 41.2693 14.239 41.2161 14.2527ZM27.4819 17.4486C27.4264 17.4629 27.3661 17.4389 27.3366 17.3866C27.3015 17.3242 27.3236 17.2451 27.386 17.21C27.5663 17.1086 27.7507 17.0079 27.9342 16.9106C27.9974 16.8772 28.076 16.9012 28.1095 16.9644C28.143 17.0277 28.1189 17.1062 28.0556 17.1397C27.874 17.236 27.6915 17.3357 27.5131 17.436C27.5031 17.4417 27.4926 17.4458 27.4819 17.4486ZM39.974 14.2147C39.9634 14.2174 39.9523 14.2189 39.9409 14.2188C39.7361 14.2176 39.5281 14.219 39.3227 14.223C39.2511 14.2244 39.192 14.1675 39.1906 14.0959C39.1892 14.0243 39.2462 13.9652 39.3177 13.9637C39.5252 13.9597 39.7354 13.9583 39.9423 13.9595C40.0139 13.9599 40.0716 14.0183 40.0712 14.0899C40.0709 14.15 40.0296 14.2003 39.974 14.2147ZM28.5798 16.8666C28.5218 16.8816 28.4593 16.8546 28.4316 16.7989C28.3996 16.7348 28.4256 16.657 28.4897 16.625C28.6747 16.5328 28.8639 16.4414 29.0521 16.3533C29.117 16.3229 29.1941 16.3509 29.2244 16.4158C29.2548 16.4806 29.2268 16.5578 29.162 16.5881C28.9758 16.6753 28.7885 16.7658 28.6054 16.8571C28.597 16.8612 28.5885 16.8644 28.5798 16.8666ZM38.7316 14.2386C38.7231 14.2407 38.7141 14.2422 38.7049 14.2426C38.5 14.2516 38.2924 14.2633 38.0877 14.2775C38.0163 14.2824 37.9544 14.2285 37.9494 14.1571C37.9445 14.0856 37.9986 14.0236 38.0698 14.0188C38.2766 14.0045 38.4864 13.9926 38.6934 13.9835C38.7649 13.9804 38.8255 14.0358 38.8286 14.1073C38.8314 14.1696 38.7897 14.2236 38.7316 14.2386ZM29.7052 16.34C29.6448 16.3556 29.5802 16.3255 29.5543 16.2665C29.5255 16.2009 29.5554 16.1244 29.621 16.0957C29.8104 16.0128 30.0038 15.9308 30.1962 15.8522C30.2623 15.8251 30.3381 15.8569 30.3653 15.9231C30.3923 15.9894 30.3606 16.0651 30.2943 16.0922C30.104 16.17 29.9124 16.2511 29.725 16.3332C29.7186 16.336 29.7119 16.3383 29.7052 16.34ZM37.492 14.3242C37.4855 14.3259 37.4786 14.3271 37.4716 14.3278C37.2675 14.347 37.0607 14.369 36.8569 14.3933C36.7858 14.4017 36.7214 14.351 36.7129 14.2799C36.7045 14.2088 36.7547 14.1442 36.8264 14.1358C37.0322 14.1113 37.2411 14.0891 37.4474 14.0696C37.5187 14.0629 37.5819 14.1153 37.5886 14.1866C37.5946 14.2508 37.5526 14.3086 37.492 14.3242ZM30.8555 15.8697C30.7923 15.886 30.7258 15.8526 30.7021 15.7902C30.6767 15.7233 30.7103 15.6484 30.7771 15.623C30.9704 15.5495 31.1677 15.4772 31.3636 15.4082C31.431 15.3844 31.5052 15.4198 31.529 15.4874C31.5528 15.5549 31.5173 15.6289 31.4499 15.6527C31.2559 15.7211 31.0607 15.7926 30.8693 15.8653C30.8647 15.8671 30.8601 15.8685 30.8555 15.8697ZM36.2581 14.4711C36.2534 14.4723 36.2488 14.4733 36.2441 14.4739C36.0409 14.5033 35.8355 14.5355 35.6334 14.5697C35.5628 14.5817 35.4959 14.5342 35.484 14.4636C35.472 14.393 35.5197 14.3265 35.5901 14.3141C35.7943 14.2795 36.0019 14.2469 36.2071 14.2173C36.278 14.2071 36.3437 14.2563 36.3539 14.3271C36.3634 14.3932 36.3213 14.4549 36.2581 14.4711ZM32.0275 15.4568C31.9617 15.4737 31.8932 15.4367 31.872 15.3713C31.8498 15.3032 31.8871 15.2301 31.9552 15.208C32.1524 15.1439 32.353 15.0814 32.5515 15.0222C32.6209 15.0007 32.6923 15.0408 32.7128 15.1094C32.7332 15.178 32.6942 15.2502 32.6256 15.2706C32.4291 15.3292 32.2305 15.391 32.0353 15.4545C32.0327 15.4554 32.0301 15.4561 32.0275 15.4568ZM35.0329 14.6788C35.0304 14.6794 35.0278 14.6801 35.0253 14.6805C34.8244 14.7197 34.6208 14.762 34.42 14.8062C34.35 14.8216 34.2809 14.7774 34.2654 14.7075C34.25 14.6375 34.2932 14.5692 34.3642 14.553C34.5671 14.5083 34.7728 14.4655 34.9757 14.426C35.0459 14.4124 35.114 14.4582 35.1277 14.5285C35.1409 14.5961 35.0988 14.6618 35.0329 14.6788ZM33.2177 15.1019C33.1491 15.1196 33.0789 15.0789 33.0602 15.0104C33.0415 14.9413 33.0822 14.8701 33.1514 14.8513C33.352 14.7968 33.5541 14.7445 33.756 14.6948C33.8255 14.6777 33.8958 14.7202 33.9129 14.7897C33.93 14.8592 33.8867 14.9294 33.818 14.9466C33.6179 14.9958 33.4179 15.0475 33.2193 15.1015C33.2188 15.1017 33.2182 15.1018 33.2177 15.1019Z" fill="black"/>
<path d="M43.6112 55.2825C43.6104 55.2827 43.6097 55.2829 43.6089 55.2831C43.4068 55.3313 43.2015 55.3762 42.9986 55.4167C42.9284 55.4307 42.8601 55.3851 42.8461 55.3149C42.8321 55.2447 42.8775 55.1755 42.9479 55.1624C43.1476 55.1226 43.3497 55.0783 43.5487 55.0308C43.6183 55.0143 43.6883 55.0573 43.7049 55.1268C43.7214 55.1957 43.6795 55.2649 43.6112 55.2825ZM44.2115 55.1274C44.1433 55.145 44.0733 55.1048 44.0544 55.0367C44.0351 54.9677 44.0755 54.8962 44.1445 54.877C44.3419 54.822 44.5403 54.7628 44.734 54.7011C44.8018 54.6786 44.8751 54.717 44.8969 54.7852C44.9186 54.8534 44.881 54.9264 44.8127 54.9482C44.616 55.0109 44.4146 55.071 44.214 55.1269C44.2132 55.127 44.2124 55.1273 44.2115 55.1274ZM42.3956 55.5249C42.3917 55.5259 42.3877 55.5268 42.3836 55.5274C42.179 55.5603 41.9709 55.5897 41.7649 55.6149C41.6939 55.6235 41.6292 55.573 41.6206 55.502C41.6118 55.4308 41.6628 55.3661 41.7335 55.3575C41.9362 55.3328 42.1412 55.3038 42.3425 55.2714C42.4132 55.26 42.4797 55.3082 42.4911 55.3789C42.5018 55.4455 42.4597 55.5084 42.3956 55.5249ZM45.3927 54.7508C45.3287 54.7673 45.2614 54.7327 45.2385 54.6693C45.2142 54.6018 45.2491 54.5276 45.3164 54.5033C45.5083 54.4342 45.7016 54.3602 45.891 54.2837C45.9572 54.2569 46.0329 54.289 46.0598 54.3554C46.0866 54.4217 46.0545 54.4973 45.9881 54.5241C45.7957 54.6018 45.5994 54.6769 45.4044 54.7473C45.4005 54.7486 45.3966 54.7499 45.3927 54.7508ZM41.165 55.6752C41.1581 55.677 41.1508 55.6782 41.1434 55.6789C40.9359 55.6963 40.7261 55.7099 40.5198 55.7193C40.4483 55.7225 40.3877 55.6672 40.3844 55.5957C40.3812 55.5242 40.4362 55.4634 40.508 55.4602C40.7111 55.4509 40.9175 55.4377 41.1217 55.4204C41.1931 55.4145 41.2558 55.4675 41.2617 55.5389C41.2671 55.6028 41.2251 55.6597 41.165 55.6752ZM46.5421 54.2865C46.482 54.302 46.4178 54.2725 46.3915 54.214C46.3623 54.1487 46.3915 54.0719 46.4568 54.0426C46.6425 53.9593 46.8296 53.871 47.013 53.7802C47.0774 53.7487 47.1549 53.7748 47.1867 53.8388C47.2185 53.9029 47.1923 53.9807 47.1281 54.0125C46.9418 54.1049 46.7516 54.1945 46.5629 54.2792C46.5561 54.2822 46.5491 54.2847 46.5421 54.2865ZM39.9266 55.7319C39.9165 55.7345 39.9059 55.7359 39.8951 55.736C39.6875 55.7375 39.4773 55.7351 39.2702 55.7287C39.1987 55.7266 39.1424 55.6668 39.1445 55.5953C39.1468 55.5237 39.2064 55.4672 39.2781 55.4697C39.4819 55.4759 39.6888 55.4783 39.8931 55.4767C39.9647 55.4762 40.0232 55.5337 40.0237 55.6053C40.0242 55.666 39.9828 55.7173 39.9266 55.7319ZM47.653 53.7363C47.5968 53.7508 47.5359 53.7259 47.5069 53.6726C47.4727 53.6096 47.496 53.5309 47.5589 53.4967C47.7383 53.3992 47.9182 53.2969 48.0935 53.1927C48.1553 53.1563 48.2346 53.1765 48.2712 53.238C48.3078 53.2996 48.2875 53.3792 48.2259 53.4157C48.0478 53.5215 47.865 53.6255 47.6827 53.7246C47.6731 53.7298 47.6631 53.7337 47.653 53.7363ZM38.6873 55.694C38.6741 55.6974 38.6603 55.6987 38.646 55.6977C38.4392 55.6836 38.2292 55.6651 38.0218 55.6428C37.9505 55.6352 37.899 55.5713 37.9066 55.5001C37.9142 55.4289 37.978 55.3775 38.0494 55.385C38.2536 55.4069 38.4603 55.4251 38.6638 55.4392C38.7352 55.444 38.7891 55.506 38.7842 55.5773C38.7803 55.6345 38.7399 55.6804 38.6873 55.694ZM48.719 53.103C48.6664 53.1166 48.6089 53.0959 48.5777 53.0478C48.5389 52.9877 48.5561 52.9074 48.6162 52.8686C48.7876 52.7576 48.9592 52.6419 49.1262 52.5247C49.1847 52.4834 49.2656 52.4978 49.3068 52.5563C49.348 52.6149 49.3338 52.6958 49.2752 52.737C49.1056 52.8561 48.9313 52.9736 48.757 53.0863C48.745 53.094 48.7321 53.0996 48.719 53.103ZM37.4512 55.5614C37.435 55.5655 37.4177 55.5666 37.4002 55.5641C37.1947 55.534 36.9868 55.4996 36.7823 55.4617C36.7119 55.4486 36.6654 55.381 36.6785 55.3106C36.6916 55.2402 36.7592 55.1937 36.8295 55.2068C37.0307 55.244 37.2354 55.278 37.4377 55.3075C37.5085 55.3179 37.5575 55.3837 37.5472 55.4545C37.5394 55.5077 37.5002 55.5486 37.4512 55.5614ZM49.7321 52.3915C49.683 52.4041 49.6291 52.3872 49.5965 52.3443C49.5531 52.2874 49.5642 52.2061 49.6212 52.1627C49.7833 52.0394 49.9452 51.9114 50.1023 51.7821C50.1575 51.7366 50.2392 51.7446 50.2848 51.7999C50.3302 51.8551 50.3223 51.9368 50.267 51.9823C50.1074 52.1136 49.9429 52.2437 49.7782 52.369C49.764 52.3799 49.7483 52.3874 49.7321 52.3915ZM36.2297 55.335C36.2104 55.34 36.1897 55.3405 36.169 55.3358C35.9668 55.2904 35.7622 55.2402 35.561 55.1869C35.4918 55.1685 35.4506 55.0975 35.4689 55.0284C35.4873 54.9592 35.5582 54.918 35.6275 54.9362C35.8255 54.9888 36.0269 55.0382 36.2259 55.0829C36.2957 55.0987 36.3396 55.168 36.3238 55.2379C36.3128 55.2869 36.2752 55.3232 36.2297 55.335ZM50.6873 51.6058C50.6417 51.6176 50.5913 51.6039 50.5579 51.5663C50.5103 51.5128 50.5152 51.4308 50.5688 51.3833C50.7207 51.2484 50.8725 51.1084 51.02 50.9671C51.0716 50.9175 51.1538 50.9193 51.2033 50.971C51.2528 51.0227 51.2511 51.1048 51.1994 51.1543C51.0495 51.2979 50.8953 51.4401 50.7409 51.5772C50.725 51.5913 50.7066 51.6009 50.6873 51.6058ZM35.0295 55.0165C35.0071 55.0223 34.983 55.0222 34.9593 55.0149C34.7604 54.954 34.5603 54.8885 34.3647 54.8203C34.297 54.7968 34.2614 54.7229 34.2849 54.6552C34.3084 54.5875 34.3823 54.5519 34.45 54.5755C34.6425 54.6426 34.8395 54.707 35.0352 54.767C35.1037 54.788 35.1422 54.8605 35.1212 54.9289C35.1075 54.9736 35.0717 55.0056 35.0295 55.0165ZM51.5809 50.7495C51.5387 50.7604 51.4919 50.7498 51.4582 50.7172C51.4068 50.6674 51.4054 50.5853 51.4553 50.5338C51.5966 50.3878 51.7375 50.2366 51.874 50.0845C51.9218 50.0312 52.0038 50.0267 52.057 50.0745C52.1103 50.1223 52.1148 50.2043 52.067 50.2576C51.9283 50.4123 51.7852 50.5658 51.6416 50.7142C51.6243 50.7321 51.6032 50.7438 51.5809 50.7495ZM52.4077 49.8278C52.3687 49.8379 52.3257 49.8297 52.2924 49.802C52.2373 49.7563 52.2298 49.6746 52.2755 49.6195C52.4062 49.4624 52.5353 49.3008 52.6595 49.1395C52.703 49.0828 52.7845 49.0721 52.8412 49.1158C52.8979 49.1595 52.9086 49.2409 52.8649 49.2976C52.7388 49.4616 52.6076 49.6256 52.4749 49.7852C52.4568 49.807 52.4331 49.8213 52.4077 49.8278ZM33.8574 54.6083C33.832 54.6148 33.8043 54.6138 33.7779 54.6035C33.5847 54.5279 33.3902 54.4475 33.2 54.3647C33.1343 54.3361 33.1043 54.2597 33.1328 54.194C33.1614 54.1283 33.2377 54.0983 33.3035 54.1269C33.4908 54.2084 33.6823 54.2875 33.8724 54.362C33.9391 54.3881 33.9719 54.4632 33.9458 54.5299C33.9301 54.5703 33.8964 54.5982 33.8574 54.6083ZM53.1631 48.846C53.1273 48.8552 53.088 48.8492 53.0555 48.8261C52.9972 48.7846 52.9835 48.7037 53.025 48.6454C53.143 48.4793 53.2597 48.3085 53.3719 48.1376C53.4111 48.0777 53.4915 48.061 53.5514 48.1003C53.6112 48.1397 53.628 48.22 53.5887 48.2799C53.4748 48.4534 53.3562 48.6269 53.2363 48.7956C53.2179 48.8215 53.1917 48.8386 53.1631 48.846ZM32.72 54.113C32.6914 54.1204 32.6602 54.1181 32.6316 54.1044C32.445 54.0145 32.2572 53.9198 32.0735 53.8229C32.0101 53.7894 31.9859 53.711 32.0193 53.6477C32.0529 53.5844 32.1313 53.5602 32.1945 53.5936C32.3753 53.6891 32.5602 53.7823 32.7439 53.8706C32.8085 53.9017 32.8356 53.9792 32.8045 54.0437C32.7873 54.0795 32.7558 54.1038 32.72 54.113ZM53.8428 47.8097C53.8103 47.818 53.7746 47.8139 53.7435 47.7951C53.6822 47.7581 53.6625 47.6785 53.6995 47.6171C53.805 47.4424 53.9086 47.2632 54.0074 47.0845C54.042 47.0219 54.121 46.9991 54.1836 47.0339C54.2463 47.0685 54.2689 47.1474 54.2343 47.21C54.1339 47.3914 54.0287 47.5735 53.9216 47.751C53.9033 47.7813 53.8746 47.8015 53.8428 47.8097ZM31.6236 53.5339C31.5919 53.5421 31.557 53.5383 31.5264 53.5206C31.3471 53.4171 31.167 53.3086 30.9913 53.1981C30.9306 53.16 30.9124 53.08 30.9505 53.0194C30.9886 52.9587 31.0686 52.9405 31.1293 52.9785C31.3024 53.0873 31.4796 53.1941 31.6561 53.2961C31.7181 53.3319 31.7394 53.4112 31.7036 53.4732C31.6854 53.5046 31.6561 53.5255 31.6236 53.5339ZM54.443 46.7247C54.4136 46.7323 54.3814 46.7296 54.3522 46.7149C54.2883 46.6826 54.2627 46.6046 54.295 46.5407C54.387 46.3585 54.4768 46.1721 54.562 45.9863C54.5919 45.9211 54.6688 45.8927 54.7339 45.9224C54.799 45.9523 54.8275 46.0292 54.7977 46.0943C54.7111 46.283 54.6198 46.4725 54.5264 46.6575C54.5089 46.6923 54.4779 46.7157 54.443 46.7247ZM30.5742 52.8742C30.5393 52.8832 30.5009 52.8776 30.4687 52.8558C30.2974 52.7389 30.1262 52.6173 29.9596 52.4941C29.902 52.4515 29.8898 52.3703 29.9324 52.3127C29.975 52.2553 30.0561 52.243 30.1137 52.2856C30.2777 52.4068 30.4463 52.5266 30.6149 52.6417C30.6741 52.682 30.6893 52.7627 30.6489 52.8217C30.6305 52.8488 30.6036 52.8666 30.5742 52.8742ZM54.9601 45.5972C54.9338 45.6039 54.9053 45.6025 54.8782 45.5913C54.8121 45.564 54.7806 45.4882 54.808 45.4219C54.886 45.2337 54.9615 45.0408 55.0327 44.8488C55.0575 44.7817 55.1321 44.7473 55.1992 44.7722C55.2664 44.7971 55.3007 44.8717 55.2759 44.9388C55.2036 45.1339 55.1268 45.3298 55.0476 45.5211C55.0314 45.5603 54.9982 45.5873 54.9601 45.5972ZM29.5778 52.1379C29.5397 52.1477 29.4975 52.1401 29.4644 52.1137C29.3027 51.9844 29.1411 51.8503 28.9841 51.7149C28.9299 51.6682 28.9238 51.5862 28.9706 51.532C29.0173 51.4777 29.0992 51.4717 29.1534 51.5185C29.308 51.6517 29.4671 51.7839 29.6262 51.911C29.6822 51.9557 29.6913 52.0373 29.6466 52.0932C29.6284 52.1161 29.6041 52.1311 29.5778 52.1379ZM28.6401 51.3289C28.5987 51.3395 28.5529 51.3296 28.5192 51.2983C28.3677 51.1572 28.2168 51.0114 28.0706 50.8647C28.02 50.8139 28.0202 50.7318 28.0709 50.6813C28.1218 50.6309 28.2037 50.6309 28.2543 50.6817C28.3982 50.826 28.5467 50.9696 28.6959 51.1085C28.7484 51.1573 28.7513 51.2393 28.7025 51.2917C28.685 51.3105 28.6632 51.3229 28.6401 51.3289ZM55.3909 44.4334C55.3678 44.4394 55.3427 44.439 55.3183 44.431C55.2502 44.4087 55.2132 44.3355 55.2355 44.2674C55.2992 44.0735 55.3599 43.8754 55.4162 43.6787C55.4359 43.6098 55.5077 43.57 55.5766 43.5898C55.6454 43.6095 55.6852 43.6812 55.6655 43.75C55.6083 43.95 55.5465 44.1512 55.4818 44.3483C55.4675 44.3919 55.4323 44.4228 55.3909 44.4334ZM27.7665 50.4521C27.7218 50.4636 27.6723 50.4509 27.6388 50.4145C27.4983 50.2624 27.3589 50.1056 27.2244 49.9485C27.1779 49.8941 27.1842 49.8123 27.2386 49.7658C27.2931 49.7193 27.3749 49.7256 27.4214 49.7799C27.5537 49.9345 27.6909 50.0888 27.8293 50.2386C27.8778 50.2912 27.8746 50.3732 27.822 50.4218C27.8056 50.4368 27.7865 50.4469 27.7665 50.4521ZM55.7327 43.2399C55.7126 43.245 55.691 43.2455 55.6695 43.2403C55.6 43.2232 55.5574 43.1529 55.5745 43.0834C55.6233 42.8851 55.6689 42.6829 55.7101 42.4824C55.7246 42.4122 55.7929 42.3669 55.8633 42.3814C55.9333 42.3958 55.9785 42.4644 55.9641 42.5345C55.9222 42.7383 55.8758 42.9437 55.8263 43.1452C55.8146 43.1933 55.7774 43.2284 55.7327 43.2399ZM26.9622 49.5123C26.9141 49.5247 26.861 49.5086 26.8281 49.4672C26.6996 49.305 26.5726 49.1382 26.4505 48.9714C26.4082 48.9137 26.4207 48.8326 26.4785 48.7903C26.5364 48.7481 26.6174 48.7606 26.6597 48.8183C26.7799 48.9824 26.9049 49.1466 27.0313 49.3063C27.0758 49.3624 27.0663 49.444 27.0102 49.4884C26.9956 49.5 26.9792 49.5079 26.9622 49.5123ZM55.983 42.0232C55.966 42.0276 55.9479 42.0285 55.9294 42.0255C55.8588 42.0137 55.8111 41.9469 55.8228 41.8763C55.8565 41.674 55.8866 41.4688 55.9123 41.2663C55.9214 41.1953 55.9863 41.1451 56.0574 41.1541C56.1284 41.1632 56.1786 41.228 56.1696 41.2991C56.1434 41.5048 56.1128 41.7133 56.0786 41.9188C56.0699 41.971 56.0312 42.0108 55.983 42.0232ZM26.2309 48.5132C26.1792 48.5266 26.1225 48.5068 26.091 48.4601C25.9749 48.2882 25.8606 48.1118 25.7513 47.9357C25.7135 47.8749 25.7322 47.7949 25.793 47.7571C25.8537 47.7192 25.9338 47.738 25.9716 47.7989C26.0792 47.9721 26.1916 48.1458 26.3059 48.315C26.3459 48.3744 26.3304 48.455 26.271 48.495C26.2584 48.5037 26.2448 48.5096 26.2309 48.5132ZM56.14 40.7902C56.1261 40.7938 56.1113 40.7951 56.0962 40.7938C56.0249 40.7874 55.9722 40.7245 55.9786 40.6532C55.9966 40.4494 56.011 40.2423 56.0213 40.0379C56.0249 39.9663 56.0858 39.9113 56.1573 39.9148C56.2288 39.9184 56.2838 39.9793 56.2802 40.0508C56.2699 40.2586 56.2552 40.469 56.2368 40.6761C56.2318 40.7323 56.1917 40.7769 56.14 40.7902ZM25.5768 47.4601C25.5216 47.4743 25.4614 47.4505 25.4319 47.3986C25.3293 47.2184 25.2288 47.0337 25.1331 46.8498C25.1001 46.7862 25.1248 46.708 25.1884 46.6749C25.2518 46.6417 25.3301 46.6666 25.3632 46.7301C25.4573 46.9111 25.5563 47.0928 25.6572 47.2703C25.6926 47.3325 25.6709 47.4117 25.6086 47.447C25.5985 47.4529 25.5877 47.4572 25.5768 47.4601ZM56.2024 39.5502C56.1916 39.553 56.1801 39.5544 56.1684 39.5543C56.0968 39.5534 56.0394 39.4946 56.0403 39.4231C56.0427 39.2189 56.0413 39.012 56.0359 38.808C56.0341 38.7364 56.0908 38.6771 56.1621 38.675C56.2337 38.6731 56.2932 38.7297 56.2951 38.8012C56.3005 39.0084 56.302 39.2186 56.2995 39.4261C56.2989 39.486 56.2577 39.5359 56.2024 39.5502ZM25.0049 46.36C24.9459 46.3752 24.8825 46.347 24.8555 46.2898C24.7668 46.1021 24.6806 45.9104 24.5993 45.7198C24.5713 45.6539 24.6018 45.5778 24.6677 45.5497C24.7334 45.5215 24.8097 45.5522 24.8378 45.6181C24.9178 45.8056 25.0027 45.9944 25.0899 46.1791C25.1205 46.2438 25.0928 46.321 25.0281 46.3516C25.0205 46.3552 25.0127 46.358 25.0049 46.36ZM56.1701 38.3108C56.1623 38.3128 56.1543 38.3142 56.1459 38.3147C56.0745 38.3193 56.0128 38.2651 56.0082 38.1936C55.9952 37.9902 55.9779 37.7841 55.9571 37.5807C55.9498 37.5095 56.0016 37.4456 56.0729 37.4385C56.1441 37.4312 56.2078 37.483 56.2151 37.5543C56.2363 37.7608 56.2537 37.9704 56.267 38.177C56.271 38.2401 56.2291 38.2956 56.1701 38.3108ZM24.5183 45.2199C24.4553 45.2361 24.3888 45.2028 24.365 45.1406C24.2908 44.9467 24.2194 44.7489 24.1528 44.5529C24.1297 44.4851 24.166 44.4115 24.2338 44.3884C24.3014 44.3653 24.3752 44.4017 24.3982 44.4695C24.4639 44.6625 24.5342 44.857 24.6072 45.048C24.6328 45.1148 24.5993 45.1898 24.5324 45.2154C24.5278 45.2172 24.523 45.2186 24.5183 45.2199ZM56.0438 37.0776C56.0391 37.0788 56.0342 37.0798 56.0293 37.0805C55.9584 37.0905 55.8929 37.0411 55.8829 36.9702C55.8544 36.7684 55.8217 36.564 55.7856 36.3628C55.7729 36.2924 55.8203 36.2247 55.8902 36.2123C55.9607 36.1997 56.0281 36.2466 56.0407 36.317C56.0774 36.5214 56.1106 36.7289 56.1396 36.934C56.1489 37 56.1068 37.0613 56.0438 37.0776ZM24.1191 44.0461C24.052 44.0634 23.9827 44.0247 23.9626 43.9577C23.9034 43.7597 23.8469 43.5571 23.7949 43.3558C23.7769 43.2865 23.8186 43.2157 23.8879 43.1978C23.8879 43.1977 23.888 43.1977 23.888 43.1977C23.9573 43.1799 24.0279 43.2215 24.0459 43.2907C24.0972 43.489 24.1528 43.6884 24.2111 43.8834C24.2316 43.9521 24.1926 44.0243 24.124 44.0448C24.1223 44.0453 24.1207 44.0457 24.1191 44.0461ZM55.8247 35.8574C55.8231 35.8578 55.8215 35.8581 55.8199 35.8585C55.75 35.8738 55.6809 35.8295 55.6656 35.7595C55.6221 35.5605 55.5742 35.3591 55.5232 35.1611L55.515 35.1298C55.497 35.0605 55.5385 34.9897 55.6078 34.9717C55.608 34.9717 55.608 34.9716 55.6081 34.9716C55.6774 34.9538 55.7479 34.9953 55.766 35.0645L55.7742 35.0964C55.8261 35.2975 55.8748 35.502 55.9189 35.7041C55.9338 35.7726 55.8918 35.8401 55.8247 35.8574ZM23.8087 42.8459C23.8072 42.8463 23.8056 42.8467 23.8041 42.847C23.7341 42.8624 23.665 42.8181 23.6496 42.7481C23.6052 42.5459 23.564 42.3398 23.5271 42.1355C23.5144 42.065 23.5612 41.9973 23.6316 41.9849C23.7021 41.9721 23.7696 42.0189 23.7822 42.0894C23.8186 42.2906 23.8592 42.4935 23.9029 42.6925C23.9179 42.7609 23.8759 42.8286 23.8087 42.8459ZM55.5057 34.6257C55.4387 34.643 55.3694 34.6043 55.3493 34.5374C55.2906 34.3417 55.2274 34.1446 55.1615 33.9516C55.1384 33.8838 55.1746 33.8102 55.2423 33.7871C55.3109 33.763 55.3838 33.8001 55.4069 33.8679C55.4738 34.064 55.5379 34.2642 55.5976 34.463C55.6181 34.5315 55.5792 34.6038 55.5107 34.6244C55.509 34.6248 55.5074 34.6253 55.5057 34.6257ZM23.5885 41.6259C23.5839 41.6271 23.5791 41.628 23.5742 41.6287C23.5033 41.6388 23.4377 41.5894 23.4276 41.5186C23.3985 41.3129 23.3728 41.1042 23.3515 40.8983C23.3441 40.827 23.3961 40.7636 23.4672 40.756C23.5384 40.7486 23.602 40.8004 23.6094 40.8716C23.6304 41.0744 23.6556 41.2798 23.6844 41.4821C23.6937 41.5482 23.6515 41.6096 23.5885 41.6259ZM55.1053 33.4524C55.0423 33.4687 54.9759 33.4354 54.952 33.3733C54.879 33.1829 54.8011 32.9912 54.7208 32.8034C54.6926 32.7375 54.7232 32.6614 54.789 32.6332C54.855 32.6047 54.931 32.6356 54.9592 32.7014C55.0408 32.8922 55.1198 33.087 55.1941 33.2804C55.2197 33.3473 55.1863 33.4222 55.1195 33.4479C55.1148 33.4497 55.11 33.4512 55.1053 33.4524ZM23.4609 40.3928C23.4531 40.3948 23.4451 40.3961 23.4368 40.3966C23.3654 40.4013 23.3037 40.3472 23.299 40.2757C23.2854 40.0685 23.2758 39.8585 23.2702 39.6514C23.2683 39.5799 23.3248 39.5203 23.3963 39.5183C23.4678 39.5163 23.5274 39.5728 23.5294 39.6444C23.5349 39.8482 23.5444 40.0549 23.5578 40.2588C23.5619 40.322 23.52 40.3775 23.4609 40.3928ZM54.6175 32.3127C54.5586 32.3279 54.4952 32.2997 54.4682 32.2426C54.3807 32.0581 54.2886 31.8727 54.1944 31.6919C54.1613 31.6284 54.186 31.5501 54.2494 31.517C54.3127 31.484 54.3912 31.5085 54.4243 31.572C54.5201 31.7557 54.6137 31.9441 54.7025 32.1316C54.7332 32.1963 54.7055 32.2736 54.6408 32.3043C54.6332 32.3079 54.6254 32.3107 54.6175 32.3127ZM23.4272 39.1535C23.4164 39.1563 23.4051 39.1577 23.3933 39.1575C23.3218 39.1567 23.2644 39.0981 23.2651 39.0265C23.2674 38.8192 23.2737 38.6091 23.2839 38.4018C23.2874 38.3303 23.3483 38.2754 23.4198 38.2787C23.4913 38.2823 23.5464 38.343 23.5429 38.4146C23.5328 38.6186 23.5267 38.8254 23.5244 39.0293C23.5237 39.0892 23.4826 39.1392 23.4272 39.1535ZM54.0446 31.2134C53.9894 31.2276 53.9293 31.2039 53.8998 31.1521C53.7986 30.9747 53.6926 30.797 53.5848 30.6237C53.5469 30.5629 53.5656 30.483 53.6264 30.4452C53.6872 30.4073 53.7671 30.4259 53.805 30.4868C53.9145 30.6628 54.0222 30.8434 54.125 31.0235C54.1605 31.0857 54.1388 31.1649 54.0766 31.2004C54.0663 31.2062 54.0556 31.2106 54.0446 31.2134ZM23.4882 37.9134C23.4743 37.917 23.4596 37.9183 23.4445 37.917C23.3732 37.9108 23.3205 37.8479 23.3267 37.7765C23.3449 37.5691 23.3673 37.3595 23.3933 37.1535C23.4023 37.0825 23.4672 37.0323 23.5382 37.0412C23.6092 37.0501 23.6596 37.115 23.6506 37.186C23.6249 37.3887 23.6029 37.595 23.585 37.7992C23.5801 37.8554 23.5399 37.9001 23.4882 37.9134ZM53.3897 30.1607C53.3381 30.174 53.2815 30.1544 53.25 30.1078C53.1356 29.9388 53.0164 29.7696 52.8957 29.605C52.8533 29.5474 52.8658 29.4662 52.9235 29.4238C52.9812 29.3816 53.0624 29.3939 53.1047 29.4517C53.2274 29.6188 53.3485 29.7907 53.4648 29.9625C53.5048 30.0218 53.4893 30.1024 53.43 30.1425C53.4174 30.1511 53.4037 30.1571 53.3897 30.1607ZM23.6438 36.6803C23.6269 36.6846 23.6088 36.6856 23.5903 36.6826C23.5197 36.6709 23.472 36.6042 23.4836 36.5335C23.5176 36.3282 23.5559 36.1211 23.5975 35.9178C23.6119 35.8476 23.6804 35.8023 23.7505 35.8168C23.8207 35.8311 23.8659 35.8996 23.8515 35.9698C23.8105 36.1699 23.7728 36.3738 23.7394 36.5758C23.7308 36.628 23.692 36.6678 23.6438 36.6803ZM52.6576 29.1624C52.6095 29.1748 52.5565 29.1588 52.5236 29.1174C52.3967 28.9576 52.2653 28.7984 52.1331 28.6442C52.0865 28.5898 52.0928 28.508 52.1471 28.4614C52.2014 28.4148 52.2833 28.421 52.3299 28.4754C52.4642 28.632 52.5977 28.7939 52.7267 28.9562C52.7712 29.0123 52.7618 29.0939 52.7057 29.1384C52.6911 29.15 52.6746 29.158 52.6576 29.1624ZM23.8928 35.4633C23.8728 35.4685 23.8512 35.469 23.8298 35.4637C23.7602 35.4467 23.7176 35.3765 23.7346 35.307C23.7839 35.1054 23.8378 34.9019 23.8949 34.702C23.9145 34.6332 23.9863 34.5933 24.0551 34.6129C24.124 34.6325 24.1639 34.7043 24.1442 34.7732C24.0881 34.9699 24.035 35.1702 23.9865 35.3686C23.9747 35.4166 23.9376 35.4518 23.8928 35.4633ZM51.8524 28.2233C51.8077 28.2348 51.7584 28.222 51.7248 28.1858C51.5862 28.0361 51.4431 27.8872 51.2993 27.7431C51.2487 27.6925 51.2488 27.6104 51.2995 27.5598C51.3502 27.5092 51.4322 27.5092 51.4828 27.56C51.6289 27.7063 51.7744 27.8576 51.9151 28.0097C51.9638 28.0622 51.9606 28.1442 51.9081 28.1929C51.8916 28.208 51.8725 28.2181 51.8524 28.2233ZM24.2333 34.2695C24.2103 34.2754 24.1852 34.2751 24.1608 34.2671C24.0928 34.2449 24.0557 34.1717 24.0779 34.1036C24.1423 33.9065 24.2114 33.7076 24.2834 33.5128C24.3082 33.4456 24.3827 33.4113 24.4499 33.4361C24.517 33.4608 24.5514 33.5354 24.5266 33.6026C24.4558 33.7944 24.3877 33.9901 24.3243 34.1842C24.3101 34.2278 24.2748 34.2588 24.2333 34.2695ZM50.9779 27.3472C50.9366 27.3579 50.8909 27.3479 50.8572 27.3167C50.7076 27.1778 50.5535 27.04 50.3993 26.9072C50.345 26.8605 50.3389 26.7786 50.3856 26.7243C50.4324 26.6702 50.5142 26.664 50.5684 26.7107C50.7251 26.8457 50.8817 26.9856 51.0336 27.1267C51.0861 27.1754 51.0892 27.2574 51.0404 27.3099C51.0229 27.3288 51.0011 27.3413 50.9779 27.3472ZM24.6631 33.1053C24.6368 33.112 24.6083 33.1107 24.5813 33.0996C24.5152 33.0722 24.4837 32.9964 24.511 32.9303C24.5902 32.7383 24.6741 32.5454 24.7604 32.3569C24.7902 32.2918 24.8671 32.2631 24.9322 32.2929C24.9973 32.3227 25.0259 32.3996 24.9962 32.4647C24.9112 32.6503 24.8286 32.8402 24.7506 33.0292C24.7345 33.0684 24.7012 33.0954 24.6631 33.1053ZM50.0394 26.5393C50.0013 26.5491 49.9592 26.5415 49.9261 26.5152C49.7667 26.3881 49.6025 26.2622 49.4383 26.1411C49.3807 26.0986 49.3685 26.0174 49.4109 25.9598C49.4534 25.9022 49.5345 25.8899 49.5922 25.9324C49.759 26.0554 49.9257 26.1833 50.0877 26.3124C50.1437 26.357 50.1529 26.4386 50.1083 26.4946C50.0901 26.5174 50.0656 26.5326 50.0394 26.5393ZM25.1791 31.9772C25.1498 31.9848 25.1176 31.9821 25.0885 31.9675C25.0245 31.9352 24.9988 31.8573 25.0311 31.7934C25.1245 31.6079 25.2227 31.4219 25.3227 31.2406C25.3573 31.1778 25.4362 31.1552 25.4989 31.1897C25.5616 31.2243 25.5844 31.3032 25.5498 31.3658C25.4513 31.5443 25.3546 31.7274 25.2627 31.91C25.2451 31.9448 25.2141 31.9683 25.1791 31.9772ZM49.0421 25.8039C49.0073 25.8129 48.9689 25.8074 48.9368 25.7856C48.7674 25.6704 48.5942 25.5571 48.422 25.4491C48.3614 25.411 48.3431 25.331 48.3811 25.2703C48.4191 25.2098 48.4991 25.1914 48.5598 25.2295C48.7348 25.3392 48.9107 25.4542 49.0827 25.5712C49.1419 25.6115 49.1572 25.6921 49.117 25.7514C49.0985 25.7784 49.0716 25.7963 49.0421 25.8039ZM25.7784 30.8916C25.7459 30.9 25.7102 30.8958 25.6792 30.8772C25.6178 30.8403 25.5981 30.7606 25.635 30.6992C25.7421 30.5214 25.8539 30.3434 25.9672 30.1702C26.0065 30.1103 26.0868 30.0936 26.1468 30.1327C26.2066 30.1719 26.2234 30.2522 26.1842 30.3122C26.0726 30.4826 25.9626 30.6578 25.8571 30.833C25.8388 30.8633 25.8101 30.8834 25.7784 30.8916ZM47.9919 25.1453C47.9602 25.1535 47.9255 25.1497 47.8949 25.1321C47.7174 25.0299 47.5362 24.93 47.3561 24.8351C47.2928 24.8018 47.2684 24.7234 47.3018 24.66C47.3352 24.5966 47.4136 24.5723 47.477 24.6057C47.6599 24.7021 47.844 24.8036 48.0243 24.9074C48.0864 24.9432 48.1077 25.0224 48.072 25.0845C48.0539 25.1159 48.0245 25.1369 47.9919 25.1453ZM26.4572 29.8546C26.4214 29.8638 26.3821 29.8577 26.3497 29.8348C26.2913 29.7934 26.2776 29.7125 26.319 29.654C26.4387 29.4854 26.5635 29.3164 26.69 29.1517C26.7335 29.0948 26.8149 29.0841 26.8717 29.1278C26.9285 29.1713 26.9392 29.2527 26.8956 29.3095C26.7711 29.4717 26.6483 29.6381 26.5305 29.8041C26.5121 29.8301 26.4858 29.8472 26.4572 29.8546ZM46.8948 24.5672C46.8663 24.5746 46.8351 24.5723 46.8064 24.5586C46.6224 24.4703 46.4341 24.3843 46.2467 24.3028C46.181 24.2743 46.1509 24.198 46.1793 24.1323C46.2079 24.0666 46.2841 24.0364 46.3499 24.065C46.5403 24.1477 46.7317 24.2351 46.9186 24.3247C46.9831 24.3557 47.0103 24.4332 46.9794 24.4977C46.9622 24.5337 46.9306 24.558 46.8948 24.5672ZM27.2117 28.872C27.1728 28.882 27.1297 28.8738 27.0964 28.8462C27.0413 28.8005 27.0337 28.7188 27.0794 28.6637C27.212 28.5039 27.3491 28.3448 27.4869 28.1908C27.5348 28.1375 27.6167 28.133 27.67 28.1807C27.7233 28.2285 27.7279 28.3104 27.6802 28.3638C27.5444 28.5154 27.4095 28.6719 27.279 28.8292C27.2609 28.851 27.2371 28.8654 27.2117 28.872ZM45.7568 24.0731C45.7314 24.0796 45.7038 24.0786 45.6775 24.0683C45.4865 23.9938 45.2921 23.9222 45.0998 23.8554C45.0322 23.832 44.9964 23.7581 45.0198 23.6905C45.0433 23.6229 45.1171 23.587 45.1848 23.6106C45.3802 23.6784 45.5777 23.7511 45.7716 23.8267C45.8383 23.8527 45.8713 23.9279 45.8454 23.9946C45.8296 24.035 45.7958 24.063 45.7568 24.0731ZM28.0376 27.9494C27.9954 27.9603 27.9487 27.9497 27.9151 27.9171C27.8636 27.8674 27.8622 27.7853 27.9119 27.7338C28.0555 27.5851 28.2042 27.4369 28.3537 27.2933C28.4054 27.2438 28.4875 27.2454 28.537 27.297C28.5866 27.3487 28.5849 27.4307 28.5333 27.4803C28.3861 27.6216 28.2398 27.7675 28.0984 27.9139C28.0812 27.9318 28.06 27.9436 28.0376 27.9494ZM44.5844 23.6661C44.562 23.6718 44.5379 23.6717 44.5143 23.6645C44.3186 23.6048 44.1192 23.5481 43.9219 23.4959C43.8526 23.4776 43.8114 23.4067 43.8297 23.3374C43.8479 23.2682 43.9189 23.227 43.9881 23.2452C44.1887 23.2982 44.3911 23.3558 44.59 23.4165C44.6585 23.4374 44.697 23.5099 44.6761 23.5784C44.6624 23.6232 44.6266 23.6552 44.5844 23.6661ZM28.9303 27.0922C28.8848 27.104 28.8344 27.0904 28.801 27.0529C28.7535 26.9994 28.7582 26.9175 28.8116 26.8699C28.9666 26.732 29.1259 26.5955 29.2852 26.4642C29.3405 26.4188 29.4222 26.4266 29.4677 26.4819C29.5133 26.5371 29.5054 26.6188 29.4501 26.6644C29.2934 26.7935 29.1366 26.9278 28.9841 27.0636C28.9681 27.0777 28.9497 27.0873 28.9303 27.0922ZM43.3839 23.3489C43.3647 23.3539 43.3441 23.3545 43.3234 23.3499C43.1236 23.3051 42.9204 23.2637 42.7195 23.2267C42.6491 23.2137 42.6026 23.1461 42.6156 23.0756C42.6285 23.0052 42.6962 22.9587 42.7666 22.9717C42.9706 23.0093 43.177 23.0514 43.38 23.0968C43.4499 23.1125 43.4939 23.1818 43.4782 23.2516C43.4672 23.3008 43.4296 23.3372 43.3839 23.3489ZM29.8847 26.3058C29.8357 26.3184 29.7818 26.3015 29.7492 26.2588C29.7057 26.2018 29.7168 26.1205 29.7736 26.0771C29.9379 25.9519 30.1071 25.8279 30.2763 25.7088C30.3349 25.6677 30.4158 25.6817 30.457 25.7402C30.4982 25.7988 30.4841 25.8796 30.4256 25.9209C30.259 26.0381 30.0926 26.16 29.9309 26.2833C29.9167 26.2941 29.901 26.3015 29.8847 26.3058ZM42.1622 23.1238C42.146 23.1279 42.1288 23.129 42.1113 23.1265C41.9082 23.097 41.7023 23.0712 41.4995 23.0496C41.4283 23.042 41.3767 22.9782 41.3842 22.9069C41.3918 22.8358 41.4557 22.7843 41.5269 22.7917C41.733 22.8136 41.9421 22.8399 42.1484 22.8698C42.2193 22.8801 42.2684 22.9458 42.2582 23.0167C42.2505 23.0701 42.2113 23.1111 42.1622 23.1238ZM30.897 25.5932C30.8445 25.6068 30.787 25.5862 30.7559 25.5382C30.7169 25.4781 30.734 25.3978 30.7941 25.3588C30.9686 25.2457 31.1472 25.1347 31.3249 25.029C31.3867 24.9924 31.4661 25.0125 31.5026 25.074C31.5392 25.1355 31.519 25.2151 31.4575 25.2518C31.2826 25.3558 31.1069 25.465 30.9351 25.5765C30.9231 25.5842 30.9102 25.5898 30.897 25.5932ZM40.9261 22.9923C40.913 22.9956 40.8992 22.997 40.885 22.996C40.6813 22.9822 40.4746 22.9722 40.2706 22.9661C40.1991 22.964 40.1428 22.9042 40.1449 22.8327C40.1471 22.7611 40.2068 22.7048 40.2783 22.7069C40.4856 22.7131 40.6955 22.7233 40.9025 22.7373C40.9739 22.7421 41.0279 22.804 41.0231 22.8754C41.0192 22.9327 40.9788 22.9787 40.9261 22.9923ZM31.9621 24.959C31.9059 24.9735 31.845 24.9486 31.816 24.8954C31.7817 24.8325 31.8049 24.7538 31.8678 24.7194C32.0492 24.6206 32.2357 24.5235 32.4221 24.431C32.4862 24.3989 32.564 24.4252 32.5959 24.4894C32.6277 24.5535 32.6015 24.6313 32.5375 24.6631C32.354 24.7542 32.1705 24.8498 31.9919 24.9472C31.9823 24.9524 31.9722 24.9563 31.9621 24.959ZM39.687 22.9556C39.677 22.9582 39.6665 22.9596 39.6557 22.9597C39.4509 22.9614 39.2441 22.9672 39.0408 22.9767C38.9694 22.9801 38.9086 22.9248 38.9053 22.8533C38.902 22.7818 38.9569 22.721 39.0287 22.7177C39.2353 22.708 39.4455 22.7022 39.6534 22.7004C39.725 22.6998 39.7836 22.7573 39.7841 22.829C39.7847 22.8897 39.7433 22.9411 39.687 22.9556ZM33.0724 24.4076C33.0124 24.4231 32.9483 24.3937 32.922 24.3353C32.8926 24.27 32.9217 24.1932 32.987 24.1638C33.1758 24.0789 33.3691 23.9962 33.5615 23.9182C33.6282 23.8917 33.7035 23.9234 33.7304 23.9897C33.7573 24.056 33.7254 24.1316 33.659 24.1585C33.4695 24.2354 33.2792 24.3166 33.0935 24.4003C33.0865 24.4033 33.0795 24.4058 33.0724 24.4076ZM38.4486 23.0134C38.4417 23.0152 38.4345 23.0165 38.4271 23.0171C38.2237 23.0344 38.0179 23.0558 37.8154 23.0807C37.7442 23.0895 37.6795 23.039 37.6708 22.9679C37.6621 22.8969 37.7123 22.8326 37.7836 22.8234C37.9894 22.7981 38.1985 22.7763 38.4052 22.7588C38.4766 22.7527 38.5393 22.8057 38.5453 22.877C38.5507 22.9409 38.5088 22.9979 38.4486 23.0134ZM34.2214 23.942C34.1574 23.9585 34.0902 23.924 34.0672 23.8605C34.0429 23.7932 34.0777 23.7188 34.145 23.6945C34.3401 23.624 34.5391 23.5562 34.7365 23.493C34.8043 23.4712 34.8777 23.5088 34.8994 23.577C34.9213 23.6452 34.8837 23.7182 34.8155 23.74C34.6211 23.8022 34.4253 23.8689 34.2333 23.9383C34.2293 23.9398 34.2254 23.941 34.2214 23.942ZM37.2183 23.1649C37.2144 23.1659 37.2105 23.1668 37.2064 23.1674C37.0049 23.2 36.8012 23.2369 36.6012 23.2769C36.531 23.291 36.4627 23.2455 36.4486 23.1753C36.4345 23.1051 36.4796 23.0362 36.5502 23.0228C36.7534 22.982 36.9602 22.9446 37.165 22.9115C37.2357 22.9 37.3023 22.9481 37.3137 23.0188C37.3245 23.0854 37.2824 23.1484 37.2183 23.1649ZM35.4023 23.5642C35.3342 23.5818 35.2642 23.5416 35.2452 23.4735C35.2259 23.4046 35.2662 23.3331 35.3351 23.3138C35.5353 23.258 35.7378 23.2054 35.94 23.1569C36.0097 23.1402 36.0797 23.1832 36.0963 23.2528C36.113 23.3224 36.0697 23.3907 36.0005 23.4091C35.8014 23.4568 35.6019 23.5085 35.4049 23.5635C35.404 23.5638 35.4032 23.564 35.4023 23.5642Z" fill="black"/>
<path d="M32.9871 27.6926L33.2558 28.1151L33.7406 27.9901C33.8215 27.9692 33.8819 28.0641 33.8287 28.1285L33.5099 28.5146L33.7785 28.9371C33.8234 29.0076 33.7518 29.0944 33.674 29.0636L33.2084 28.8798L32.8895 29.2658C32.8364 29.3303 32.7317 29.289 32.7369 29.2056L32.7679 28.7059L32.3022 28.522C32.2244 28.4913 32.2314 28.3791 32.3123 28.3582L32.7971 28.2333L32.8281 27.7336C32.8334 27.6501 32.9423 27.622 32.9871 27.6926Z" fill="black"/>
<path d="M36.3236 25.472L36.8762 26.341L37.8734 26.084C37.9543 26.0631 38.0146 26.158 37.9615 26.2224L37.3058 27.0164L37.8584 27.8854C37.9032 27.9559 37.8316 28.0427 37.7539 28.012L36.796 27.6338L36.1404 28.4278C36.0872 28.4923 35.9826 28.451 35.9878 28.3676L36.0514 27.3397L35.0937 26.9616C35.0159 26.9309 35.0229 26.8186 35.1038 26.7978L36.101 26.5408L36.1648 25.513C36.1699 25.4295 36.2787 25.4015 36.3236 25.472Z" fill="black"/>
<path d="M40.3187 25.8028L40.5873 26.2253L41.0722 26.1003C41.1531 26.0795 41.2134 26.1744 41.1602 26.2388L40.8414 26.6248L41.1101 27.0473C41.1549 27.1178 41.0833 27.2045 41.0056 27.1738L40.5399 26.9899L40.2211 27.376C40.1679 27.4405 40.0633 27.3992 40.0684 27.3158L40.0994 26.8161L39.6337 26.6322C39.556 26.6015 39.5629 26.4893 39.6439 26.4684L40.1287 26.3434L40.1596 25.8437C40.165 25.7604 40.2738 25.7323 40.3187 25.8028Z" fill="black"/>
<path d="M43.442 25.5778L43.6111 25.8438L43.9163 25.7651C43.9673 25.752 44.0052 25.8117 43.9717 25.8522L43.7711 26.0952L43.9402 26.3612C43.9684 26.4056 43.9233 26.4601 43.8744 26.4408L43.5813 26.3251L43.3806 26.5681C43.3471 26.6086 43.2813 26.5826 43.2846 26.5301L43.304 26.2156L43.0109 26.0998C42.962 26.0805 42.9664 26.0099 43.0173 25.9967L43.3225 25.9181L43.342 25.6036C43.3453 25.5511 43.4138 25.5335 43.442 25.5778Z" fill="black"/>
<path d="M30.0846 29.0206L30.2537 29.2866L30.5589 29.2079C30.6099 29.1948 30.6478 29.2545 30.6143 29.295L30.4137 29.538L30.5828 29.8039C30.611 29.8483 30.566 29.9029 30.517 29.8836L30.2239 29.7678L30.0232 30.0108C29.9897 30.0513 29.9239 30.0254 29.9271 29.9729L29.9466 29.6583L29.6535 29.5426C29.6046 29.5232 29.6089 29.4526 29.6599 29.4395L29.9651 29.3608L29.9846 29.0463C29.9879 28.9939 30.0564 28.9762 30.0846 29.0206Z" fill="black"/>
<path d="M39.4044 52.5924L39.4354 52.0928L39.9202 51.9678C40.0011 51.9469 40.0081 51.8347 39.9304 51.804L39.4647 51.6201L39.4956 51.1204C39.5008 51.0369 39.3962 50.9957 39.343 51.0602L39.0243 51.4462L38.5585 51.2624C38.4808 51.2316 38.4092 51.3184 38.454 51.3889L38.7227 51.8114L38.4039 52.1975C38.3507 52.2619 38.411 52.3568 38.4919 52.3359L38.9768 52.211L39.2454 52.6334C39.2904 52.704 39.3993 52.6759 39.4044 52.5924Z" fill="black"/>
<path d="M43.3988 52.9233L43.4626 51.8955L44.4597 51.6385C44.5407 51.6177 44.5477 51.5055 44.4699 51.4748L43.5121 51.0965L43.5758 50.0687C43.581 49.9853 43.4764 49.9441 43.4232 50.0085L42.7675 50.8025L41.8097 50.4243C41.732 50.3936 41.6604 50.4803 41.7052 50.5508L42.2578 51.4198L41.6021 52.2139C41.5489 52.2783 41.6092 52.3732 41.6902 52.3523L42.6874 52.0953L43.24 52.9642C43.2848 53.0348 43.3937 53.0067 43.3988 52.9233Z" fill="black"/>
<path d="M46.736 50.7029L46.767 50.2031L47.2518 50.0781C47.3326 50.0573 47.3397 49.9451 47.2619 49.9144L46.7962 49.7305L46.8272 49.2307C46.8324 49.1474 46.7278 49.106 46.6745 49.1705L46.3557 49.5566L45.8901 49.3727C45.8123 49.3421 45.7407 49.4287 45.7856 49.4993L46.0542 49.9217L45.7354 50.3078C45.6823 50.3722 45.7426 50.4672 45.8234 50.4463L46.3083 50.3213L46.5769 50.7438C46.6219 50.8143 46.7308 50.7862 46.736 50.7029Z" fill="black"/>
<path d="M49.5794 49.3899L49.5989 49.0754L49.9041 48.9967C49.955 48.9836 49.9594 48.9129 49.9105 48.8936L49.6174 48.7778L49.6368 48.4634C49.6401 48.4108 49.5743 48.3848 49.5408 48.4254L49.3401 48.6684L49.047 48.5526C48.998 48.5333 48.953 48.5879 48.9812 48.6323L49.1503 48.8982L48.9497 49.1412C48.9162 49.1818 48.9542 49.2414 49.0051 49.2283L49.3102 49.1497L49.4793 49.4156C49.5077 49.4601 49.5762 49.4424 49.5794 49.3899Z" fill="black"/>
<path d="M36.222 52.8327L36.2414 52.5182L36.5466 52.4395C36.5976 52.4263 36.602 52.3556 36.553 52.3364L36.2599 52.2206L36.2794 51.9061C36.2827 51.8536 36.2169 51.8276 36.1834 51.8681L35.9827 52.1111L35.6896 51.9954C35.6407 51.976 35.5956 52.0306 35.6238 52.075L35.7929 52.3409L35.5923 52.5839C35.5587 52.6245 35.5967 52.6843 35.6477 52.6711L35.9528 52.5924L36.1219 52.8584C36.1501 52.9028 36.2187 52.8851 36.222 52.8327Z" fill="black"/>
<path d="M34.5372 37.3836L30.7896 38.3495C30.3669 38.4584 30.1125 38.8895 30.2215 39.3122L32.3963 47.7504C32.5052 48.1731 32.9363 48.4275 33.359 48.3185L37.1065 47.3526C37.5293 47.2437 37.7837 46.8126 37.6746 46.3899L35.4998 37.9517C35.3909 37.529 34.9599 37.2747 34.5372 37.3836ZM34.8634 46.3712C34.446 46.4788 34.0204 46.2276 33.9128 45.8102C33.8052 45.3928 34.0564 44.9672 34.4738 44.8596C34.8912 44.7521 35.3168 45.0032 35.4244 45.4206C35.5321 45.8381 35.2809 46.2637 34.8634 46.3712Z" fill="black"/>
<path d="M46.7533 34.2303L42.3458 35.3663C42.3117 35.375 42.2786 35.3855 42.2459 35.3968L40.4043 35.8714C40.2436 35.9128 40.0925 35.7771 40.1165 35.6129L40.4743 33.1654C40.5855 32.4055 40.5439 31.631 40.3523 30.8873C40.165 30.1608 39.4243 29.7236 38.6978 29.9109C38.0287 30.0833 37.9242 30.646 38.0203 31.3304C38.1409 32.1898 37.7037 33.1506 37.3769 33.9546L36.2445 36.7406C36.1846 36.8878 36.1737 37.0503 36.2134 37.2042L38.5369 46.2193C38.639 46.6152 39.0427 46.8536 39.4387 46.7515L44.377 45.4788C44.3773 45.4787 44.3776 45.4786 44.3779 45.4785L47.3522 44.7118C48.0407 44.5344 48.455 43.8324 48.2776 43.1438C48.1002 42.4554 47.3981 42.041 46.7096 42.2185L47.3668 42.0491C48.0553 41.8717 48.4696 41.1696 48.2922 40.4811C48.1148 39.7925 47.4128 39.3783 46.7242 39.5557L47.3814 39.3863C48.0699 39.2088 48.4842 38.5068 48.3068 37.8183C48.1294 37.1298 47.4273 36.7155 46.7388 36.893L47.396 36.7236C48.0845 36.5461 48.4988 35.8441 48.3214 35.1556C48.1438 34.4671 47.4419 34.0528 46.7533 34.2303Z" fill="black"/>
<path d="M19.6738 28.5416L20.532 27.1459C20.9744 26.4264 21.4838 26.2108 22.0306 26.547C22.3999 26.7741 22.5317 27.0865 22.4102 27.5207L22.4245 27.5296C22.7442 27.1709 23.1311 27.0254 23.6059 27.3174C24.1287 27.6389 24.3038 28.2356 23.7906 29.0702L22.8971 30.5235L19.6738 28.5416ZM21.7553 28.1558C21.9086 27.9063 21.9122 27.664 21.6244 27.487C21.3558 27.3218 21.1667 27.4038 20.9985 27.6772L20.7921 28.013L21.5547 28.4819L21.7553 28.1558ZM23.0905 28.8974C23.2615 28.6193 23.2352 28.3718 22.9523 28.1978C22.674 28.0267 22.4539 28.1161 22.2652 28.423L22.0439 28.7827L22.8545 29.2812L23.0905 28.8974Z" fill="white"/>
<path d="M21.9819 25.0351L23.7209 23.0854L24.2881 23.5914L23.2463 24.7595L23.7841 25.2392L24.5974 24.3274L25.152 24.8222L24.3388 25.734L24.9355 26.2661L26.011 25.0602L26.5783 25.5661L24.8057 27.5536L21.9819 25.0351Z" fill="white"/>
<path d="M26.7242 25.205L26.2403 24.6043C26.581 24.4888 26.9051 24.3434 27.2471 24.0679C27.576 23.803 27.6218 23.5997 27.4806 23.4243C27.3428 23.2533 27.2258 23.2607 26.8949 23.4333L26.6403 23.5661C26.1005 23.8564 25.6495 23.8799 25.1513 23.2616C24.7028 22.7048 24.756 22.0618 25.5013 21.4613C25.9706 21.0833 26.2551 20.9697 26.4976 20.9117L26.9745 21.5037C26.7119 21.5996 26.4011 21.7343 26.0678 22.0028C25.8003 22.2183 25.7315 22.4111 25.8693 22.5821C25.9929 22.7356 26.1301 22.7263 26.4312 22.5705L26.6822 22.4334C27.2853 22.1138 27.7363 22.0903 28.2167 22.6867C28.7254 23.3181 28.5975 23.9851 27.8346 24.5998C27.4224 24.9318 27.0266 25.1494 26.7242 25.205Z" fill="white"/>
<path d="M28.5246 20.3533L27.6564 20.8426L27.2832 20.1804L29.9416 18.6821L30.3149 19.3444L29.4516 19.8309L30.9361 22.4648L30.009 22.9873L28.5246 20.3533Z" fill="white"/>
<path d="M32.8643 19.5972L32.8298 19.4724C32.4617 18.143 33.1212 17.423 34.125 17.1451C34.5808 17.0189 34.8834 16.9935 35.1181 17.0395L35.3239 17.7829C35.0844 17.7616 34.8592 17.7714 34.5445 17.8585C33.9585 18.0207 33.7071 18.4 33.9009 19.0999L33.9459 19.2628C34.1382 19.9573 34.4767 20.2726 35.1495 20.0863C35.5186 19.9841 35.7362 19.8421 35.8997 19.715L36.101 20.4421C35.8829 20.6252 35.5961 20.7922 35.1294 20.9214C34.0226 21.2278 33.2068 20.8344 32.8643 19.5972Z" fill="white"/>
<path d="M36.2417 16.7131L37.2964 16.624L37.4192 18.0771L38.603 17.977L38.4802 16.5239L39.5406 16.4343L39.8591 20.2045L38.7987 20.2941L38.6669 18.7344L37.4832 18.8344L37.6149 20.3941L36.5601 20.4832L36.2417 16.7131Z" fill="white"/>
<path d="M40.5214 18.3903L40.5366 18.2674C40.702 16.9319 41.6366 16.486 42.5978 16.605C43.598 16.7289 44.3286 17.381 44.1659 18.6942L44.1507 18.8171C43.9853 20.1526 43.0507 20.5986 42.0895 20.4796C41.0837 20.355 40.3587 19.7035 40.5214 18.3903ZM43.0359 18.7472L43.0595 18.5572C43.1564 17.7749 42.9723 17.4287 42.4806 17.3678C42.0167 17.3104 41.7343 17.6215 41.6464 18.3312L41.6229 18.5212C41.5225 19.3314 41.7261 19.6573 42.2066 19.7168C42.6649 19.7735 42.9474 19.4624 43.0359 18.7472Z" fill="white"/>
<path d="M45.4159 17.1965L46.4402 17.4851L45.4144 21.1272L44.3901 20.8387L45.4159 17.1965Z" fill="white"/>
<path d="M46.6126 19.5641L46.6635 19.4451C47.2063 18.177 48.171 18.0265 49.1286 18.4364C49.5634 18.6225 49.8155 18.7917 49.9701 18.9742L49.6666 19.6833C49.4928 19.5171 49.3109 19.3841 49.0106 19.2555C48.4517 19.0163 48.0185 19.1554 47.7327 19.8232L47.6663 19.9784C47.3826 20.6409 47.4501 21.0985 48.0919 21.3733C48.4438 21.5239 48.7026 21.549 48.9096 21.5518L48.6127 22.2454C48.3281 22.2522 47.9999 22.2035 47.5547 22.013C46.4988 21.561 46.1073 20.7442 46.6126 19.5641Z" fill="white"/>
<path d="M50.9823 19.4084L53.1824 20.8173L52.7724 21.4574L51.4543 20.6133L51.0657 21.2202L52.0946 21.8791L51.6938 22.5049L50.6649 21.846L50.2337 22.5193L51.5945 23.3908L51.1845 24.0309L48.9419 22.5947L50.9823 19.4084Z" fill="white"/>
<path d="M59.8517 49.6776L58.9935 51.0735C58.5511 51.793 58.0418 52.0085 57.4949 51.6723C57.1256 51.4452 56.9938 51.1329 57.1154 50.6986L57.101 50.6898C56.7813 51.0484 56.3944 51.1939 55.9196 50.902C55.3968 50.5804 55.2217 49.9837 55.7349 49.1491L56.6285 47.6958L59.8517 49.6776ZM56.435 49.3219C56.264 49.6 56.2903 49.8475 56.5732 50.0215C56.8515 50.1926 57.0716 50.1032 57.2604 49.7963L57.4816 49.4365L56.671 48.9381L56.435 49.3219ZM57.7703 50.0635C57.6169 50.313 57.6133 50.5553 57.9011 50.7323C58.1697 50.8974 58.3589 50.8154 58.527 50.542L58.7334 50.2063L57.9708 49.7373L57.7703 50.0635Z" fill="white"/>
<path d="M57.5436 53.1842L55.8047 55.1339L55.2374 54.628L56.2793 53.4599L55.7415 52.9802L54.9282 53.892L54.3736 53.3973L55.1868 52.4855L54.5901 51.9533L53.5145 53.1593L52.9473 52.6533L54.7198 50.6658L57.5436 53.1842Z" fill="white"/>
<path d="M52.8009 53.0143L53.2849 53.615C52.9441 53.7305 52.6201 53.8758 52.278 54.1513C51.9492 54.4163 51.9033 54.6195 52.0446 54.7949C52.1823 54.966 52.2993 54.9586 52.6302 54.786L52.8848 54.6532C53.4246 54.3629 53.8756 54.3394 54.3737 54.9576C54.8224 55.5145 54.7692 56.1575 54.0237 56.7581C53.5545 57.136 53.2701 57.2495 53.0276 57.3075L52.5506 56.7155C52.8133 56.6197 53.1241 56.485 53.4574 56.2165C53.7248 56.001 53.7936 55.8081 53.6558 55.6372C53.5323 55.4837 53.3951 55.493 53.094 55.6488L52.8429 55.786C52.2399 56.1055 51.7889 56.129 51.3084 55.5327C50.7997 54.9013 50.9276 54.2342 51.6905 53.6196C52.1027 53.2875 52.4986 53.0698 52.8009 53.0143Z" fill="white"/>
<path d="M51.0009 57.8658L51.8691 57.3766L52.2422 58.0388L49.5838 59.5371L49.2105 58.8748L50.0738 58.3883L48.5894 55.7543L49.5164 55.2318L51.0009 57.8658Z" fill="white"/>
<path d="M46.6606 58.6221L46.695 58.7469C47.0631 60.0763 46.4036 60.7964 45.3998 61.0743C44.944 61.2005 44.6414 61.2258 44.4067 61.1798L44.2009 60.4364C44.4405 60.4577 44.6656 60.448 44.9803 60.3609C45.5664 60.1987 45.8177 59.8194 45.6239 59.1195L45.5789 58.9567C45.3866 58.2621 45.0481 57.9468 44.3753 58.1331C44.0062 58.2353 43.7886 58.3773 43.6252 58.5044L43.4238 57.7773C43.6419 57.5942 43.9287 57.4272 44.3954 57.298C45.5022 56.9916 46.318 57.3849 46.6606 58.6221Z" fill="white"/>
<path d="M43.2835 61.5062L42.2287 61.5953L42.1059 60.1422L40.9221 60.2422L41.0449 61.6953L39.9846 61.785L39.666 58.0147L40.7264 57.9252L40.8582 59.4849L42.042 59.3848L41.9102 57.8251L42.965 57.7361L43.2835 61.5062Z" fill="white"/>
<path d="M39.0037 59.829L38.9885 59.9519C38.823 61.2874 37.8885 61.7334 36.9273 61.6144C35.9271 61.4905 35.1965 60.8383 35.3591 59.5251L35.3743 59.4022C35.5398 58.0667 36.4743 57.6208 37.4355 57.7398C38.4414 57.8644 39.1663 58.5158 39.0037 59.829ZM36.4891 59.4721L36.4655 59.6622C36.3687 60.4445 36.5527 60.7907 37.0445 60.8515C37.5083 60.909 37.7908 60.5978 37.8787 59.8882L37.9022 59.6982C38.0026 58.888 37.799 58.5621 37.3184 58.5025C36.8602 58.4458 36.5777 58.7569 36.4891 59.4721Z" fill="white"/>
<path d="M34.1098 61.0227L33.0854 60.7342L34.1112 57.0922L35.1355 57.3806L34.1098 61.0227Z" fill="white"/>
<path d="M32.9128 58.6552L32.8618 58.7742C32.319 60.0423 31.3543 60.1928 30.3967 59.783C29.9619 59.5967 29.7098 59.4276 29.5552 59.2451L29.8587 58.5359C30.0325 58.7022 30.2144 58.8352 30.5147 58.9638C31.0736 59.2031 31.5068 59.0639 31.7926 58.3962L31.859 58.2409C32.1427 57.5785 32.0752 57.1208 31.4334 56.8461C31.0815 56.6954 30.8227 56.6704 30.6157 56.6675L30.9126 55.9739C31.1972 55.9671 31.5254 56.0158 31.9706 56.2064C33.0266 56.6584 33.418 57.4752 32.9128 58.6552Z" fill="white"/>
<path d="M28.5433 58.8111L26.3433 57.4022L26.7532 56.762L28.0713 57.6062L28.46 56.9993L27.4311 56.3405L27.8318 55.7146L28.8607 56.3735L29.2919 55.7002L27.9312 54.8287L28.341 54.1886L30.5837 55.6248L28.5433 58.8111Z" fill="white"/>
</g>
</svg>
