<svg width="601" height="159" viewBox="0 0 601 159" fill="none" xmlns="http://www.w3.org/2000/svg">
<path fill-rule="evenodd" clip-rule="evenodd" d="M600.913 79.4646C600.913 35.8343 565.658 0.465088 522.167 0.465088C442.722 0.465088 159.103 0.465088 79.6578 0.465088C58.7728 0.465088 38.7438 8.78769 23.976 23.6033C9.20937 38.419 0.912598 58.514 0.912598 79.4646C0.912598 123.095 36.1674 158.465 79.6578 158.465C159.103 158.465 442.721 158.465 522.166 158.465C565.658 158.466 600.913 123.096 600.913 79.4646Z" fill="#262254"/>
<path fill-rule="evenodd" clip-rule="evenodd" d="M522.956 22C554.39 22 579.912 47.6032 579.912 79.1406C579.912 110.678 554.391 136.282 522.956 136.282C491.52 136.282 466 110.679 466 79.1406C466 47.6032 491.522 22 522.956 22Z" fill="#FDB927"/>
<path fill-rule="evenodd" clip-rule="evenodd" d="M515.078 121.761L553.595 83.1179C555.785 80.9216 555.785 77.3595 553.595 75.1621L515.078 36.52C512.889 34.3247 509.336 34.3247 507.147 36.52C504.959 38.7153 504.959 42.2805 507.147 44.4758L541.7 79.1406C531.867 89.0069 507.147 113.806 507.147 113.806C504.959 116.002 504.959 119.567 507.147 121.762C509.336 123.957 512.889 123.956 515.078 121.761Z" fill="#262254"/>
<path d="M61.0824 73V32.2727H78.0653C81.1146 32.2727 83.6667 32.7036 85.7216 33.5653C87.7898 34.4271 89.3409 35.6335 90.375 37.1847C91.4223 38.7358 91.946 40.5322 91.946 42.5739C91.946 44.125 91.6212 45.5104 90.9716 46.7301C90.322 47.9366 89.4271 48.9375 88.2869 49.733C87.1468 50.5284 85.8277 51.0852 84.3295 51.4034V51.8011C85.9735 51.8807 87.4915 52.3248 88.8835 53.1335C90.2888 53.9422 91.4157 55.0691 92.2642 56.5142C93.1127 57.946 93.5369 59.643 93.5369 61.6051C93.5369 63.7926 92.9801 65.7481 91.8665 67.4716C90.7528 69.1818 89.142 70.5341 87.0341 71.5284C84.9261 72.5095 82.3674 73 79.358 73H61.0824ZM70.9261 65.0653H77.0114C79.1458 65.0653 80.7169 64.661 81.7244 63.8523C82.7453 63.0436 83.2557 61.9167 83.2557 60.4716C83.2557 59.4242 83.0104 58.5227 82.5199 57.767C82.0294 56.9981 81.3333 56.4081 80.4318 55.9972C79.5303 55.5729 78.4498 55.3608 77.1903 55.3608H70.9261V65.0653ZM70.9261 49.017H76.375C77.4489 49.017 78.4034 48.8381 79.2386 48.4801C80.0739 48.1222 80.7235 47.6051 81.1875 46.929C81.6648 46.2528 81.9034 45.4375 81.9034 44.483C81.9034 43.1174 81.4195 42.0436 80.4517 41.2614C79.4839 40.4792 78.178 40.0881 76.5341 40.0881H70.9261V49.017ZM122.909 32.2727H132.733V58.5426C132.733 61.5786 132.01 64.2235 130.565 66.4773C129.12 68.7178 127.105 70.4545 124.52 71.6875C121.935 72.9072 118.932 73.517 115.511 73.517C112.051 73.517 109.028 72.9072 106.443 71.6875C103.858 70.4545 101.849 68.7178 100.418 66.4773C98.9858 64.2235 98.2699 61.5786 98.2699 58.5426V32.2727H108.114V57.6875C108.114 59.0928 108.419 60.3456 109.028 61.446C109.652 62.5464 110.52 63.4081 111.634 64.0312C112.747 64.6544 114.04 64.9659 115.511 64.9659C116.983 64.9659 118.269 64.6544 119.369 64.0312C120.483 63.4081 121.351 62.5464 121.974 61.446C122.598 60.3456 122.909 59.0928 122.909 57.6875V32.2727ZM136.874 32.2727H147.871L156.482 49.3153H156.84L165.451 32.2727H176.448L161.553 59.3977V73H151.769V59.3977L136.874 32.2727ZM192.606 73V32.2727H202.45V65.0057H219.393V73H192.606ZM261.343 52.6364C261.343 57.1174 260.481 60.9157 258.758 64.0312C257.034 67.1468 254.701 69.5133 251.758 71.1307C248.828 72.7481 245.54 73.5568 241.894 73.5568C238.235 73.5568 234.941 72.7415 232.011 71.1108C229.081 69.4801 226.754 67.1136 225.031 64.0114C223.32 60.8958 222.465 57.1042 222.465 52.6364C222.465 48.1553 223.32 44.357 225.031 41.2415C226.754 38.1259 229.081 35.7595 232.011 34.142C234.941 32.5246 238.235 31.7159 241.894 31.7159C245.54 31.7159 248.828 32.5246 251.758 34.142C254.701 35.7595 257.034 38.1259 258.758 41.2415C260.481 44.357 261.343 48.1553 261.343 52.6364ZM251.281 52.6364C251.281 49.9848 250.903 47.7443 250.147 45.9148C249.405 44.0852 248.331 42.6998 246.925 41.7585C245.533 40.8172 243.856 40.3466 241.894 40.3466C239.945 40.3466 238.268 40.8172 236.863 41.7585C235.458 42.6998 234.377 44.0852 233.621 45.9148C232.879 47.7443 232.508 49.9848 232.508 52.6364C232.508 55.2879 232.879 57.5284 233.621 59.358C234.377 61.1875 235.458 62.5729 236.863 63.5142C238.268 64.4555 239.945 64.9261 241.894 64.9261C243.856 64.9261 245.533 64.4555 246.925 63.5142C248.331 62.5729 249.405 61.1875 250.147 59.358C250.903 57.5284 251.281 55.2879 251.281 52.6364ZM263.898 40.267V32.2727H298.322V40.267H285.972V73H276.268V40.267H263.898ZM301.797 40.267V32.2727H336.22V40.267H323.871V73H314.166V40.267H301.797ZM341.028 73V32.2727H369.425V40.267H350.871V48.6193H367.974V56.6335H350.871V65.0057H369.425V73H341.028ZM375.59 73V32.2727H392.414C395.463 32.2727 398.095 32.8229 400.309 33.9233C402.536 35.0104 404.253 36.5748 405.46 38.6165C406.666 40.6449 407.269 43.0511 407.269 45.8352C407.269 48.6591 406.653 51.0587 405.42 53.0341C404.187 54.9962 402.437 56.4943 400.17 57.5284C397.903 58.5492 395.218 59.0597 392.116 59.0597H381.477V51.304H390.286C391.771 51.304 393.011 51.1117 394.005 50.7273C395.013 50.3295 395.775 49.733 396.292 48.9375C396.809 48.1288 397.067 47.0947 397.067 45.8352C397.067 44.5758 396.809 43.535 396.292 42.7131C395.775 41.8778 395.013 41.2547 394.005 40.8438C392.997 40.4195 391.758 40.2074 390.286 40.2074H385.434V73H375.59ZM398.519 54.3864L408.661 73H397.923L387.979 54.3864H398.519ZM408.835 32.2727H419.832L428.443 49.3153H428.801L437.412 32.2727H448.409L433.514 59.3977V73H423.73V59.3977L408.835 32.2727ZM99.5227 108.636C99.5227 113.117 98.661 116.916 96.9375 120.031C95.214 123.147 92.8807 125.513 89.9375 127.131C87.0076 128.748 83.7197 129.557 80.0739 129.557C76.4148 129.557 73.1203 128.741 70.1903 127.111C67.2604 125.48 64.9337 123.114 63.2102 120.011C61.5 116.896 60.6449 113.104 60.6449 108.636C60.6449 104.155 61.5 100.357 63.2102 97.2415C64.9337 94.1259 67.2604 91.7595 70.1903 90.142C73.1203 88.5246 76.4148 87.7159 80.0739 87.7159C83.7197 87.7159 87.0076 88.5246 89.9375 90.142C92.8807 91.7595 95.214 94.1259 96.9375 97.2415C98.661 100.357 99.5227 104.155 99.5227 108.636ZM89.4602 108.636C89.4602 105.985 89.0824 103.744 88.3267 101.915C87.5843 100.085 86.5104 98.6998 85.1051 97.7585C83.7131 96.8172 82.036 96.3466 80.0739 96.3466C78.125 96.3466 76.4479 96.8172 75.0426 97.7585C73.6373 98.6998 72.5568 100.085 71.8011 101.915C71.0587 103.744 70.6875 105.985 70.6875 108.636C70.6875 111.288 71.0587 113.528 71.8011 115.358C72.5568 117.187 73.6373 118.573 75.0426 119.514C76.4479 120.455 78.125 120.926 80.0739 120.926C82.036 120.926 83.7131 120.455 85.1051 119.514C86.5104 118.573 87.5843 117.187 88.3267 115.358C89.0824 113.528 89.4602 111.288 89.4602 108.636ZM139.932 88.2727V129H131.58L115.372 105.494H115.114V129H105.27V88.2727H113.741L129.77 111.739H130.108V88.2727H139.932ZM146.121 129V88.2727H155.965V121.006H172.908V129H146.121ZM187.848 88.2727V129H178.004V88.2727H187.848ZM228.69 88.2727V129H220.337L204.13 105.494H203.871V129H194.028V88.2727H202.499L218.528 111.739H218.866V88.2727H228.69ZM234.879 129V88.2727H263.277V96.267H244.723V104.619H261.825V112.634H244.723V121.006H263.277V129H234.879Z" fill="white"/>
</svg>
