<svg width="328" height="87" viewBox="0 0 328 87" fill="none" xmlns="http://www.w3.org/2000/svg">
<g clip-path="url(#clip0_761_36)">
<path fill-rule="evenodd" clip-rule="evenodd" d="M327.953 43.4807C327.953 19.6075 308.712 0.254517 284.976 0.254517C241.619 0.254517 86.8316 0.254517 43.4738 0.254517C32.0757 0.254517 21.1447 4.80839 13.0851 12.915C5.02607 21.0218 0.498047 32.0171 0.498047 43.4807C0.498047 67.3539 19.7386 86.7073 43.4738 86.7073C86.8316 86.7073 241.618 86.7073 284.976 86.7073C308.712 86.7078 327.953 67.3544 327.953 43.4807Z" fill="#262254"/>
<path fill-rule="evenodd" clip-rule="evenodd" d="M285.407 12.0377C302.563 12.0377 316.492 26.047 316.492 43.3033C316.492 60.5596 302.563 74.5694 285.407 74.5694C268.251 74.5694 254.323 60.5602 254.323 43.3033C254.323 26.047 268.252 12.0377 285.407 12.0377Z" fill="#FDB927"/>
<path fill-rule="evenodd" clip-rule="evenodd" d="M281.108 66.624L302.129 45.4797C303.324 44.2779 303.324 42.3288 302.129 41.1265L281.108 19.9827C279.913 18.7815 277.974 18.7815 276.779 19.9827C275.585 21.1839 275.585 23.1347 276.779 24.3359L295.637 43.3034C290.27 48.7019 276.779 62.2713 276.779 62.2713C275.585 63.4728 275.585 65.4235 276.779 66.6245C277.974 67.8256 279.913 67.825 281.108 66.624Z" fill="#262254"/>
<path d="M33.3364 39.9434V17.6587H42.605C44.2691 17.6587 45.662 17.8944 46.7834 18.3659C47.9122 18.8375 48.7587 19.4976 49.3231 20.3464C49.8946 21.1951 50.1805 22.178 50.1805 23.2952C50.1805 24.1439 50.0032 24.9019 49.6487 25.5693C49.2941 26.2295 48.8057 26.7771 48.1835 27.2124C47.5613 27.6476 46.8413 27.9523 46.0237 28.1264V28.344C46.9209 28.3876 47.7494 28.6306 48.5091 29.0731C49.276 29.5156 49.891 30.1322 50.3541 30.9229C50.8172 31.7063 51.0487 32.6349 51.0487 33.7085C51.0487 34.9054 50.7448 35.9754 50.1371 36.9184C49.5293 37.8542 48.6502 38.5941 47.4997 39.1382C46.3493 39.675 44.9529 39.9434 43.3105 39.9434H33.3364ZM38.7087 35.6018H42.0298C43.1947 35.6018 44.0521 35.3806 44.6019 34.9381C45.1591 34.4956 45.4377 33.879 45.4377 33.0883C45.4377 32.5151 45.3038 32.0219 45.0361 31.6084C44.7684 31.1877 44.3885 30.8648 43.8965 30.64C43.4045 30.4078 42.8148 30.2918 42.1274 30.2918H38.7087V35.6018ZM38.7087 26.8206H41.6825C42.2686 26.8206 42.7895 26.7228 43.2453 26.5269C43.7012 26.331 44.0557 26.0481 44.3089 25.6782C44.5694 25.3082 44.6996 24.862 44.6996 24.3398C44.6996 23.5926 44.4355 23.005 43.9074 22.577C43.3792 22.149 42.6665 21.935 41.7693 21.935H38.7087V26.8206ZM67.0787 17.6587H72.4402V32.0328C72.4402 33.694 72.0457 35.1412 71.257 36.3744C70.4684 37.6003 69.3687 38.5506 67.9579 39.2253C66.5472 39.8926 64.9083 40.2263 63.0412 40.2263C61.1529 40.2263 59.5031 39.8926 58.0923 39.2253C56.6815 38.5506 55.5851 37.6003 54.8041 36.3744C54.0225 35.1412 53.6318 33.694 53.6318 32.0328V17.6587H59.0043V31.5649C59.0043 32.3338 59.1707 33.0193 59.5031 33.6214C59.8436 34.2235 60.3173 34.695 60.9253 35.036C61.5327 35.377 62.2384 35.5474 63.0412 35.5474C63.8446 35.5474 64.5464 35.377 65.1467 35.036C65.7547 34.695 66.2284 34.2235 66.5684 33.6214C66.909 33.0193 67.0787 32.3338 67.0787 31.5649V17.6587ZM74.7002 17.6587H80.7019L85.4014 26.9839H85.5968L90.2963 17.6587H96.298L88.169 32.5006V39.9434H82.8293V32.5006L74.7002 17.6587ZM105.116 39.9434V17.6587H110.489V35.5692H119.736V39.9434H105.116ZM142.63 28.8011C142.63 31.2529 142.16 33.3313 141.219 35.036C140.278 36.7407 139.005 38.0356 137.399 38.9206C135.8 39.8056 134.005 40.2481 132.016 40.2481C130.019 40.2481 128.221 39.802 126.622 38.9097C125.023 38.0174 123.753 36.7226 122.813 35.0251C121.879 33.3204 121.412 31.2457 121.412 28.8011C121.412 26.3491 121.879 24.2708 122.813 22.5661C123.753 20.8614 125.023 19.5665 126.622 18.6815C128.221 17.7965 130.019 17.354 132.016 17.354C134.005 17.354 135.8 17.7965 137.399 18.6815C139.005 19.5665 140.278 20.8614 141.219 22.5661C142.16 24.2708 142.63 26.3491 142.63 28.8011ZM137.139 28.8011C137.139 27.3502 136.932 26.1243 136.52 25.1232C136.115 24.1221 135.529 23.3641 134.761 22.849C134.002 22.334 133.086 22.0765 132.016 22.0765C130.952 22.0765 130.037 22.334 129.27 22.849C128.503 23.3641 127.913 24.1221 127.501 25.1232C127.096 26.1243 126.893 27.3502 126.893 28.8011C126.893 30.2519 127.096 31.4778 127.501 32.4789C127.913 33.48 128.503 34.238 129.27 34.7531C130.037 35.2681 130.952 35.5256 132.016 35.5256C133.086 35.5256 134.002 35.2681 134.761 34.7531C135.529 34.238 136.115 33.48 136.52 32.4789C136.932 31.4778 137.139 30.2519 137.139 28.8011ZM144.024 22.0329V17.6587H162.812V22.0329H156.072V39.9434H150.775V22.0329H144.024ZM164.708 22.0329V17.6587H183.495V22.0329H176.755V39.9434H171.459V22.0329H164.708ZM186.119 39.9434V17.6587H201.617V22.0329H191.491V26.603H200.825V30.9882H191.491V35.5692H201.617V39.9434H186.119ZM204.981 39.9434V17.6587H214.163C215.827 17.6587 217.263 17.9597 218.472 18.5618C219.687 19.1567 220.624 20.0126 221.283 21.1298C221.941 22.2397 222.27 23.5563 222.27 25.0797C222.27 26.6248 221.934 27.9378 221.261 29.0187C220.588 30.0923 219.633 30.912 218.396 31.4778C217.159 32.0364 215.693 32.3157 214 32.3157H208.194V28.072H213.002C213.812 28.072 214.489 27.9668 215.031 27.7565C215.581 27.5388 215.997 27.2124 216.279 26.7771C216.562 26.3346 216.702 25.7688 216.702 25.0797C216.702 24.3906 216.562 23.8211 216.279 23.3713C215.997 22.9143 215.581 22.5733 215.031 22.3485C214.481 22.1164 213.805 22.0003 213.002 22.0003H210.354V39.9434H204.981ZM217.495 29.7586L223.03 39.9434H217.17L211.743 29.7586H217.495ZM223.125 17.6587H229.127L233.826 26.9839H234.021L238.721 17.6587H244.723L236.594 32.5006V39.9434H231.254V32.5006L223.125 17.6587ZM54.3155 59.4424C54.3155 61.8942 53.8452 63.9729 52.9046 65.6774C51.964 67.3823 50.6906 68.6769 49.0843 69.5623C47.4853 70.447 45.6909 70.8897 43.7012 70.8897C41.7042 70.8897 39.9062 70.4432 38.3071 69.5513C36.7081 68.6589 35.4383 67.3643 34.4977 65.6664C33.5643 63.962 33.0977 61.8871 33.0977 59.4424C33.0977 56.9905 33.5643 54.9123 34.4977 53.2076C35.4383 51.5029 36.7081 50.208 38.3071 49.323C39.9062 48.438 41.7042 47.9955 43.7012 47.9955C45.6909 47.9955 47.4853 48.438 49.0843 49.323C50.6906 50.208 51.964 51.5029 52.9046 53.2076C53.8452 54.9123 54.3155 56.9905 54.3155 59.4424ZM48.8238 59.4424C48.8238 57.9918 48.6176 56.7656 48.2052 55.7648C47.8 54.7635 47.2139 54.0056 46.447 53.4905C45.6873 52.9755 44.772 52.718 43.7012 52.718C42.6375 52.718 41.7223 52.9755 40.9553 53.4905C40.1884 54.0056 39.5987 54.7635 39.1862 55.7648C38.7811 56.7656 38.5785 57.9918 38.5785 59.4424C38.5785 60.8935 38.7811 62.1191 39.1862 63.1204C39.5987 64.1212 40.1884 64.8796 40.9553 65.3945C41.7223 65.9094 42.6375 66.1671 43.7012 66.1671C44.772 66.1671 45.6873 65.9094 46.447 65.3945C47.2139 64.8796 47.8 64.1212 48.2052 63.1204C48.6176 62.1191 48.8238 60.8935 48.8238 59.4424ZM76.3692 48.3002V70.5849H71.811L62.9654 57.7232H62.8246V70.5849H57.4521V48.3002H62.0752L70.8232 61.1402H71.0076V48.3002H76.3692ZM79.7468 70.5849V48.3002H85.1193V66.2109H94.366V70.5849H79.7468ZM102.52 48.3002V70.5849H97.1472V48.3002H102.52ZM124.809 48.3002V70.5849H120.251L111.406 57.7232H111.264V70.5849H105.892V48.3002H110.516L119.263 61.1402H119.448V48.3002H124.809ZM128.187 70.5849V48.3002H143.686V52.6744H133.56V57.2444H142.893V61.6299H133.56V66.2109H143.686V70.5849H128.187Z" fill="white"/>
</g>
<defs>
<clipPath id="clip0_761_36">
<rect width="328" height="87" fill="white"/>
</clipPath>
</defs>
</svg>
