<svg width="600" height="159" viewBox="0 0 600 159" fill="none" xmlns="http://www.w3.org/2000/svg">
<path fill-rule="evenodd" clip-rule="evenodd" d="M600 79.2318C600 35.6018 564.745 0.23291 521.255 0.23291C441.81 0.23291 158.19 0.23291 78.7452 0.23291C57.8602 0.23291 37.8312 8.55546 23.0634 23.371C8.29677 38.1865 0 58.2815 0 79.2318C0 122.862 35.2548 158.232 78.7452 158.232C158.19 158.232 441.809 158.232 521.254 158.232C564.745 158.233 600 122.863 600 79.2318Z" fill="#FDB927"/>
<path fill-rule="evenodd" clip-rule="evenodd" d="M520.199 22C551.633 22 577.155 47.603 577.155 79.1402C577.155 110.677 551.635 136.282 520.199 136.282C488.764 136.282 463.243 110.679 463.243 79.1402C463.243 47.603 488.765 22 520.199 22Z" fill="white"/>
<path fill-rule="evenodd" clip-rule="evenodd" d="M512.32 121.761L550.837 83.1176C553.028 80.9213 553.028 77.3592 550.837 75.1618L512.32 36.52C510.132 34.3247 506.578 34.3247 504.39 36.52C502.202 38.7152 502.202 42.2805 504.39 44.4757L538.943 79.1403C529.11 89.0065 504.39 113.806 504.39 113.806C502.202 116.001 502.202 119.566 504.39 121.762C506.578 123.957 510.132 123.956 512.32 121.761Z" fill="#FDB927"/>
<path d="M75.1364 99.7766H60.0824V59.0493H75.1165C79.2661 59.0493 82.839 59.8647 85.8352 61.4954C88.8447 63.1128 91.1648 65.4461 92.7955 68.4954C94.4261 71.5313 95.2415 75.1639 95.2415 79.3931C95.2415 83.6355 94.4261 87.2813 92.7955 90.3306C91.178 93.3798 88.8646 95.7198 85.8551 97.3505C82.8456 98.9679 79.2727 99.7766 75.1364 99.7766ZM69.9261 91.3846H74.7585C77.0388 91.3846 78.9678 91.0001 80.5455 90.2312C82.1364 89.449 83.3362 88.1829 84.1449 86.4329C84.9669 84.6696 85.3778 82.323 85.3778 79.3931C85.3778 76.4632 84.9669 74.1298 84.1449 72.3931C83.3229 70.6431 82.1098 69.3836 80.5057 68.6147C78.9148 67.8325 76.9527 67.4414 74.6193 67.4414H69.9261V91.3846ZM139.429 79.413C139.429 83.894 138.567 87.6923 136.844 90.8079C135.12 93.9234 132.787 96.2899 129.844 97.9073C126.914 99.5247 123.626 100.333 119.98 100.333C116.321 100.333 113.027 99.5181 110.097 97.8874C107.167 96.2567 104.84 93.8902 103.116 90.788C101.406 87.6724 100.551 83.8808 100.551 79.413C100.551 74.9319 101.406 71.1336 103.116 68.0181C104.84 64.9026 107.167 62.5361 110.097 60.9187C113.027 59.3012 116.321 58.4925 119.98 58.4925C123.626 58.4925 126.914 59.3012 129.844 60.9187C132.787 62.5361 135.12 64.9026 136.844 68.0181C138.567 71.1336 139.429 74.9319 139.429 79.413ZM129.366 79.413C129.366 76.7615 128.989 74.5209 128.233 72.6914C127.491 70.8618 126.417 69.4764 125.011 68.5351C123.619 67.5938 121.942 67.1232 119.98 67.1232C118.031 67.1232 116.354 67.5938 114.949 68.5351C113.544 69.4764 112.463 70.8618 111.707 72.6914C110.965 74.5209 110.594 76.7615 110.594 79.413C110.594 82.0645 110.965 84.305 111.707 86.1346C112.463 87.9641 113.544 89.3495 114.949 90.2908C116.354 91.2321 118.031 91.7027 119.98 91.7027C121.942 91.7027 123.619 91.2321 125.011 90.2908C126.417 89.3495 127.491 87.9641 128.233 86.1346C128.989 84.305 129.366 82.0645 129.366 79.413ZM179.838 59.0493V99.7766H171.486L155.278 76.2709H155.02V99.7766H145.176V59.0493H153.648L169.676 82.5152H170.014V59.0493H179.838ZM194.837 99.7766H184.258L197.999 59.0493H211.104L224.846 99.7766H214.266L204.701 69.3107H204.383L194.837 99.7766ZM193.425 83.7482H215.539V91.2255H193.425V83.7482ZM222.812 67.0437V59.0493H257.236V67.0437H244.886V99.7766H235.182V67.0437H222.812ZM262.043 99.7766V59.0493H290.441V67.0437H271.887V75.3959H288.989V83.4101H271.887V91.7823H290.441V99.7766H262.043ZM343.299 59.0493V99.7766H334.947L318.739 76.2709H318.481V99.7766H308.637V59.0493H317.109L333.137 82.5152H333.475V59.0493H343.299ZM387.929 79.413C387.929 83.894 387.067 87.6923 385.344 90.8079C383.62 93.9234 381.287 96.2899 378.344 97.9073C375.414 99.5247 372.126 100.333 368.48 100.333C364.821 100.333 361.527 99.5181 358.597 97.8874C355.667 96.2567 353.34 93.8902 351.616 90.788C349.906 87.6724 349.051 83.8808 349.051 79.413C349.051 74.9319 349.906 71.1336 351.616 68.0181C353.34 64.9026 355.667 62.5361 358.597 60.9187C361.527 59.3012 364.821 58.4925 368.48 58.4925C372.126 58.4925 375.414 59.3012 378.344 60.9187C381.287 62.5361 383.62 64.9026 385.344 68.0181C387.067 71.1336 387.929 74.9319 387.929 79.413ZM377.866 79.413C377.866 76.7615 377.489 74.5209 376.733 72.6914C375.991 70.8618 374.917 69.4764 373.511 68.5351C372.119 67.5938 370.442 67.1232 368.48 67.1232C366.531 67.1232 364.854 67.5938 363.449 68.5351C362.044 69.4764 360.963 70.8618 360.207 72.6914C359.465 74.5209 359.094 76.7615 359.094 79.413C359.094 82.0645 359.465 84.305 360.207 86.1346C360.963 87.9641 362.044 89.3495 363.449 90.2908C364.854 91.2321 366.531 91.7027 368.48 91.7027C370.442 91.7027 372.119 91.2321 373.511 90.2908C374.917 89.3495 375.991 87.9641 376.733 86.1346C377.489 84.305 377.866 82.0645 377.866 79.413ZM401.417 99.7766L389.565 59.0493H400.442L406.587 85.7368H406.925L413.945 59.0493H422.815L429.835 85.7965H430.173L436.337 59.0493H447.195L435.363 99.7766H425.877L418.539 75.0777H418.221L410.883 99.7766H401.417Z" fill="white"/>
</svg>
