<svg width="328" height="87" viewBox="0 0 328 87" fill="none" xmlns="http://www.w3.org/2000/svg">
<g clip-path="url(#clip0_761_31)">
<path fill-rule="evenodd" clip-rule="evenodd" d="M328 43.3532C328 19.4802 308.727 0.127441 284.953 0.127441C241.523 0.127441 86.4772 0.127441 43.0474 0.127441C31.6302 0.127441 20.6811 4.68129 12.608 12.7879C4.53557 20.8945 0 31.8899 0 43.3532C0 67.2264 19.2726 86.5798 43.0474 86.5798C86.4772 86.5798 241.522 86.5798 284.952 86.5798C308.727 86.5803 328 67.2269 328 43.3532Z" fill="#FDB927"/>
<path fill-rule="evenodd" clip-rule="evenodd" d="M284.375 12.0377C301.559 12.0377 315.511 26.0469 315.511 43.3031C315.511 60.5591 301.56 74.5694 284.375 74.5694C267.191 74.5694 253.239 60.5602 253.239 43.3031C253.239 26.0469 267.191 12.0377 284.375 12.0377Z" fill="white"/>
<path fill-rule="evenodd" clip-rule="evenodd" d="M280.068 66.624L301.124 45.4795C302.322 44.2777 302.322 42.3287 301.124 41.1263L280.068 19.9827C278.872 18.7815 276.929 18.7815 275.733 19.9827C274.537 21.1838 274.537 23.1347 275.733 24.3358L294.622 43.3032C289.247 48.7017 275.733 62.2713 275.733 62.2713C274.537 63.4723 274.537 65.423 275.733 66.6245C276.929 67.8256 278.872 67.825 280.068 66.624Z" fill="#FDB927"/>
<path d="M41.0742 54.5948H32.8447V32.31H41.0634C43.3318 32.31 45.285 32.7562 46.9229 33.6485C48.5681 34.5335 49.8364 35.8102 50.7279 37.4787C51.6193 39.1398 52.065 41.1275 52.065 43.4415C52.065 45.7629 51.6193 47.7577 50.7279 49.4262C49.8437 51.0946 48.579 52.375 46.9338 53.2673C45.2886 54.1523 43.3354 54.5948 41.0742 54.5948ZM38.2259 50.0029H40.8677C42.1142 50.0029 43.1687 49.7925 44.0312 49.3718C44.9009 48.9438 45.5568 48.2511 45.9989 47.2935C46.4483 46.3287 46.6729 45.0447 46.6729 43.4415C46.6729 41.8384 46.4483 40.5616 45.9989 39.6114C45.5495 38.6538 44.8864 37.9647 44.0095 37.5439C43.1398 37.1159 42.0672 36.9019 40.7916 36.9019H38.2259V50.0029ZM76.2209 43.4524C76.2209 45.9043 75.7496 47.9826 74.8077 49.6874C73.8653 51.3921 72.5899 52.687 70.9811 53.572C69.3793 54.457 67.5819 54.8992 65.5887 54.8992C63.5885 54.8992 61.7878 54.4533 60.186 53.5611C58.5843 52.6688 57.3122 51.3739 56.3698 49.6765C55.435 47.9717 54.9676 45.8971 54.9676 43.4524C54.9676 41.0005 55.435 38.9222 56.3698 37.2175C57.3122 35.5128 58.5843 34.2179 60.186 33.3329C61.7878 32.4479 63.5885 32.0054 65.5887 32.0054C67.5819 32.0054 69.3793 32.4479 70.9811 33.3329C72.5899 34.2179 73.8653 35.5128 74.8077 37.2175C75.7496 38.9222 76.2209 41.0005 76.2209 43.4524ZM70.7198 43.4524C70.7198 42.0016 70.5137 40.7756 70.1004 39.7746C69.6948 38.7735 69.1076 38.0154 68.339 37.5004C67.5781 36.9853 66.6613 36.7278 65.5887 36.7278C64.5233 36.7278 63.6065 36.9853 62.8385 37.5004C62.0704 38.0154 61.4795 38.7735 61.0662 39.7746C60.6605 40.7756 60.4577 42.0016 60.4577 43.4524C60.4577 44.9033 60.6605 46.1292 61.0662 47.1303C61.4795 48.1313 62.0704 48.8894 62.8385 49.4044C63.6065 49.9195 64.5233 50.177 65.5887 50.177C66.6613 50.177 67.5781 49.9195 68.339 49.4044C69.1076 48.8894 69.6948 48.1313 70.1004 47.1303C70.5137 46.1292 70.7198 44.9033 70.7198 43.4524ZM98.3111 32.31V54.5948H93.7454L84.885 41.7332H84.744V54.5948H79.3626V32.31H83.9939L92.7559 45.1499H92.9407V32.31H98.3111ZM106.511 54.5948H100.727L108.239 32.31H115.403L122.915 54.5948H117.132L111.903 37.9248H111.729L106.511 54.5948ZM105.739 45.8245H117.828V49.9159H105.739V45.8245ZM121.804 36.6843V32.31H140.622V36.6843H133.871V54.5948H128.566V36.6843H121.804ZM143.25 54.5948V32.31H158.774V36.6843H148.631V41.2544H157.98V45.6395H148.631V50.2205H158.774V54.5948H143.25ZM187.67 32.31V54.5948H183.104L174.244 41.7332H174.103V54.5948H168.721V32.31H173.353L182.115 45.1499H182.299V32.31H187.67ZM212.068 43.4524C212.068 45.9043 211.596 47.9826 210.654 49.6874C209.712 51.3921 208.437 52.687 206.828 53.572C205.226 54.457 203.429 54.8992 201.435 54.8992C199.435 54.8992 197.634 54.4533 196.033 53.5611C194.431 52.6688 193.159 51.3739 192.216 49.6765C191.282 47.9717 190.814 45.8971 190.814 43.4524C190.814 41.0005 191.282 38.9222 192.216 37.2175C193.159 35.5128 194.431 34.2179 196.033 33.3329C197.634 32.4479 199.435 32.0054 201.435 32.0054C203.429 32.0054 205.226 32.4479 206.828 33.3329C208.437 34.2179 209.712 35.5128 210.654 37.2175C211.596 38.9222 212.068 41.0005 212.068 43.4524ZM206.566 43.4524C206.566 42.0016 206.36 40.7756 205.947 39.7746C205.541 38.7735 204.954 38.0154 204.186 37.5004C203.425 36.9853 202.508 36.7278 201.435 36.7278C200.37 36.7278 199.453 36.9853 198.685 37.5004C197.917 38.0154 197.326 38.7735 196.913 39.7746C196.507 40.7756 196.304 42.0016 196.304 43.4524C196.304 44.9033 196.507 46.1292 196.913 47.1303C197.326 48.1313 197.917 48.8894 198.685 49.4044C199.453 49.9195 200.37 50.177 201.435 50.177C202.508 50.177 203.425 49.9195 204.186 49.4044C204.954 48.8894 205.541 48.1313 205.947 47.1303C206.36 46.1292 206.566 44.9033 206.566 43.4524ZM219.441 54.5948L212.962 32.31H218.908L222.267 46.9126H222.452L226.29 32.31H231.139L234.976 46.9453H235.161L238.531 32.31H244.466L237.998 54.5948H232.812L228.801 41.0803H228.627L224.616 54.5948H219.441Z" fill="white"/>
</g>
<defs>
<clipPath id="clip0_761_31">
<rect width="328" height="87" fill="white"/>
</clipPath>
</defs>
</svg>
