<svg width="20" height="20" viewBox="0 0 48 48" fill="none" xmlns="http://www.w3.org/2000/svg">
  <path d="M14.3996 4.80005C11.7521 4.80005 9.59961 6.95255 9.59961 9.60005V38.4001C9.59961 41.0476 11.7521 43.2001 14.3996 43.2001H33.5996C36.2471 43.2001 38.3996 41.0476 38.3996 38.4001V9.60005C38.3996 6.95255 36.2471 4.80005 33.5996 4.80005H14.3996ZM16.7996 9.60005H31.1996C32.5271 9.60005 33.5996 10.6725 33.5996 12V14.4C33.5996 15.7275 32.5271 16.8 31.1996 16.8H16.7996C15.4721 16.8 14.3996 15.7275 14.3996 14.4V12C14.3996 10.6725 15.4721 9.60005 16.7996 9.60005ZM17.9996 22.2001C17.9996 23.1976 17.1971 24 16.1996 24C15.2021 24 14.3996 23.1976 14.3996 22.2001C14.3996 21.2026 15.2021 20.4 16.1996 20.4C17.1971 20.4 17.9996 21.2026 17.9996 22.2001ZM23.9996 24C23.0021 24 22.1996 23.1976 22.1996 22.2001C22.1996 21.2026 23.0021 20.4 23.9996 20.4C24.9971 20.4 25.7996 21.2026 25.7996 22.2001C25.7996 23.1976 24.9971 24 23.9996 24ZM33.5996 22.2001C33.5996 23.1976 32.7971 24 31.7996 24C30.8021 24 29.9996 23.1976 29.9996 22.2001C29.9996 21.2026 30.8021 20.4 31.7996 20.4C32.7971 20.4 33.5996 21.2026 33.5996 22.2001ZM16.1996 31.2001C15.2021 31.2001 14.3996 30.3975 14.3996 29.4C14.3996 28.4025 15.2021 27.6 16.1996 27.6C17.1971 27.6 17.9996 28.4025 17.9996 29.4C17.9996 30.3975 17.1971 31.2001 16.1996 31.2001ZM25.7996 29.4C25.7996 30.3975 24.9971 31.2001 23.9996 31.2001C23.0021 31.2001 22.1996 30.3975 22.1996 29.4C22.1996 28.4025 23.0021 27.6 23.9996 27.6C24.9971 27.6 25.7996 28.4025 25.7996 29.4ZM31.7996 31.2001C30.8021 31.2001 29.9996 30.3975 29.9996 29.4C29.9996 28.4025 30.8021 27.6 31.7996 27.6C32.7971 27.6 33.5996 28.4025 33.5996 29.4C33.5996 30.3975 32.7971 31.2001 31.7996 31.2001ZM14.3996 36.6C14.3996 35.6025 15.2021 34.8001 16.1996 34.8001H24.5996C25.5971 34.8001 26.3996 35.6025 26.3996 36.6C26.3996 37.5976 25.5971 38.4001 24.5996 38.4001H16.1996C15.2021 38.4001 14.3996 37.5976 14.3996 36.6ZM31.7996 34.8001C32.7971 34.8001 33.5996 35.6025 33.5996 36.6C33.5996 37.5976 32.7971 38.4001 31.7996 38.4001C30.8021 38.4001 29.9996 37.5976 29.9996 36.6C29.9996 35.6025 30.8021 34.8001 31.7996 34.8001Z" fill="white"/>
</svg>
