<svg width="20" height="20" viewBox="0 0 48 48" fill="none" xmlns="http://www.w3.org/2000/svg">
<path d="M15.4048 4.97255C12.5248 4.20005 9.56232 5.91005 8.79732 8.79005L4.98732 23.0026C4.21482 25.8826 5.92482 28.845 8.80482 29.6175L23.0173 33.4276C25.8973 34.2001 28.8598 32.49 29.6323 29.61L33.4423 15.3976C34.2148 12.5176 32.5048 9.55505 29.6248 8.78255L15.4048 4.97255ZM17.1298 20.4001C16.6723 19.6576 16.6573 18.7201 17.0848 17.9626C17.5123 17.2051 18.3223 16.7401 19.1998 16.7476C20.0698 16.7551 20.8648 17.2351 21.2848 18.0001C21.7423 18.7426 21.7573 19.6801 21.3298 20.4376C20.9023 21.1951 20.0923 21.6601 19.2148 21.6526C18.3448 21.6451 17.5498 21.1651 17.1298 20.4001ZM10.7398 21.3225C11.4823 20.8651 12.4198 20.8501 13.1773 21.2776C13.9348 21.7051 14.3998 22.5151 14.3923 23.3926C14.3848 24.2626 13.9048 25.0576 13.1398 25.4776C12.3973 25.9351 11.4598 25.95 10.7023 25.5225C9.94482 25.095 9.47982 24.2851 9.48732 23.4076C9.49482 22.5376 9.97482 21.7425 10.7398 21.3225ZM24.6148 28.5526C23.8723 29.0101 22.9348 29.025 22.1773 28.5975C21.4198 28.17 20.9548 27.3601 20.9623 26.4826C20.9698 25.6126 21.4498 24.8175 22.2148 24.3975C22.9573 23.94 23.8948 23.9251 24.6523 24.3526C25.4098 24.7801 25.8748 25.5901 25.8673 26.4676C25.8598 27.3376 25.3798 28.1326 24.6148 28.5526ZM25.2898 12.9226C26.0323 12.4651 26.9698 12.4501 27.7273 12.8776C28.4848 13.3051 28.9498 14.1151 28.9423 14.9926C28.9348 15.8626 28.4548 16.6576 27.6898 17.0776C26.9473 17.5351 26.0098 17.5501 25.2523 17.1226C24.4948 16.6951 24.0298 15.8851 24.0373 15.0076C24.0448 14.1376 24.5248 13.3426 25.2898 12.9226ZM16.2148 14.0026C15.4723 14.4601 14.5348 14.4751 13.7773 14.0476C13.0198 13.6201 12.5548 12.8101 12.5623 11.9326C12.5698 11.0626 13.0498 10.2676 13.8148 9.84755C14.5573 9.39005 15.4948 9.37505 16.2523 9.80255C17.0098 10.2301 17.4748 11.0401 17.4673 11.9176C17.4598 12.7876 16.9798 13.5826 16.2148 14.0026ZM36.1498 19.2001L33.1048 30.5401C31.8148 35.3401 26.8798 38.1901 22.0798 36.9076L19.2073 36.135V38.4C19.2073 41.0475 21.3598 43.2 24.0073 43.2H38.4073C41.0548 43.2 43.2073 41.0475 43.2073 38.4V24.0001C43.2073 21.3526 41.0548 19.2001 38.4073 19.2001H36.1498Z" fill="white"/>
</svg>
