<svg width="40" height="40" viewBox="0 0 40 40" fill="none" xmlns="http://www.w3.org/2000/svg">
<path d="M32.8039 14.4412L24.8761 7.4538C24.4004 7.0345 23.6405 7.04693 23.1783 7.48158L15.4834 14.7246C15.0217 15.1593 15.033 15.8514 15.5087 16.271L17.5351 18.0569L19.4976 18.0248C20.521 18.0081 21.3656 18.7525 21.3809 19.6842L21.4101 21.4722L23.4365 23.2581C23.9126 23.6774 24.6725 23.6649 25.1342 23.2303L32.8292 15.9876C33.2914 15.5526 33.28 14.8605 32.8039 14.4412ZM19.9213 16.3918C19.4548 16.8308 18.6868 16.8433 18.2062 16.4198C17.7257 15.9959 17.7143 15.2967 18.1807 14.8577C18.6471 14.4183 19.4151 14.4057 19.8957 14.8296C20.3762 15.2532 20.3877 15.9523 19.9213 16.3918ZM24.8996 20.7794C24.4332 21.2184 23.6652 21.231 23.1846 20.8074C22.7041 20.3835 22.6926 19.6844 23.159 19.2453C23.6255 18.8059 24.3935 18.7934 24.8741 19.2173C25.3546 19.6408 25.3661 20.34 24.8996 20.7794ZM25.1536 11.4669C24.6871 11.9059 23.9196 11.9185 23.4386 11.495C22.958 11.0711 22.9466 10.3719 23.413 9.9325C23.8799 9.49347 24.6475 9.48091 25.128 9.90443C25.609 10.3284 25.6204 11.0275 25.1536 11.4669ZM30.1319 15.8542C29.6655 16.2936 28.8979 16.3061 28.4169 15.8822C27.9364 15.4587 27.9249 14.7595 28.3914 14.3201C28.8582 13.8811 29.6258 13.8685 30.1064 14.2921C30.5874 14.716 30.5988 15.4151 30.1319 15.8542Z" fill="white"/>
<path d="M18.9627 19.1346H8.17264C7.52484 19.1346 7 19.6594 7 20.3068V31.0973C7 31.7446 7.52484 32.2699 8.17264 32.2699H18.9627C19.6105 32.2699 20.1353 31.7446 20.1353 31.0973V20.3068C20.1353 19.6594 19.6105 19.1346 18.9627 19.1346ZM9.89917 30.2747C9.24504 30.2747 8.71475 29.7444 8.71475 29.0902C8.71475 28.4357 9.24504 27.9053 9.89917 27.9053C10.5533 27.9053 11.0836 28.4357 11.0836 29.0902C11.0836 29.7443 10.5533 30.2747 9.89917 30.2747ZM9.89917 23.4987C9.24504 23.4987 8.71475 22.9684 8.71475 22.3143C8.71475 21.6602 9.24504 21.1298 9.89917 21.1298C10.5533 21.1298 11.0836 21.6602 11.0836 22.3143C11.0836 22.9684 10.5533 23.4987 9.89917 23.4987ZM13.5679 26.8865C12.9133 26.8865 12.383 26.3562 12.383 25.702C12.383 25.0479 12.9133 24.5176 13.5679 24.5176C14.222 24.5176 14.7523 25.0479 14.7523 25.702C14.7523 26.3562 14.222 26.8865 13.5679 26.8865ZM17.2361 30.2747C16.582 30.2747 16.0517 29.7444 16.0517 29.0902C16.0517 28.4357 16.582 27.9053 17.2361 27.9053C17.8903 27.9053 18.4206 28.4357 18.4206 29.0902C18.4206 29.7443 17.8903 30.2747 17.2361 30.2747ZM17.2361 23.4987C16.582 23.4987 16.0517 22.9684 16.0517 22.3143C16.0517 21.6602 16.582 21.1298 17.2361 21.1298C17.8903 21.1298 18.4206 21.6602 18.4206 22.3143C18.4206 22.9684 17.8903 23.4987 17.2361 23.4987Z" fill="white"/>
</svg>
