<svg width="20" height="20" viewBox="0 0 48 48" fill="none" xmlns="http://www.w3.org/2000/svg">
  <path d="M15.7879 36.0001H25.0129L29.9104 31.1026L16.8979 18.09L7.39539 27.5925L15.7954 35.9925L15.7879 36.0001ZM19.2004 40.8001H15.7879C14.5129 40.8001 13.2904 40.2975 12.3904 39.3975L3.67539 30.675C2.85789 29.8575 2.40039 28.755 2.40039 27.6C2.40039 26.445 2.85789 25.3425 3.67539 24.525L22.1254 6.07505C22.9429 5.25755 24.0454 4.80005 25.2004 4.80005C26.3554 4.80005 27.4579 5.25755 28.2754 6.07505L41.9254 19.725C42.7429 20.5425 43.2004 21.645 43.2004 22.8C43.2004 23.955 42.7429 25.0575 41.9254 25.875L31.8004 36.0001H40.8004C42.1279 36.0001 43.2004 37.0726 43.2004 38.4001C43.2004 39.7276 42.1279 40.8001 40.8004 40.8001H19.2004Z" fill="black"/>
</svg>
