<svg width="20" height="20" viewBox="0 0 48 48" fill="none" xmlns="http://www.w3.org/2000/svg">
<path d="M19.4323 5.51248C19.6573 4.40248 20.6398 3.59998 21.7798 3.59998H26.2648C27.4048 3.59998 28.3873 4.40248 28.6123 5.51248L29.6998 10.7625C30.7573 11.2125 31.7473 11.79 32.6473 12.4725L37.7323 10.785C38.8123 10.425 39.9973 10.875 40.5673 11.865L42.8098 15.75C43.3798 16.74 43.1773 17.985 42.3223 18.7425L38.3248 22.2975C38.3923 22.8525 38.4223 23.4225 38.4223 24C38.4223 24.5775 38.3848 25.1475 38.3248 25.7025L42.3298 29.265C43.1848 30.0225 43.3798 31.275 42.8173 32.2575L40.5748 36.1425C40.0048 37.125 38.8198 37.5825 37.7398 37.2225L32.6548 35.535C31.7473 36.2175 30.7573 36.7875 29.7073 37.245L28.6273 42.4875C28.3948 43.605 27.4123 44.4 26.2798 44.4H21.7948C20.6548 44.4 19.6723 43.5975 19.4473 42.4875L18.3673 37.245C17.3098 36.795 16.3273 36.2175 15.4198 35.535L10.3123 37.2225C9.23232 37.5825 8.04732 37.1325 7.47732 36.1425L5.23482 32.2575C4.66482 31.2675 4.86732 30.0225 5.72232 29.265L9.72732 25.7025C9.65982 25.1475 9.62982 24.5775 9.62982 24C9.62982 23.4225 9.66732 22.8525 9.72732 22.2975L5.72232 18.735C4.86732 17.9775 4.67232 16.725 5.23482 15.7425L7.47732 11.8575C8.04732 10.8675 9.23232 10.4175 10.3123 10.7775L15.3973 12.465C16.3048 11.7825 17.2948 11.2125 18.3448 10.755L19.4323 5.51248ZM24.0223 30C27.3373 29.985 30.0148 27.2925 29.9998 23.9775C29.9848 20.6625 27.2923 17.985 23.9773 18C20.6623 18.015 17.9848 20.7075 17.9998 24.0225C18.0148 27.3375 20.7073 30.015 24.0223 30Z" fill="#b5b5b5"/>
</svg>
