<svg width="20" height="20" viewBox="0 0 48 48" fill="none" xmlns="http://www.w3.org/2000/svg">
  <path d="M13.7325 10.305C12.795 9.36748 11.2725 9.36748 10.335 10.305C9.39746 11.2425 9.39746 12.765 10.335 13.7025L20.64 24L10.3425 34.305C9.40496 35.2425 9.40496 36.765 10.3425 37.7025C11.28 38.64 12.8025 38.64 13.74 37.7025L24.0375 27.3975L34.3425 37.695C35.28 38.6325 36.8025 38.6325 37.74 37.695C38.6775 36.7575 38.6775 35.235 37.74 34.2975L27.435 24L37.7325 13.695C38.67 12.7575 38.67 11.235 37.7325 10.2975C36.795 9.35999 35.2725 9.35999 34.335 10.2975L24.0375 20.6025L13.7325 10.305Z" fill="white"/>
</svg>
